<?xml version="1.0" encoding="UTF-8" standalone="no"?>
<!-- Created with Inkscape (http://www.inkscape.org/) -->

<svg
   xmlns:dc="http://purl.org/dc/elements/1.1/"
   xmlns:cc="http://creativecommons.org/ns#"
   xmlns:rdf="http://www.w3.org/1999/02/22-rdf-syntax-ns#"
   xmlns:svg="http://www.w3.org/2000/svg"
   xmlns="http://www.w3.org/2000/svg"
   xmlns:xlink="http://www.w3.org/1999/xlink"
   xmlns:sodipodi="http://sodipodi.sourceforge.net/DTD/sodipodi-0.dtd"
   xmlns:inkscape="http://www.inkscape.org/namespaces/inkscape"
   width="7.0492334mm"
   height="6.6149211mm"
   viewBox="0 0 7.0492334 6.614921"
   version="1.1"
   id="svg4633"
   inkscape:version="0.92.3 (2405546, 2018-03-11)"
   sodipodi:docname="icon_data_missing_gray.svg">
  <defs
     id="defs4627">
    <linearGradient
       inkscape:collect="always"
       id="linearGradient6218">
      <stop
         style="stop-color:#14e0f9;stop-opacity:1"
         offset="0"
         id="stop6214" />
      <stop
         style="stop-color:#3765ff;stop-opacity:1"
         offset="1"
         id="stop6216" />
    </linearGradient>
    <linearGradient
       inkscape:collect="always"
       xlink:href="#linearGradient6218"
       id="linearGradient4933"
       x1="-3759.241"
       y1="4189.0234"
       x2="-3756.2056"
       y2="4189.0234"
       gradientUnits="userSpaceOnUse"
       gradientTransform="matrix(1.8347475,0,0,1.8347475,3241.6795,-3368.5314)" />
    <linearGradient
       inkscape:collect="always"
       xlink:href="#linearGradient6218"
       id="linearGradient6199"
       x1="-3759.241"
       y1="4189.0234"
       x2="-3756.2056"
       y2="4189.0234"
       gradientUnits="userSpaceOnUse"
       gradientTransform="matrix(1.8347475,0,0,1.8347475,6849.0095,-7706.9634)" />
  </defs>
  <sodipodi:namedview
     id="base"
     pagecolor="#ffffff"
     bordercolor="#666666"
     borderopacity="1.0"
     inkscape:pageopacity="0.0"
     inkscape:pageshadow="2"
     inkscape:zoom="5.6"
     inkscape:cx="-25.396354"
     inkscape:cy="-18.62166"
     inkscape:document-units="mm"
     inkscape:current-layer="g824"
     showgrid="false"
     inkscape:window-width="1920"
     inkscape:window-height="1017"
     inkscape:window-x="0"
     inkscape:window-y="30"
     inkscape:window-maximized="1"
     showguides="false" />
  <metadata
     id="metadata4630">
    <rdf:RDF>
      <cc:Work
         rdf:about="">
        <dc:format>image/svg+xml</dc:format>
        <dc:type
           rdf:resource="http://purl.org/dc/dcmitype/StillImage" />
        <dc:title />
      </cc:Work>
    </rdf:RDF>
  </metadata>
  <g
     inkscape:label="Layer 1"
     inkscape:groupmode="layer"
     id="layer1"
     transform="translate(-25.110161,12.735069)">
    <g
       id="g6334"
       transform="translate(0.35700994,27.813281)">
      <g
         id="g824">
        <path
           style="color:#000000;clip-rule:nonzero;display:inline;overflow:visible;visibility:visible;opacity:1;isolation:auto;mix-blend-mode:normal;color-interpolation:sRGB;color-interpolation-filters:linearRGB;solid-color:#000000;solid-opacity:1;fill:#4b4b4b;fill-opacity:1;fill-rule:evenodd;stroke:none;stroke-width:1.88976383;stroke-linecap:round;stroke-linejoin:round;stroke-miterlimit:4;stroke-dasharray:1.55072447, 3.10144906;stroke-dashoffset:0;stroke-opacity:1;paint-order:markers fill stroke;color-rendering:auto;image-rendering:auto;shape-rendering:auto;text-rendering:auto;enable-background:accumulate"
           d="M 8.0722656 5.3613281 C 7.0253365 5.3613281 6.1816406 6.2030709 6.1816406 7.25 L 6.1816406 17.75 C 6.1816406 18.796929 7.0253365 19.640625 8.0722656 19.640625 L 18.572266 19.640625 C 19.619195 19.640625 20.460938 18.796929 20.460938 17.75 L 20.460938 7.25 C 20.460938 6.2030709 19.619195 5.3613281 18.572266 5.3613281 L 8.0722656 5.3613281 z M 13.267578 7.859375 C 13.838012 7.859375 14.345396 7.9543706 14.789062 8.1445312 C 15.232731 8.3267549 15.572865 8.5776229 15.810547 8.8945312 C 16.056141 9.2114346 16.179688 9.5591646 16.179688 9.9394531 C 16.179688 10.232608 16.124588 10.498666 16.013672 10.736328 C 15.902755 10.966073 15.767823 11.163688 15.609375 11.330078 C 15.450912 11.496453 15.241906 11.694068 14.980469 11.923828 C 14.600183 12.256578 14.313192 12.554959 14.123047 12.816406 C 13.932886 13.077841 13.837891 13.397043 13.837891 13.777344 C 13.837891 13.840714 13.815125 13.897791 13.767578 13.945312 C 13.720057 13.984947 13.664958 14.003906 13.601562 14.003906 L 12.626953 14.003906 C 12.460553 14.003906 12.376953 13.912692 12.376953 13.730469 C 12.376953 13.366029 12.432052 13.037281 12.542969 12.744141 C 12.661822 12.451016 12.800544 12.205895 12.958984 12.007812 C 13.125359 11.801828 13.336318 11.571888 13.589844 11.318359 C 13.86714 11.033134 14.064755 10.803195 14.183594 10.628906 C 14.310359 10.446683 14.373047 10.249067 14.373047 10.035156 C 14.373047 9.7578624 14.266656 9.5355154 14.052734 9.3691406 C 13.84675 9.194854 13.580692 9.1074219 13.255859 9.1074219 C 12.938954 9.1074219 12.642528 9.1986358 12.365234 9.3808594 C 12.087938 9.555146 11.89032 9.7926779 11.771484 10.09375 C 11.739787 10.15712 11.707479 10.197042 11.675781 10.212891 C 11.644084 10.220702 11.592791 10.220702 11.521484 10.212891 L 10.333984 9.9277344 C 10.262677 9.9037974 10.226562 9.8525052 10.226562 9.7734375 C 10.226562 9.7259162 10.23047 9.6898266 10.238281 9.6660156 C 10.491814 9.0797403 10.879456 8.6332027 11.402344 8.3242188 C 11.925239 8.0152323 12.546616 7.859375 13.267578 7.859375 z M 12.294922 14.859375 L 13.921875 14.859375 C 14.032792 14.859375 14.087891 14.924016 14.087891 15.050781 L 14.087891 16.511719 C 14.087891 16.614723 14.061318 16.69076 14.005859 16.738281 C 13.958313 16.777916 13.878495 16.796875 13.767578 16.796875 L 12.353516 16.796875 C 12.258448 16.796875 12.19 16.777916 12.150391 16.738281 C 12.118693 16.698672 12.103516 16.634031 12.103516 16.546875 L 12.103516 15.074219 C 12.103516 14.931605 12.168157 14.859375 12.294922 14.859375 z "
           transform="matrix(0.26458333,0,0,0.26458333,24.753151,-40.54835)"
           id="rect4016-2" />
      </g>
    </g>
  </g>
</svg>
