<?xml version="1.0" encoding="UTF-8" standalone="no"?>
<!-- Created with Inkscape (http://www.inkscape.org/) -->

<svg
   xmlns:dc="http://purl.org/dc/elements/1.1/"
   xmlns:cc="http://creativecommons.org/ns#"
   xmlns:rdf="http://www.w3.org/1999/02/22-rdf-syntax-ns#"
   xmlns:svg="http://www.w3.org/2000/svg"
   xmlns="http://www.w3.org/2000/svg"
   xmlns:sodipodi="http://sodipodi.sourceforge.net/DTD/sodipodi-0.dtd"
   xmlns:inkscape="http://www.inkscape.org/namespaces/inkscape"
   width="14.330392mm"
   height="6.3825569mm"
   viewBox="0 0 14.330392 6.3825569"
   version="1.1"
   id="svg4809"
   inkscape:version="0.92.3 (2405546, 2018-03-11)"
   sodipodi:docname="icon_attribute_nominal_gray.svg">
  <defs
     id="defs4803" />
  <sodipodi:namedview
     id="base"
     pagecolor="#ffffff"
     bordercolor="#666666"
     borderopacity="1.0"
     inkscape:pageopacity="0.0"
     inkscape:pageshadow="2"
     inkscape:zoom="15.839192"
     inkscape:cx="20.911408"
     inkscape:cy="9.1431091"
     inkscape:document-units="mm"
     inkscape:current-layer="layer1"
     showgrid="false"
     inkscape:window-width="1920"
     inkscape:window-height="1017"
     inkscape:window-x="0"
     inkscape:window-y="30"
     inkscape:window-maximized="1" />
  <metadata
     id="metadata4806">
    <rdf:RDF>
      <cc:Work
         rdf:about="">
        <dc:format>image/svg+xml</dc:format>
        <dc:type
           rdf:resource="http://purl.org/dc/dcmitype/StillImage" />
        <dc:title />
      </cc:Work>
    </rdf:RDF>
  </metadata>
  <g
     inkscape:label="Layer 1"
     inkscape:groupmode="layer"
     id="layer1"
     transform="translate(-9.2624835,-103.80141)">
    <path
       style="opacity:1;fill:#4b4b4b;fill-opacity:1;stroke:none;stroke-width:5.6692915;stroke-linecap:round;stroke-miterlimit:4;stroke-dasharray:none;stroke-opacity:1;paint-order:normal"
       d="M 3.7792969 0 C 1.6854374 0 0 1.6854374 0 3.7792969 L 0 20.34375 C 0 22.43761 1.6854374 24.123047 3.7792969 24.123047 L 50.382812 24.123047 C 52.476672 24.123047 54.162109 22.43761 54.162109 20.34375 L 54.162109 3.7792969 C 54.162109 1.6854374 52.476672 0 50.382812 0 L 3.7792969 0 z M 19.664062 5.4394531 L 22.199219 5.4394531 C 22.323154 5.4394531 22.429401 5.4734556 22.519531 5.5410156 C 22.609661 5.6086156 22.673231 5.6978769 22.707031 5.8105469 L 26.880859 17.521484 C 26.903389 17.589088 26.914063 17.640028 26.914062 17.673828 C 26.914062 17.763928 26.892726 17.838201 26.847656 17.894531 C 26.813856 17.950831 26.756604 17.978516 26.677734 17.978516 L 24.193359 17.978516 C 24.024358 17.978516 23.918117 17.899916 23.873047 17.742188 L 22.994141 15.275391 C 22.971611 15.207792 22.942003 15.161212 22.908203 15.138672 C 22.885673 15.104872 22.841047 15.087891 22.773438 15.087891 L 18.650391 15.087891 C 18.537724 15.087891 18.463487 15.145194 18.429688 15.257812 L 17.535156 17.759766 C 17.467556 17.906236 17.348687 17.978516 17.179688 17.978516 L 15.236328 17.978516 C 15.067322 17.978516 14.982422 17.882916 14.982422 17.691406 C 14.982422 17.601306 14.995038 17.533351 15.017578 17.488281 L 19.224609 5.7773438 C 19.269679 5.6534038 19.320623 5.5685075 19.376953 5.5234375 C 19.444553 5.4671375 19.54013 5.4394531 19.664062 5.4394531 z M 20.695312 8.4980469 C 20.661511 8.4980469 20.62755 8.5363444 20.59375 8.6152344 L 19.158203 12.554688 C 19.135673 12.622287 19.123047 12.671278 19.123047 12.705078 C 19.123047 12.795177 19.184657 12.841797 19.308594 12.841797 L 22.080078 12.841797 C 22.19274 12.841797 22.250001 12.795198 22.25 12.705078 C 22.25 12.637478 22.243702 12.588487 22.232422 12.554688 L 20.814453 8.5996094 C 20.780652 8.5320089 20.740382 8.4980469 20.695312 8.4980469 z M 32.228516 8.8535156 C 34.763536 8.8535156 36.031251 9.7942416 36.03125 11.675781 L 36.03125 17.607422 C 36.03125 17.742632 36.009914 17.838201 35.964844 17.894531 C 35.919774 17.950831 35.83487 17.978516 35.710938 17.978516 L 33.970703 17.978516 C 33.858035 17.978516 33.773127 17.940218 33.716797 17.861328 C 33.671724 17.782428 33.637764 17.663599 33.615234 17.505859 L 33.582031 17.132812 C 33.570761 17.031413 33.530491 16.982422 33.462891 16.982422 C 33.417821 16.982422 33.332918 17.027018 33.208984 17.117188 C 32.465378 17.804456 31.575603 18.148438 30.539062 18.148438 C 29.694057 18.148438 29.023081 17.923326 28.527344 17.472656 C 28.042874 17.010716 27.800781 16.412026 27.800781 15.679688 C 27.800781 14.722018 28.229665 13.961776 29.085938 13.398438 C 29.953476 12.823838 31.153269 12.520128 32.685547 12.486328 L 33.277344 12.435547 C 33.457615 12.435547 33.546875 12.356949 33.546875 12.199219 L 33.546875 11.84375 C 33.546875 11.40435 33.423649 11.066678 33.175781 10.830078 C 32.927912 10.593478 32.573265 10.474609 32.111328 10.474609 C 31.322655 10.474609 30.736586 10.812281 30.353516 11.488281 C 30.308446 11.600953 30.234213 11.658203 30.132812 11.658203 C 30.076483 11.658203 30.027492 11.652225 29.982422 11.640625 L 28.291016 11.251953 C 28.189612 11.229453 28.138672 11.167756 28.138672 11.066406 C 28.138672 10.998806 28.161961 10.9139 28.207031 10.8125 C 28.477433 10.15903 28.957259 9.6685369 29.644531 9.3417969 C 30.331803 9.0150569 31.191975 8.8535156 32.228516 8.8535156 z M 33.294922 13.703125 L 32.820312 13.736328 C 32.166842 13.770128 31.587082 13.929268 31.080078 14.210938 C 30.58434 14.481336 30.335938 14.857327 30.335938 15.341797 C 30.335938 15.679797 30.454804 15.951497 30.691406 16.154297 C 30.928008 16.345826 31.255005 16.441406 31.671875 16.441406 C 32.167612 16.441406 32.607164 16.288575 32.990234 15.984375 C 33.362037 15.668905 33.546875 15.369561 33.546875 15.087891 L 33.546875 13.990234 C 33.546875 13.888834 33.525539 13.816544 33.480469 13.771484 C 33.446669 13.726384 33.385062 13.703125 33.294922 13.703125 z "
       transform="matrix(0.26458333,0,0,0.26458333,9.2624835,103.80141)"
       id="rect824-2" />
  </g>
</svg>
