<?xml version="1.0" encoding="UTF-8" standalone="no"?>
<!-- Created with Inkscape (http://www.inkscape.org/) -->

<svg
   xmlns:dc="http://purl.org/dc/elements/1.1/"
   xmlns:cc="http://creativecommons.org/ns#"
   xmlns:rdf="http://www.w3.org/1999/02/22-rdf-syntax-ns#"
   xmlns:svg="http://www.w3.org/2000/svg"
   xmlns="http://www.w3.org/2000/svg"
   xmlns:sodipodi="http://sodipodi.sourceforge.net/DTD/sodipodi-0.dtd"
   xmlns:inkscape="http://www.inkscape.org/namespaces/inkscape"
   width="7.0492334mm"
   height="6.6149211mm"
   viewBox="0 0 7.0492334 6.614921"
   version="1.1"
   id="svg4633"
   inkscape:version="0.92.3 (2405546, 2018-03-11)"
   sodipodi:docname="icon_dataset_multivariate.svg">
  <defs
     id="defs4627" />
  <sodipodi:namedview
     id="base"
     pagecolor="#ffffff"
     bordercolor="#666666"
     borderopacity="1.0"
     inkscape:pageopacity="0.0"
     inkscape:pageshadow="2"
     inkscape:zoom="15.839192"
     inkscape:cx="18.116287"
     inkscape:cy="1.8919734"
     inkscape:document-units="mm"
     inkscape:current-layer="layer1"
     showgrid="false"
     inkscape:window-width="1920"
     inkscape:window-height="1017"
     inkscape:window-x="0"
     inkscape:window-y="30"
     inkscape:window-maximized="1"
     showguides="false" />
  <metadata
     id="metadata4630">
    <rdf:RDF>
      <cc:Work
         rdf:about="">
        <dc:format>image/svg+xml</dc:format>
        <dc:type
           rdf:resource="http://purl.org/dc/dcmitype/StillImage" />
        <dc:title></dc:title>
      </cc:Work>
    </rdf:RDF>
  </metadata>
  <g
     inkscape:label="Layer 1"
     inkscape:groupmode="layer"
     id="layer1"
     transform="translate(-25.110161,12.735069)">
    <path
       style="color:#000000;font-style:normal;font-variant:normal;font-weight:normal;font-stretch:normal;font-size:medium;line-height:normal;font-family:sans-serif;font-variant-ligatures:normal;font-variant-position:normal;font-variant-caps:normal;font-variant-numeric:normal;font-variant-alternates:normal;font-feature-settings:normal;text-indent:0;text-align:start;text-decoration:none;text-decoration-line:none;text-decoration-style:solid;text-decoration-color:#000000;letter-spacing:normal;word-spacing:normal;text-transform:none;writing-mode:lr-tb;direction:ltr;text-orientation:mixed;dominant-baseline:auto;baseline-shift:baseline;text-anchor:start;white-space:normal;shape-padding:0;clip-rule:nonzero;display:inline;overflow:visible;visibility:visible;opacity:1;isolation:auto;mix-blend-mode:normal;color-interpolation:sRGB;color-interpolation-filters:linearRGB;solid-color:#000000;solid-opacity:1;vector-effect:none;fill:#928888;fill-opacity:1;fill-rule:nonzero;stroke:none;stroke-width:1.1374718;stroke-linecap:butt;stroke-linejoin:miter;stroke-miterlimit:4;stroke-dasharray:none;stroke-dashoffset:0;stroke-opacity:1;color-rendering:auto;image-rendering:auto;shape-rendering:auto;text-rendering:auto;enable-background:accumulate"
       d="M 8.5507812 5.3398438 C 7.8153003 5.3398438 7.2055122 5.8528326 7.0488281 6.5390625 C 7.2108187 6.4828609 7.3852186 6.4414062 7.5683594 6.4414062 L 19.472656 6.4414062 C 22.098252 6.4414062 22.972656 8.9167604 22.972656 10.150391 L 22.972656 14.601562 C 22.972656 14.720561 22.940359 14.837519 22.933594 14.947266 C 23.529912 14.732403 23.957031 14.171356 23.957031 13.5 L 23.957031 10.109375 C 23.957027 9.1451495 23.857994 5.4985121 19.544922 5.3398438 L 8.5507812 5.3398438 z M 6.9414062 7.1015625 C 6.2059215 7.1015625 5.5961372 7.6125944 5.4394531 8.2988281 C 5.6014059 8.2426266 5.7755148 8.203125 5.9589844 8.203125 L 18.810547 8.203125 C 20.286142 8.203125 21.363281 9.5127031 21.363281 10.773438 L 21.363281 16.363281 C 21.363281 16.48228 21.331022 16.597285 21.324219 16.707031 C 21.920541 16.492173 22.345703 15.931122 22.345703 15.259766 L 22.345703 10.568359 C 22.345703 9.7175121 21.872455 7.1875052 19.068359 7.1015625 L 6.9414062 7.1015625 z M 4.7949219 8.8242188 C 3.6349357 8.8242188 2.6835975 9.7755604 2.6835938 10.935547 L 2.6835938 17.548828 C 2.6835938 18.708814 3.6349357 19.660156 4.7949219 19.660156 L 18.658203 19.660156 C 19.818189 19.660156 20.769531 18.708814 20.769531 17.548828 L 20.769531 10.935547 C 20.769531 9.7755604 19.818189 8.8242188 18.658203 8.8242188 L 4.7949219 8.8242188 z M 4.7949219 9.9609375 L 18.658203 9.9609375 C 19.207705 9.9609375 19.632812 10.386046 19.632812 10.935547 L 19.632812 17.548828 C 19.632812 18.09833 19.207705 18.523438 18.658203 18.523438 L 4.7949219 18.523438 C 4.2454201 18.523438 3.8203125 18.09833 3.8203125 17.548828 L 3.8203125 10.935547 C 3.8203125 10.386046 4.2454201 9.9609375 4.7949219 9.9609375 z M 16.492188 10.646484 C 16.358202 10.646484 16.25 10.754686 16.25 10.888672 L 16.25 11.925781 C 16.25 12.059767 16.358202 12.167969 16.492188 12.167969 L 18.664062 12.167969 C 18.798048 12.167969 18.90625 12.059767 18.90625 11.925781 L 18.90625 10.888672 C 18.90625 10.754686 18.798048 10.646484 18.664062 10.646484 L 16.492188 10.646484 z M 5.1484375 11.042969 C 5.0774223 11.042969 5.0214844 11.10086 5.0214844 11.171875 L 5.0214844 11.720703 C 5.0214844 11.791718 5.0774223 11.849609 5.1484375 11.849609 L 14.771484 11.849609 C 14.8425 11.849609 14.900391 11.791718 14.900391 11.720703 L 14.900391 11.171875 C 14.900391 11.10086 14.8425 11.042969 14.771484 11.042969 L 5.1484375 11.042969 z "
       transform="matrix(0.26458333,0,0,0.26458333,25.110161,-12.735069)"
       id="rect973" />
  </g>
</svg>
