<?xml version="1.0" encoding="UTF-8" standalone="no"?>
<!-- Created with Inkscape (http://www.inkscape.org/) -->

<svg
   xmlns:dc="http://purl.org/dc/elements/1.1/"
   xmlns:cc="http://creativecommons.org/ns#"
   xmlns:rdf="http://www.w3.org/1999/02/22-rdf-syntax-ns#"
   xmlns:svg="http://www.w3.org/2000/svg"
   xmlns="http://www.w3.org/2000/svg"
   xmlns:sodipodi="http://sodipodi.sourceforge.net/DTD/sodipodi-0.dtd"
   xmlns:inkscape="http://www.inkscape.org/namespaces/inkscape"
   width="7.0492334mm"
   height="6.6149211mm"
   viewBox="0 0 7.0492334 6.614921"
   version="1.1"
   id="svg4633"
   inkscape:version="0.92.4 (unknown)"
   sodipodi:docname="icon_attributes_gray.svg">
  <defs
     id="defs4627" />
  <sodipodi:namedview
     id="base"
     pagecolor="#ffffff"
     bordercolor="#666666"
     borderopacity="1.0"
     inkscape:pageopacity="0.0"
     inkscape:pageshadow="2"
     inkscape:zoom="15.839192"
     inkscape:cx="24.021395"
     inkscape:cy="26.658971"
     inkscape:document-units="mm"
     inkscape:current-layer="layer1"
     showgrid="false"
     inkscape:window-width="1920"
     inkscape:window-height="1014"
     inkscape:window-x="1920"
     inkscape:window-y="33"
     inkscape:window-maximized="1"
     showguides="false" />
  <metadata
     id="metadata4630">
    <rdf:RDF>
      <cc:Work
         rdf:about="">
        <dc:format>image/svg+xml</dc:format>
        <dc:type
           rdf:resource="http://purl.org/dc/dcmitype/StillImage" />
        <dc:title></dc:title>
      </cc:Work>
    </rdf:RDF>
  </metadata>
  <g
     inkscape:label="Layer 1"
     inkscape:groupmode="layer"
     id="layer1"
     transform="translate(-25.110161,12.735069)">
    <g
       id="g5254"
       transform="translate(33.186224,-2.8907012)">
      <rect
         ry="0.25413582"
         y="-14.601816"
         x="-9.1533012"
         height="0.50827163"
         width="4.251039"
         id="rect10587-5"
         style="color:#000000;clip-rule:nonzero;display:inline;overflow:visible;visibility:visible;opacity:1;isolation:auto;mix-blend-mode:normal;color-interpolation:sRGB;color-interpolation-filters:linearRGB;solid-color:#000000;solid-opacity:1;fill:#4b4b4b;fill-opacity:1;fill-rule:evenodd;stroke:none;stroke-width:0.49734223;stroke-linecap:round;stroke-linejoin:round;stroke-miterlimit:4;stroke-dasharray:none;stroke-dashoffset:0;stroke-opacity:1;paint-order:markers fill stroke;color-rendering:auto;image-rendering:auto;shape-rendering:auto;text-rendering:auto;enable-background:accumulate" />
      <rect
         ry="0.25413582"
         y="-15.63917"
         x="-9.1533012"
         height="0.50827163"
         width="4.251039"
         id="rect10587-2-7"
         style="color:#000000;clip-rule:nonzero;display:inline;overflow:visible;visibility:visible;opacity:1;isolation:auto;mix-blend-mode:normal;color-interpolation:sRGB;color-interpolation-filters:linearRGB;solid-color:#000000;solid-opacity:1;fill:#4b4b4b;fill-opacity:1;fill-rule:evenodd;stroke:none;stroke-width:0.49734223;stroke-linecap:round;stroke-linejoin:round;stroke-miterlimit:4;stroke-dasharray:none;stroke-dashoffset:0;stroke-opacity:1;paint-order:markers fill stroke;color-rendering:auto;image-rendering:auto;shape-rendering:auto;text-rendering:auto;enable-background:accumulate" />
      <rect
         ry="0.25413582"
         y="-16.676523"
         x="-9.1533012"
         height="0.50827163"
         width="4.251039"
         id="rect10587-2-0-4"
         style="color:#000000;clip-rule:nonzero;display:inline;overflow:visible;visibility:visible;opacity:1;isolation:auto;mix-blend-mode:normal;color-interpolation:sRGB;color-interpolation-filters:linearRGB;solid-color:#000000;solid-opacity:1;fill:#4b4b4b;fill-opacity:1;fill-rule:evenodd;stroke:none;stroke-width:0.49734223;stroke-linecap:round;stroke-linejoin:round;stroke-miterlimit:4;stroke-dasharray:none;stroke-dashoffset:0;stroke-opacity:1;paint-order:markers fill stroke;color-rendering:auto;image-rendering:auto;shape-rendering:auto;text-rendering:auto;enable-background:accumulate" />
    </g>
    <path
       style="color:#000000;clip-rule:nonzero;display:inline;overflow:visible;visibility:visible;opacity:1;isolation:auto;mix-blend-mode:normal;color-interpolation:sRGB;color-interpolation-filters:linearRGB;solid-color:#000000;solid-opacity:1;fill:#4b4b4b;fill-opacity:1;fill-rule:evenodd;stroke:none;stroke-width:1.30699432;stroke-linecap:round;stroke-linejoin:round;stroke-miterlimit:4;stroke-dasharray:none;stroke-dashoffset:0;stroke-opacity:1;paint-order:markers fill stroke;color-rendering:auto;image-rendering:auto;shape-rendering:auto;text-rendering:auto;enable-background:accumulate"
       d="m 26.691744,-11.042755 c -0.203185,0 -0.366903,0.163718 -0.366903,0.366903 v 2.4964875 c 0,0.203185 0.163718,0.366903 0.366903,0.366903 h 3.886067 c 0.203185,0 0.366903,-0.163718 0.366903,-0.366903 v -2.4964875 c 0,-0.203185 -0.163718,-0.366903 -0.366903,-0.366903 z m 3.054594,0.45682 h 0.712101 c 0.08013,0 0.144694,0.06457 0.144694,0.144694 v 0.263033 c 0,0.08013 -0.06457,0.144694 -0.144694,0.144694 h -0.712101 c -0.08013,0 -0.144178,-0.06457 -0.144178,-0.144694 v -0.263033 c 0,-0.08013 0.06405,-0.144694 0.144178,-0.144694 z m -2.975013,0.09095 h 2.454114 c 0.04923,0 0.08888,0.03965 0.08888,0.08888 v 0.16123 c 0,0.04924 -0.03965,0.08888 -0.08888,0.08888 h -2.454114 c -0.04923,0 -0.08888,-0.03965 -0.08888,-0.08888 v -0.16123 c 0,-0.04924 0.03965,-0.08888 0.08888,-0.08888 z m -0.02532,0.8237215 h 1.874304 c 0.03532,0 0.06356,0.02824 0.06356,0.06356 v 0.116272 c 0,0.03532 -0.02824,0.06356 -0.06356,0.06356 h -1.874304 c -0.03532,0 -0.06356,-0.02824 -0.06356,-0.06356 v -0.116272 c 0,-0.03532 0.02824,-0.06356 0.06356,-0.06356 z m 0,0.470772 h 1.408182 c 0.03532,0 0.06408,0.02876 0.06408,0.06408 v 0.115755 c 0,0.03532 -0.02876,0.06408 -0.06408,0.06408 h -1.408182 c -0.03532,0 -0.06356,-0.02876 -0.06356,-0.06408 v -0.115755 c 0,-0.03532 0.02824,-0.06408 0.06356,-0.06408 z m 0,0.503329 h 2.335258 c 0.03532,0 0.06408,0.02824 0.06408,0.06356 v 0.116272 c 0,0.03532 -0.02876,0.06356 -0.06408,0.06356 h -2.335258 c -0.03532,-1e-6 -0.06356,-0.02824 -0.06356,-0.06356 v -0.116272 c 0,-0.03532 0.02824,-0.06356 0.06356,-0.06356 z"
       id="rect10587-2-0-7-1"
       inkscape:connector-curvature="0" />
  </g>
</svg>
