<?xml version="1.0" encoding="UTF-8" standalone="no"?>
<!-- Created with Inkscape (http://www.inkscape.org/) -->

<svg
   xmlns:dc="http://purl.org/dc/elements/1.1/"
   xmlns:cc="http://creativecommons.org/ns#"
   xmlns:rdf="http://www.w3.org/1999/02/22-rdf-syntax-ns#"
   xmlns:svg="http://www.w3.org/2000/svg"
   xmlns="http://www.w3.org/2000/svg"
   xmlns:sodipodi="http://sodipodi.sourceforge.net/DTD/sodipodi-0.dtd"
   xmlns:inkscape="http://www.inkscape.org/namespaces/inkscape"
   width="14.330392mm"
   height="6.3825569mm"
   viewBox="0 0 14.330392 6.3825569"
   version="1.1"
   id="svg4809"
   inkscape:version="0.92.4 (unknown)"
   sodipodi:docname="icon_attribute_nominal_gray.svg">
  <defs
     id="defs4803" />
  <sodipodi:namedview
     id="base"
     pagecolor="#ffffff"
     bordercolor="#666666"
     borderopacity="1.0"
     inkscape:pageopacity="0.0"
     inkscape:pageshadow="2"
     inkscape:zoom="15.839192"
     inkscape:cx="31.86525"
     inkscape:cy="9.1431091"
     inkscape:document-units="mm"
     inkscape:current-layer="layer1"
     showgrid="false"
     inkscape:window-width="1920"
     inkscape:window-height="1014"
     inkscape:window-x="1920"
     inkscape:window-y="33"
     inkscape:window-maximized="1" />
  <metadata
     id="metadata4806">
    <rdf:RDF>
      <cc:Work
         rdf:about="">
        <dc:format>image/svg+xml</dc:format>
        <dc:type
           rdf:resource="http://purl.org/dc/dcmitype/StillImage" />
        <dc:title></dc:title>
      </cc:Work>
    </rdf:RDF>
  </metadata>
  <g
     inkscape:label="Layer 1"
     inkscape:groupmode="layer"
     id="layer1"
     transform="translate(-9.2624835,-103.80141)">
    <path
       style="color:#000000;clip-rule:nonzero;display:inline;overflow:visible;visibility:visible;opacity:1;isolation:auto;mix-blend-mode:normal;color-interpolation:sRGB;color-interpolation-filters:linearRGB;solid-color:#000000;solid-opacity:1;fill:#4b4b4b;fill-opacity:1;fill-rule:evenodd;stroke-width:2.24449992;color-rendering:auto;image-rendering:auto;shape-rendering:auto;text-rendering:auto;enable-background:accumulate"
       d="m 36.373047,392.32031 c -0.756435,0 -1.365235,0.6088 -1.365235,1.36524 v 21.39257 c 0,0.75644 0.6088,1.36524 1.365235,1.36524 h 51.429687 c 0.756436,0 1.367188,-0.6088 1.367188,-1.36524 v -21.39257 c 0,-0.75644 -0.610752,-1.36524 -1.367188,-1.36524 z m 18.298828,5.43946 h 2.535156 c 0.123935,0 0.230179,0.034 0.320313,0.10156 0.09013,0.0676 0.153699,0.15686 0.1875,0.26953 l 4.173828,11.71094 c 0.02253,0.0676 0.0332,0.11854 0.0332,0.15234 0,0.0901 -0.02134,0.16437 -0.06641,0.2207 -0.0338,0.0563 -0.09105,0.084 -0.169922,0.084 h -2.484375 c -0.169001,0 -0.275246,-0.0786 -0.320313,-0.23633 l -0.878906,-2.4668 c -0.02253,-0.0676 -0.05214,-0.11418 -0.08594,-0.13672 -0.02253,-0.0338 -0.06716,-0.0508 -0.134766,-0.0508 h -4.123047 c -0.112667,0 -0.186903,0.0573 -0.220703,0.16992 l -0.894531,2.50196 c -0.0676,0.14647 -0.186468,0.21875 -0.355469,0.21875 h -1.943359 c -0.169002,0 -0.253907,-0.0956 -0.253907,-0.28711 0,-0.0901 0.01262,-0.15806 0.03516,-0.20313 l 4.207031,-11.71093 c 0.04507,-0.12394 0.09601,-0.20884 0.152344,-0.25391 0.0676,-0.0563 0.163175,-0.084 0.287109,-0.084 z m 1.03125,3.05859 c -0.0338,0 -0.06776,0.0383 -0.101563,0.11719 l -1.435546,3.93945 c -0.02253,0.0676 -0.03516,0.11659 -0.03516,0.15039 0,0.0901 0.06161,0.13672 0.185547,0.13672 h 2.771485 c 0.112667,0 0.169922,-0.0466 0.169921,-0.13672 0,-0.0676 -0.0063,-0.11659 -0.01758,-0.15039 l -1.417968,-3.95508 c -0.0338,-0.0676 -0.07407,-0.10156 -0.119141,-0.10156 z m 11.533203,0.35547 c 2.53502,0 3.802735,0.94072 3.802734,2.82226 v 5.93164 c 0,0.13521 -0.02134,0.23078 -0.06641,0.28711 -0.04507,0.0563 -0.129972,0.084 -0.253906,0.084 h -1.740234 c -0.112668,0 -0.197573,-0.0383 -0.253907,-0.11719 -0.04507,-0.0789 -0.07903,-0.19773 -0.101562,-0.35547 l -0.0332,-0.37305 c -0.01127,-0.1014 -0.05154,-0.15039 -0.119141,-0.15039 -0.04507,0 -0.129972,0.0446 -0.253906,0.13477 -0.743606,0.68727 -1.633381,1.03125 -2.669922,1.03125 -0.845007,0 -1.515982,-0.22511 -2.011719,-0.67578 -0.48447,-0.46194 -0.726562,-1.06063 -0.726562,-1.79297 0,-0.95767 0.428883,-1.71791 1.285156,-2.28125 0.86754,-0.5746 2.067331,-0.87831 3.599609,-0.91211 l 0.591797,-0.0508 c 0.180268,0 0.269532,-0.0786 0.269532,-0.23633 v -0.35547 c 0,-0.4394 -0.123226,-0.77707 -0.371094,-1.01367 -0.247869,-0.2366 -0.602516,-0.35547 -1.064453,-0.35547 -0.788673,0 -1.374743,0.33767 -1.757813,1.01367 -0.04507,0.11267 -0.119302,0.16993 -0.220703,0.16993 -0.05633,0 -0.105324,-0.006 -0.150391,-0.0176 l -1.691406,-0.38867 c -0.101401,-0.0225 -0.152344,-0.0842 -0.152344,-0.18555 0,-0.0676 0.02329,-0.15251 0.06836,-0.25391 0.270402,-0.65347 0.750228,-1.14396 1.4375,-1.4707 0.687272,-0.32674 1.547443,-0.48828 2.583984,-0.48828 z m 1.066406,4.84961 -0.474609,0.0332 c -0.653472,0.0338 -1.23323,0.19294 -1.740234,0.47461 -0.495738,0.2704 -0.744141,0.64639 -0.744141,1.13086 0,0.338 0.118867,0.6097 0.355469,0.8125 0.236602,0.19153 0.563599,0.28711 0.980469,0.28711 0.495737,0 0.935289,-0.15283 1.318359,-0.45703 0.371803,-0.31547 0.556641,-0.61482 0.556641,-0.89649 v -1.09765 c 0,-0.1014 -0.02134,-0.17369 -0.06641,-0.21875 -0.0338,-0.0451 -0.09541,-0.0684 -0.185547,-0.0684 z"
       id="rect1201-8-2-8-0-6"
       transform="scale(0.26458333)"
       inkscape:connector-curvature="0" />
  </g>
</svg>
