<?xml version="1.0" encoding="UTF-8" standalone="no"?>
<!-- Created with Inkscape (http://www.inkscape.org/) -->

<svg
   xmlns:dc="http://purl.org/dc/elements/1.1/"
   xmlns:cc="http://creativecommons.org/ns#"
   xmlns:rdf="http://www.w3.org/1999/02/22-rdf-syntax-ns#"
   xmlns:svg="http://www.w3.org/2000/svg"
   xmlns="http://www.w3.org/2000/svg"
   xmlns:sodipodi="http://sodipodi.sourceforge.net/DTD/sodipodi-0.dtd"
   xmlns:inkscape="http://www.inkscape.org/namespaces/inkscape"
   width="14.330392mm"
   height="6.3825569mm"
   viewBox="0 0 14.330392 6.3825569"
   version="1.1"
   id="svg4809"
   inkscape:version="0.92.3 (2405546, 2018-03-11)"
   sodipodi:docname="icon_attribute_spatial_white.svg">
  <defs
     id="defs4803" />
  <sodipodi:namedview
     id="base"
     pagecolor="#ffffff"
     bordercolor="#666666"
     borderopacity="1.0"
     inkscape:pageopacity="0.0"
     inkscape:pageshadow="2"
     inkscape:zoom="11.2"
     inkscape:cx="30.487322"
     inkscape:cy="13.313874"
     inkscape:document-units="mm"
     inkscape:current-layer="layer1"
     showgrid="false"
     inkscape:window-width="1920"
     inkscape:window-height="1017"
     inkscape:window-x="0"
     inkscape:window-y="30"
     inkscape:window-maximized="1" />
  <metadata
     id="metadata4806">
    <rdf:RDF>
      <cc:Work
         rdf:about="">
        <dc:format>image/svg+xml</dc:format>
        <dc:type
           rdf:resource="http://purl.org/dc/dcmitype/StillImage" />
        <dc:title></dc:title>
      </cc:Work>
    </rdf:RDF>
  </metadata>
  <g
     inkscape:label="Layer 1"
     inkscape:groupmode="layer"
     id="layer1"
     transform="translate(-9.2624835,-103.80141)">
    <path
       style="opacity:1;fill:#ffffff;fill-opacity:1;stroke:none;stroke-width:5.6692915;stroke-linecap:round;stroke-miterlimit:4;stroke-dasharray:none;stroke-opacity:1;paint-order:normal"
       d="M 3.7792969 0 C 1.6854374 0 1.1842379e-15 1.6854374 0 3.7792969 L 0 20.34375 C 0 22.43761 1.6854374 24.123047 3.7792969 24.123047 L 50.382812 24.123047 C 52.476672 24.123047 54.162109 22.43761 54.162109 20.34375 L 54.162109 3.7792969 C 54.162109 1.6854374 52.476672 1.1842379e-15 50.382812 0 L 3.7792969 0 z M 21.574219 3.6738281 L 32.587891 3.6738281 C 34.213949 3.6738281 35.548828 5.0086995 35.548828 6.6347656 L 35.548828 17.492188 C 35.548828 19.118253 34.213949 20.453125 32.587891 20.453125 L 21.574219 20.453125 C 19.94816 20.453125 18.613281 19.118253 18.613281 17.492188 L 18.613281 6.6347656 C 18.613281 5.0086995 19.94816 3.6738281 21.574219 3.6738281 z M 21.574219 5.2753906 C 20.809972 5.2753906 20.222656 5.8705074 20.222656 6.6347656 L 20.222656 8.7011719 L 23.685547 8.7011719 L 23.685547 5.2753906 L 21.574219 5.2753906 z M 24.888672 5.2753906 L 24.888672 8.7011719 L 29.052734 8.7011719 L 29.052734 5.2753906 L 24.888672 5.2753906 z M 30.255859 5.2753906 L 30.255859 8.7011719 L 33.939453 8.7011719 L 33.939453 6.6347656 C 33.939453 5.8705074 33.352138 5.2753906 32.587891 5.2753906 L 30.255859 5.2753906 z M 20.222656 9.9042969 L 20.222656 14.068359 L 23.685547 14.068359 L 23.685547 9.9042969 L 20.222656 9.9042969 z M 24.888672 9.9042969 L 24.888672 14.068359 L 29.052734 14.068359 L 29.052734 9.9042969 L 24.888672 9.9042969 z M 30.255859 9.9042969 L 30.255859 14.068359 L 33.939453 14.068359 L 33.939453 9.9042969 L 30.255859 9.9042969 z M 20.222656 15.271484 L 20.222656 17.492188 C 20.222656 18.256407 20.809972 18.84375 21.574219 18.84375 L 23.685547 18.84375 L 23.685547 15.271484 L 20.222656 15.271484 z M 24.888672 15.271484 L 24.888672 18.84375 L 29.052734 18.84375 L 29.052734 15.271484 L 24.888672 15.271484 z M 30.255859 15.271484 L 30.255859 18.84375 L 32.587891 18.84375 C 33.352138 18.84375 33.939453 18.256407 33.939453 17.492188 L 33.939453 15.271484 L 30.255859 15.271484 z "
       transform="matrix(0.26458333,0,0,0.26458333,9.2624835,103.80141)"
       id="rect824-2" />
  </g>
</svg>
