<?xml version="1.0" encoding="UTF-8" standalone="no"?>
<!-- Created with Inkscape (http://www.inkscape.org/) -->

<svg
   xmlns:dc="http://purl.org/dc/elements/1.1/"
   xmlns:cc="http://creativecommons.org/ns#"
   xmlns:rdf="http://www.w3.org/1999/02/22-rdf-syntax-ns#"
   xmlns:svg="http://www.w3.org/2000/svg"
   xmlns="http://www.w3.org/2000/svg"
   xmlns:sodipodi="http://sodipodi.sourceforge.net/DTD/sodipodi-0.dtd"
   xmlns:inkscape="http://www.inkscape.org/namespaces/inkscape"
   width="14.330392mm"
   height="6.3825569mm"
   viewBox="0 0 14.330392 6.3825569"
   version="1.1"
   id="svg4809"
   inkscape:version="0.92.3 (2405546, 2018-03-11)"
   sodipodi:docname="icon_attribute_numerical_gray.svg">
  <defs
     id="defs4803" />
  <sodipodi:namedview
     id="base"
     pagecolor="#ffffff"
     bordercolor="#666666"
     borderopacity="1.0"
     inkscape:pageopacity="0.0"
     inkscape:pageshadow="2"
     inkscape:zoom="15.839192"
     inkscape:cx="19.463792"
     inkscape:cy="8.5772859"
     inkscape:document-units="mm"
     inkscape:current-layer="layer1"
     showgrid="false"
     inkscape:window-width="1920"
     inkscape:window-height="1017"
     inkscape:window-x="0"
     inkscape:window-y="30"
     inkscape:window-maximized="1" />
  <metadata
     id="metadata4806">
    <rdf:RDF>
      <cc:Work
         rdf:about="">
        <dc:format>image/svg+xml</dc:format>
        <dc:type
           rdf:resource="http://purl.org/dc/dcmitype/StillImage" />
        <dc:title />
      </cc:Work>
    </rdf:RDF>
  </metadata>
  <g
     inkscape:label="Layer 1"
     inkscape:groupmode="layer"
     id="layer1"
     transform="translate(-9.2624835,-103.80141)">
    <path
       style="opacity:1;fill:#4b4b4b;fill-opacity:1;stroke:none;stroke-width:5.6692915;stroke-linecap:round;stroke-miterlimit:4;stroke-dasharray:none;stroke-opacity:1;paint-order:normal"
       d="M 3.7792969 0 C 1.6854374 0 0 1.6854374 0 3.7792969 L 0 20.34375 C 0 22.43761 1.6854374 24.123047 3.7792969 24.123047 L 50.382812 24.123047 C 52.476672 24.123047 54.162109 22.43761 54.162109 20.34375 L 54.162109 3.7792969 C 54.162109 1.6854374 52.476672 0 50.382812 0 L 3.7792969 0 z M 26.441406 5.2695312 C 27.342759 5.2695313 28.136949 5.4221971 28.824219 5.7265625 C 29.522759 6.0308145 30.062243 6.4703167 30.445312 7.0449219 C 30.828383 7.6195234 31.021484 8.2948546 31.021484 9.0722656 C 31.021484 9.7595349 30.834694 10.390204 30.462891 10.964844 C 30.102361 11.539445 29.476008 12.182783 28.585938 12.892578 L 25.460938 15.341797 C 25.393325 15.386768 25.359375 15.427298 25.359375 15.460938 C 25.359375 15.517247 25.427306 15.544922 25.5625 15.544922 L 30.818359 15.544922 C 31.032432 15.544922 31.138672 15.636123 31.138672 15.816406 L 31.138672 17.673828 C 31.138672 17.876789 31.026117 17.978516 30.800781 17.978516 L 21.996094 17.978516 C 21.849637 17.978516 21.747756 17.955886 21.691406 17.910156 C 21.635096 17.853841 21.607422 17.758354 21.607422 17.623047 L 21.607422 16.322266 C 21.607422 16.220974 21.652008 16.114583 21.742188 16.001953 C 21.83229 15.877985 22.046747 15.674304 22.384766 15.392578 L 25.527344 12.554688 C 26.270954 11.91247 26.823065 11.39868 27.183594 11.015625 C 27.544123 10.632532 27.792537 10.301182 27.927734 10.019531 C 28.074188 9.7266182 28.148437 9.4102688 28.148438 9.0722656 C 28.148437 8.565242 27.96797 8.1659981 27.607422 7.8730469 C 27.258156 7.5687949 26.812293 7.4160156 26.271484 7.4160156 C 25.798284 7.4160156 25.358736 7.5562402 24.953125 7.8378906 C 24.558796 8.1085048 24.176486 8.560452 23.804688 9.1914062 C 23.77105 9.2813589 23.696652 9.3261719 23.583984 9.3261719 C 23.505068 9.3261719 23.426536 9.3035445 23.347656 9.2578125 L 21.84375 8.4804688 C 21.708555 8.390516 21.640625 8.2884112 21.640625 8.1757812 C 21.640625 8.0967892 21.668179 8.0141591 21.724609 7.9238281 C 22.84002 6.1549336 24.413395 5.2695312 26.441406 5.2695312 z M 37.349609 5.2695312 C 38.318548 5.2695313 39.15933 5.409756 39.869141 5.6914062 C 40.59021 5.9620204 41.136012 6.3460362 41.507812 6.8417969 C 41.890883 7.3375197 42.082031 7.9066108 42.082031 8.5488281 C 42.082031 9.1121667 41.907871 9.6366337 41.558594 10.121094 C 41.209328 10.594328 40.71883 10.925679 40.087891 11.117188 C 39.952696 11.162163 39.884766 11.219459 39.884766 11.287109 C 39.884766 11.343425 39.946383 11.387855 40.070312 11.421875 C 40.791382 11.658473 41.3731 12.036439 41.8125 12.554688 C 42.2519 13.072973 42.470703 13.669659 42.470703 14.345703 C 42.470703 15.573747 42.020479 16.514488 41.119141 17.167969 C 40.229069 17.821449 38.904105 18.148438 37.146484 18.148438 C 36.177546 18.148437 35.270793 17.961711 34.425781 17.589844 C 33.59204 17.206789 32.939998 16.694914 32.466797 16.052734 C 32.410477 15.973742 32.380859 15.899681 32.380859 15.832031 C 32.380859 15.742078 32.444466 15.65245 32.568359 15.5625 L 33.884766 14.632812 C 33.98617 14.565161 34.060379 14.53125 34.105469 14.53125 C 34.173082 14.53125 34.223983 14.557784 34.257812 14.615234 C 34.787351 15.156047 35.271526 15.533974 35.710938 15.748047 C 36.161604 15.961968 36.696734 16.068359 37.316406 16.068359 C 38.014946 16.068359 38.560737 15.917533 38.955078 15.613281 C 39.360678 15.309029 39.564453 14.907832 39.564453 14.412109 C 39.564453 13.860034 39.339343 13.42049 38.888672 13.09375 C 38.449272 12.767199 37.890854 12.599151 37.214844 12.587891 L 35.761719 12.554688 C 35.570169 12.554688 35.474609 12.474013 35.474609 12.316406 L 35.474609 10.728516 C 35.474609 10.604547 35.57021 10.525827 35.761719 10.492188 L 36.927734 10.441406 C 37.592474 10.430068 38.133911 10.2668 38.550781 9.9511719 C 38.978922 9.6246207 39.191406 9.2188348 39.191406 8.734375 C 39.191418 8.3287561 39.012896 7.9910905 38.652344 7.7207031 C 38.303078 7.4391283 37.857215 7.296875 37.316406 7.296875 C 36.798135 7.296875 36.324625 7.3989798 35.896484 7.6015625 C 35.468355 7.7931845 35.028796 8.1094203 34.578125 8.5488281 C 34.499246 8.6278206 34.437628 8.6660156 34.392578 8.6660156 C 34.369901 8.6660156 34.308474 8.6278201 34.207031 8.5488281 L 32.972656 7.3984375 C 32.927566 7.3534611 32.90625 7.2977447 32.90625 7.2304688 C 32.90625 7.1741538 32.927416 7.1059577 32.972656 7.0273438 C 33.423327 6.4865312 34.043361 6.0576269 34.832031 5.7421875 C 35.620701 5.4265969 36.459531 5.2695312 37.349609 5.2695312 z M 16.828125 5.4394531 L 17.994141 5.4394531 C 18.073057 5.4394531 18.134638 5.4659885 18.179688 5.5234375 C 18.224777 5.5797525 18.248047 5.6518565 18.248047 5.7421875 L 18.248047 15.628906 C 18.248047 15.741538 18.298948 15.798828 18.400391 15.798828 L 20.089844 15.798828 C 20.292653 15.798828 20.394531 15.883789 20.394531 16.052734 L 20.394531 17.691406 C 20.394531 17.770398 20.366937 17.838211 20.310547 17.894531 C 20.254232 17.950841 20.169308 17.978516 20.056641 17.978516 L 13.380859 17.978516 C 13.166787 17.978516 13.060547 17.883028 13.060547 17.691406 L 13.060547 16.052734 C 13.060547 15.883788 13.156148 15.798828 13.347656 15.798828 L 15.105469 15.798828 C 15.229396 15.798828 15.291016 15.758297 15.291016 15.679688 L 15.291016 8.5820312 C 15.291016 8.4920786 15.274024 8.4363615 15.240234 8.4140625 C 15.206597 8.3800475 15.144827 8.3733663 15.054688 8.3945312 L 13.414062 8.8847656 L 13.296875 8.9042969 C 13.127889 8.9042969 13.042969 8.789713 13.042969 8.5644531 L 13.042969 7.4492188 C 13.042969 7.3365888 13.05996 7.2578666 13.09375 7.2128906 C 13.127388 7.1565757 13.19547 7.1012369 13.296875 7.0449219 L 16.119141 5.6425781 C 16.27686 5.5635864 16.400134 5.5129114 16.490234 5.4902344 C 16.591639 5.4562184 16.704194 5.4394531 16.828125 5.4394531 z "
       transform="matrix(0.26458333,0,0,0.26458333,9.2624835,103.80141)"
       id="rect824-2" />
  </g>
</svg>
