<?xml version="1.0" encoding="UTF-8" standalone="no"?>
<!-- Created with Inkscape (http://www.inkscape.org/) -->

<svg
   xmlns:dc="http://purl.org/dc/elements/1.1/"
   xmlns:cc="http://creativecommons.org/ns#"
   xmlns:rdf="http://www.w3.org/1999/02/22-rdf-syntax-ns#"
   xmlns:svg="http://www.w3.org/2000/svg"
   xmlns="http://www.w3.org/2000/svg"
   xmlns:sodipodi="http://sodipodi.sourceforge.net/DTD/sodipodi-0.dtd"
   xmlns:inkscape="http://www.inkscape.org/namespaces/inkscape"
   width="14.330392mm"
   height="6.3825569mm"
   viewBox="0 0 14.330392 6.3825569"
   version="1.1"
   id="svg4809"
   inkscape:version="0.92.3 (2405546, 2018-03-11)"
   sodipodi:docname="icon_attribute_locational_gray.svg">
  <defs
     id="defs4803" />
  <sodipodi:namedview
     id="base"
     pagecolor="#ffffff"
     bordercolor="#666666"
     borderopacity="1.0"
     inkscape:pageopacity="0.0"
     inkscape:pageshadow="2"
     inkscape:zoom="11.2"
     inkscape:cx="12.556471"
     inkscape:cy="-4.4283661"
     inkscape:document-units="mm"
     inkscape:current-layer="layer1"
     showgrid="false"
     inkscape:window-width="1920"
     inkscape:window-height="1017"
     inkscape:window-x="0"
     inkscape:window-y="30"
     inkscape:window-maximized="1"
     inkscape:snap-bbox="true"
     inkscape:snap-bbox-midpoints="true"
     inkscape:bbox-paths="true"
     inkscape:bbox-nodes="true"
     inkscape:snap-bbox-edge-midpoints="true" />
  <metadata
     id="metadata4806">
    <rdf:RDF>
      <cc:Work
         rdf:about="">
        <dc:format>image/svg+xml</dc:format>
        <dc:type
           rdf:resource="http://purl.org/dc/dcmitype/StillImage" />
        <dc:title></dc:title>
      </cc:Work>
    </rdf:RDF>
  </metadata>
  <g
     inkscape:label="Layer 1"
     inkscape:groupmode="layer"
     id="layer1"
     transform="translate(-9.2624835,-103.80141)">
    <path
       style="opacity:1;fill:#4b4b4b;fill-opacity:1;stroke:none;stroke-width:1.88976383;stroke-linecap:round;stroke-miterlimit:4;stroke-dasharray:none;stroke-opacity:1;paint-order:normal"
       d="M 3.7792969 0 C 1.6854374 0 1.1842379e-15 1.6854374 0 3.7792969 L 0 20.34375 C 0 22.43761 1.6854374 24.123047 3.7792969 24.123047 L 50.382812 24.123047 C 52.476672 24.123047 54.162109 22.43761 54.162109 20.34375 L 54.162109 3.7792969 C 54.162109 1.6854374 52.476672 1.1842379e-15 50.382812 0 L 3.7792969 0 z M 27.080078 4.0878906 L 27.082031 4.0878906 L 27.082031 4.0898438 C 30.340713 4.0898815 32.982399 6.7315257 32.982422 9.9902344 C 32.981288 10.138392 32.973032 10.286192 32.960938 10.433594 C 32.977189 12.062041 31.931949 14.429087 31.314453 15.587891 C 30.549847 17.022788 28.632705 20.035156 27.103516 20.035156 C 25.574326 20.035156 23.655227 17.022788 22.890625 15.587891 C 22.317184 14.511784 21.359075 12.381779 21.238281 10.779297 C 21.238126 10.775517 21.238436 10.771484 21.238281 10.771484 C 21.201242 10.511831 21.181808 10.250203 21.179688 9.9882812 C 21.179718 6.7296104 23.821392 4.0879284 27.080078 4.0878906 z M 27.082031 6.1074219 L 27.083984 6.109375 C 25.686595 6.1102065 24.397527 6.8621754 23.708984 8.078125 C 23.571221 8.3200148 23.459914 8.5760961 23.376953 8.8417969 C 23.261715 9.2136646 23.203125 9.6008674 23.203125 9.9902344 C 23.203272 12.133491 24.940705 13.870943 27.083984 13.871094 C 29.22726 13.870943 30.964628 12.133491 30.964844 9.9902344 C 30.96371 9.9426123 30.957977 9.8949003 30.955078 9.8476562 C 30.951677 9.7648846 30.946193 9.6839562 30.9375 9.6015625 C 30.932209 9.5558302 30.926725 9.5086229 30.919922 9.4628906 C 30.907449 9.3706702 30.891945 9.2789646 30.873047 9.1875 C 30.867378 9.1610433 30.861894 9.1338786 30.855469 9.1074219 C 30.830902 9.0034849 30.802413 8.9004974 30.769531 8.7988281 C 30.763106 8.7799305 30.756803 8.7610851 30.75 8.7421875 C 30.714094 8.6371166 30.673694 8.5336879 30.628906 8.4316406 C 30.626261 8.4240816 30.623694 8.4177153 30.621094 8.4101562 C 30.617692 8.4025972 30.61473 8.3981841 30.611328 8.390625 C 30.560607 8.278751 30.504512 8.1690827 30.443359 8.0625 C 29.753709 6.856037 28.471627 6.1103321 27.082031 6.1074219 z "
       transform="matrix(0.26458333,0,0,0.26458333,9.2624835,103.80141)"
       id="rect7549" />
  </g>
</svg>
