<?xml version="1.0" encoding="UTF-8" standalone="no"?>
<!-- Created with Inkscape (http://www.inkscape.org/) -->

<svg
   xmlns:dc="http://purl.org/dc/elements/1.1/"
   xmlns:cc="http://creativecommons.org/ns#"
   xmlns:rdf="http://www.w3.org/1999/02/22-rdf-syntax-ns#"
   xmlns:svg="http://www.w3.org/2000/svg"
   xmlns="http://www.w3.org/2000/svg"
   xmlns:xlink="http://www.w3.org/1999/xlink"
   xmlns:sodipodi="http://sodipodi.sourceforge.net/DTD/sodipodi-0.dtd"
   xmlns:inkscape="http://www.inkscape.org/namespaces/inkscape"
   width="15.167545mm"
   height="15.167545mm"
   viewBox="0 0 15.167545 15.167545"
   version="1.1"
   id="svg5531"
   inkscape:version="0.92.4 (unknown)"
   sodipodi:docname="icon_source_python_white.svg">
  <defs
     id="defs5525">
    <linearGradient
       inkscape:collect="always"
       id="linearGradient6218">
      <stop
         style="stop-color:#14e0f9;stop-opacity:1"
         offset="0"
         id="stop6214" />
      <stop
         style="stop-color:#3765ff;stop-opacity:1"
         offset="1"
         id="stop6216" />
    </linearGradient>
    <linearGradient
       inkscape:collect="always"
       xlink:href="#linearGradient6218"
       id="linearGradient5467"
       x1="-3327.9905"
       y1="3828.4285"
       x2="-3323.2947"
       y2="3830.1936"
       gradientUnits="userSpaceOnUse"
       gradientTransform="matrix(1.0976946,0,0,1.0976946,-536.72367,-620.51248)" />
  </defs>
  <sodipodi:namedview
     id="base"
     pagecolor="#ffffff"
     bordercolor="#666666"
     borderopacity="1.0"
     inkscape:pageopacity="0.0"
     inkscape:pageshadow="2"
     inkscape:zoom="1.979899"
     inkscape:cx="35.978587"
     inkscape:cy="-80.840885"
     inkscape:document-units="mm"
     inkscape:current-layer="layer1"
     showgrid="false"
     inkscape:window-width="1920"
     inkscape:window-height="1014"
     inkscape:window-x="1920"
     inkscape:window-y="33"
     inkscape:window-maximized="1" />
  <metadata
     id="metadata5528">
    <rdf:RDF>
      <cc:Work
         rdf:about="">
        <dc:format>image/svg+xml</dc:format>
        <dc:type
           rdf:resource="http://purl.org/dc/dcmitype/StillImage" />
        <dc:title></dc:title>
      </cc:Work>
    </rdf:RDF>
  </metadata>
  <g
     inkscape:label="Layer 1"
     inkscape:groupmode="layer"
     id="layer1"
     transform="translate(-38.002579,-0.97606957)">
    <path
       inkscape:connector-curvature="0"
       id="path7953-1-4-2-4"
       d="m 45.183968,13.856674 c -0.407043,-0.0274 -0.802693,-0.09695 -1.093441,-0.192479 -0.585822,-0.193445 -0.953278,-0.534125 -1.045276,-0.969185 -0.01148,-0.05567 -0.01326,-0.231452 -0.01238,-1.378622 0,-0.848029 0.0097,-1.3445936 0.0097,-1.3989466 0.0327,-0.302853 0.14201,-0.555424 0.322821,-0.750816 0.160311,-0.17312 0.421362,-0.318233 0.694613,-0.385927 0.2227,-0.05479 0.124341,-0.05214 1.735299,-0.05832 1.454269,-0.0097 1.475301,-0.0097 1.571273,-0.02387 0.265385,-0.05125 0.465106,-0.139275 0.64194,-0.28297 0.24656,-0.200253 0.424458,-0.533329 0.48641,-0.909802 0.0097,-0.03446 0.01148,-0.07247 0.01503,-0.08395 0.0097,-0.01238 0.0097,-0.34872 0.01148,-0.748166 l 0.0097,-0.725985 h 0.517869 0.518041 l 0.09403,0.02386 c 0.229153,0.05833 0.410671,0.158718 0.582822,0.322385 0.158451,0.150587 0.259461,0.291189 0.368162,0.512564 0.127876,0.260435 0.20918,0.535011 0.266356,0.898666 0.02122,0.13698 0.02122,0.138393 0.02122,0.849885 0,0.675259 0,0.718563 -0.01945,0.823285 -0.06274,0.386543 -0.179043,0.7273976 -0.336082,0.9873936 -0.230653,0.381769 -0.562496,0.625326 -0.987126,0.724304 -0.07865,0.01945 -0.08837,0.01945 -2.018442,0.02297 l -1.938729,0.0097 v 0.177105 0.177098 h 1.283179 c 0.705746,0 1.286269,0.0097 1.289981,0.0097 0.0097,0.0097 0.0097,0.305506 0.0097,0.670663 0,0.754795 0.0097,0.724307 -0.07158,0.876308 -0.106402,0.216159 -0.284829,0.37806 -0.571246,0.518395 -0.318055,0.155893 -0.715026,0.24824 -1.296961,0.301353 -0.133268,0.01238 -0.899993,0.01767 -1.053499,0.0097 z m 2.02887,-0.83212 c 0.133887,-0.04419 0.242411,-0.151561 0.291634,-0.287303 0.02564,-0.07247 0.02916,-0.216866 0.0097,-0.28774 -0.08042,-0.23631 -0.319294,-0.372848 -0.550302,-0.314166 -0.160398,0.04065 -0.283766,0.15571 -0.337055,0.314166 -0.02387,0.07158 -0.02209,0.207497 0.0097,0.282351 0.0707,0.199106 0.25858,0.327421 0.463074,0.315401 0.038,0 0.09297,-0.01238 0.123899,-0.02209 z M 41.58374,11.165362 C 40.901144,11.021666 40.446111,10.3518 40.315317,9.2978584 c -0.02828,-0.225171 -0.03623,-0.346157 -0.04065,-0.61976 -0.01945,-0.887 0.138393,-1.56279 0.473239,-2.036116 0.07247,-0.102955 0.237543,-0.271571 0.336521,-0.344125 0.200168,-0.146876 0.446638,-0.245501 0.687898,-0.27484 0.05479,-0.0097 0.651219,-0.0097 1.95888,-0.0097 h 1.879251 v -0.179398 -0.17922 l -1.283705,-0.0097 -1.283619,-0.0097 -0.0097,-0.239049 c -0.01238,-0.486671 -0.0097,-1.051463 0.0097,-1.121985 0.05568,-0.295784 0.305414,-0.559667 0.687983,-0.729255 0.320704,-0.142192 0.717587,-0.229593 1.247209,-0.27484 0.226766,-0.01944 0.896543,-0.02209 1.102188,-0.0097 0.434001,0.03712 0.733586,0.09005 1.012404,0.180282 0.356497,0.115503 0.592365,0.251598 0.789792,0.455652 0.120007,0.124075 0.201668,0.254957 0.252923,0.405101 0.05037,0.144138 0.04772,0.09597 0.04772,1.488292 0,0.812502 -0.0097,1.320029 -0.0097,1.378001 -0.03447,0.343595 -0.147849,0.601291 -0.357468,0.808968 -0.175686,0.174096 -0.399446,0.293314 -0.678442,0.361357 -0.210415,0.05126 -0.172503,0.05037 -1.649923,0.05037 -0.857398,0 -1.399392,0.0097 -1.471588,0.0097 -0.547206,0.0433 -0.933397,0.292248 -1.149737,0.738886 -0.05479,0.114358 -0.08484,0.194334 -0.114972,0.312574 -0.05391,0.211391 -0.05214,0.182583 -0.05656,0.9799686 l -0.0097,0.734824 h -0.509116 c -0.472533,0 -0.514951,0 -0.590246,-0.01503 z m 2.679999,-6.1756036 c 0.200959,-0.05921 0.3375,-0.238695 0.337058,-0.444163 0,-0.08484 -0.01238,-0.14175 -0.04595,-0.210593 -0.122309,-0.248328 -0.441603,-0.331929 -0.675172,-0.176923 -0.08484,0.05656 -0.149439,0.14502 -0.18284,0.25151 -0.02209,0.0707 -0.02297,0.190179 -0.0097,0.258668 0.04507,0.155272 0.172061,0.281115 0.323268,0.321767 0.06363,0.01767 0.18797,0.01767 0.247533,0 z"
       style="fill:#ffffff;fill-opacity:1;stroke:none;stroke-width:0.0088532"
       inkscape:export-filename="/home/tomires/g4365-3.png"
       inkscape:export-xdpi="124.34"
       inkscape:export-ydpi="124.34" />
  </g>
</svg>
