<?xml version="1.0" encoding="UTF-8" standalone="no"?>
<!-- Created with Inkscape (http://www.inkscape.org/) -->

<svg
   xmlns:dc="http://purl.org/dc/elements/1.1/"
   xmlns:cc="http://creativecommons.org/ns#"
   xmlns:rdf="http://www.w3.org/1999/02/22-rdf-syntax-ns#"
   xmlns:svg="http://www.w3.org/2000/svg"
   xmlns="http://www.w3.org/2000/svg"
   xmlns:xlink="http://www.w3.org/1999/xlink"
   xmlns:sodipodi="http://sodipodi.sourceforge.net/DTD/sodipodi-0.dtd"
   xmlns:inkscape="http://www.inkscape.org/namespaces/inkscape"
   width="7.0492334mm"
   height="6.6149211mm"
   viewBox="0 0 7.0492334 6.614921"
   version="1.1"
   id="svg4633"
   inkscape:version="0.92.3 (2405546, 2018-03-11)"
   sodipodi:docname="icon_data_missing_gray.svg">
  <defs
     id="defs4627">
    <linearGradient
       inkscape:collect="always"
       id="linearGradient6218">
      <stop
         style="stop-color:#14e0f9;stop-opacity:1"
         offset="0"
         id="stop6214" />
      <stop
         style="stop-color:#3765ff;stop-opacity:1"
         offset="1"
         id="stop6216" />
    </linearGradient>
    <linearGradient
       inkscape:collect="always"
       xlink:href="#linearGradient6218"
       id="linearGradient4933"
       x1="-3759.241"
       y1="4189.0234"
       x2="-3756.2056"
       y2="4189.0234"
       gradientUnits="userSpaceOnUse"
       gradientTransform="matrix(1.8347475,0,0,1.8347475,3241.6795,-3368.5314)" />
    <linearGradient
       inkscape:collect="always"
       xlink:href="#linearGradient6218"
       id="linearGradient6199"
       x1="-3759.241"
       y1="4189.0234"
       x2="-3756.2056"
       y2="4189.0234"
       gradientUnits="userSpaceOnUse"
       gradientTransform="matrix(1.8347475,0,0,1.8347475,6849.0095,-7706.9634)" />
  </defs>
  <sodipodi:namedview
     id="base"
     pagecolor="#ffffff"
     bordercolor="#666666"
     borderopacity="1.0"
     inkscape:pageopacity="0.0"
     inkscape:pageshadow="2"
     inkscape:zoom="2.8"
     inkscape:cx="39.036654"
     inkscape:cy="-19.410454"
     inkscape:document-units="mm"
     inkscape:current-layer="g6334"
     showgrid="false"
     inkscape:window-width="1920"
     inkscape:window-height="1017"
     inkscape:window-x="0"
     inkscape:window-y="30"
     inkscape:window-maximized="1"
     showguides="false" />
  <metadata
     id="metadata4630">
    <rdf:RDF>
      <cc:Work
         rdf:about="">
        <dc:format>image/svg+xml</dc:format>
        <dc:type
           rdf:resource="http://purl.org/dc/dcmitype/StillImage" />
        <dc:title />
      </cc:Work>
    </rdf:RDF>
  </metadata>
  <g
     inkscape:label="Layer 1"
     inkscape:groupmode="layer"
     id="layer1"
     transform="translate(-25.110161,12.735069)">
    <g
       id="g6334"
       transform="translate(0.35700994,27.813281)">
      <g
         id="g824">
        <g
           id="text819-5-4-1-2-1-4-3-0-7-0-9"
           style="font-style:normal;font-variant:normal;font-weight:normal;font-stretch:normal;font-size:2.61741543px;line-height:125%;font-family:Riffic;-inkscape-font-specification:Riffic;letter-spacing:0px;word-spacing:0px;opacity:1;fill:#4b4b4b;fill-opacity:1;stroke:none;stroke-width:0.06543536px;stroke-linecap:butt;stroke-linejoin:miter;stroke-opacity:1"
           aria-label="?">
          <path
             id="path821"
             style="font-style:normal;font-variant:normal;font-weight:bold;font-stretch:normal;font-family:'Libre Franklin';-inkscape-font-specification:'Libre Franklin Bold';fill:#4b4b4b;fill-opacity:1;stroke-width:0.06543536px"
             d="m 27.614358,-37.815173 q -0.02356,-0.0079 -0.02356,-0.03403 0,-0.0157 0.0026,-0.02356 0.08376,-0.193689 0.256507,-0.295768 0.172749,-0.10208 0.410934,-0.10208 0.188454,0 0.335029,0.06282 0.146575,0.0602 0.225098,0.164898 0.08114,0.104696 0.08114,0.230332 0,0.09685 -0.03664,0.175367 -0.03664,0.0759 -0.08899,0.130871 -0.05235,0.05497 -0.138723,0.130871 -0.125636,0.109931 -0.188454,0.196306 -0.06282,0.08637 -0.06282,0.21201 0,0.02094 -0.01571,0.03664 -0.0157,0.01309 -0.03664,0.01309 H 28.11952 q -0.05497,0 -0.05497,-0.0602 0,-0.120401 0.03664,-0.217246 0.03926,-0.09684 0.09161,-0.16228 0.05497,-0.06805 0.138723,-0.15181 0.09161,-0.09423 0.130871,-0.15181 0.04188,-0.0602 0.04188,-0.130871 0,-0.09161 -0.07067,-0.146575 -0.06805,-0.05758 -0.175366,-0.05758 -0.104697,0 -0.196307,0.0602 -0.09161,0.05758 -0.13087,0.157045 -0.01047,0.02094 -0.02094,0.02617 -0.01047,0.0026 -0.03403,0 z m 0.827104,1.450048 q 0,0.03403 -0.01832,0.04973 -0.01571,0.01309 -0.05235,0.01309 h -0.311472 q -0.03141,0 -0.0445,-0.01309 -0.01047,-0.01309 -0.01047,-0.04188 v -0.324559 q 0,-0.04711 0.04188,-0.04711 h 0.358586 q 0.03664,0 0.03664,0.04188 z" />
        </g>
        <rect
           style="color:#000000;clip-rule:nonzero;display:inline;overflow:visible;visibility:visible;opacity:1;isolation:auto;mix-blend-mode:normal;color-interpolation:sRGB;color-interpolation-filters:linearRGB;solid-color:#000000;solid-opacity:1;fill:none;fill-opacity:1;fill-rule:evenodd;stroke:#4b4b4b;stroke-width:0.5;stroke-linecap:round;stroke-linejoin:round;stroke-miterlimit:4;stroke-dasharray:0.41029585, 0.82059173;stroke-dashoffset:0;stroke-opacity:1;paint-order:markers fill stroke;color-rendering:auto;image-rendering:auto;shape-rendering:auto;text-rendering:auto;enable-background:accumulate"
           id="rect4016-2"
           width="3.7781155"
           height="3.7781155"
           x="26.38871"
           y="-39.129948"
           ry="0.16251484"
           inkscape:export-filename="/home/tomires/g4365-3.png"
           inkscape:export-xdpi="99.025696"
           inkscape:export-ydpi="99.025696" />
      </g>
    </g>
  </g>
</svg>
