<?xml version="1.0" encoding="UTF-8" standalone="no"?>
<!-- Created with Inkscape (http://www.inkscape.org/) -->

<svg
   xmlns:dc="http://purl.org/dc/elements/1.1/"
   xmlns:cc="http://creativecommons.org/ns#"
   xmlns:rdf="http://www.w3.org/1999/02/22-rdf-syntax-ns#"
   xmlns:svg="http://www.w3.org/2000/svg"
   xmlns="http://www.w3.org/2000/svg"
   xmlns:sodipodi="http://sodipodi.sourceforge.net/DTD/sodipodi-0.dtd"
   xmlns:inkscape="http://www.inkscape.org/namespaces/inkscape"
   width="14.330392mm"
   height="6.3825569mm"
   viewBox="0 0 14.330392 6.3825569"
   version="1.1"
   id="svg4809"
   inkscape:version="0.92.3 (2405546, 2018-03-11)"
   sodipodi:docname="icon_attribute_longitude_white.svg">
  <defs
     id="defs4803" />
  <sodipodi:namedview
     id="base"
     pagecolor="#ffffff"
     bordercolor="#666666"
     borderopacity="1.0"
     inkscape:pageopacity="0.0"
     inkscape:pageshadow="2"
     inkscape:zoom="15.839192"
     inkscape:cx="20.278597"
     inkscape:cy="8.637692"
     inkscape:document-units="mm"
     inkscape:current-layer="layer1"
     showgrid="false"
     inkscape:window-width="1920"
     inkscape:window-height="1017"
     inkscape:window-x="0"
     inkscape:window-y="30"
     inkscape:window-maximized="1"
     inkscape:snap-bbox="true"
     inkscape:snap-bbox-midpoints="true"
     inkscape:bbox-paths="true"
     inkscape:bbox-nodes="true"
     inkscape:snap-bbox-edge-midpoints="true" />
  <metadata
     id="metadata4806">
    <rdf:RDF>
      <cc:Work
         rdf:about="">
        <dc:format>image/svg+xml</dc:format>
        <dc:type
           rdf:resource="http://purl.org/dc/dcmitype/StillImage" />
        <dc:title></dc:title>
      </cc:Work>
    </rdf:RDF>
  </metadata>
  <g
     inkscape:label="Layer 1"
     inkscape:groupmode="layer"
     id="layer1"
     transform="translate(-9.2624835,-103.80141)">
    <path
       style="opacity:1;fill:#ffffff;fill-opacity:1;stroke:none;stroke-width:5.6692915;stroke-linecap:round;stroke-miterlimit:4;stroke-dasharray:none;stroke-opacity:1;paint-order:normal"
       d="M 3.7792969 0 C 1.6854374 0 0 1.6854374 0 3.7792969 L 0 20.34375 C 0 22.43761 1.6854374 24.123047 3.7792969 24.123047 L 50.382812 24.123047 C 52.476672 24.123047 54.162109 22.43761 54.162109 20.34375 L 54.162109 3.7792969 C 54.162109 1.6854374 52.476672 0 50.382812 0 L 3.7792969 0 z M 13.201172 4.0898438 L 13.201172 4.0917969 C 16.459855 4.0918283 19.101532 6.7335049 19.101562 9.9921875 C 19.100613 10.140167 19.094101 10.288058 19.082031 10.435547 C 19.098283 12.063994 18.053042 14.431041 17.435547 15.589844 C 16.670941 17.024741 14.753799 20.037109 13.224609 20.037109 C 11.69542 20.037109 9.7763209 17.024741 9.0117188 15.589844 C 8.4382775 14.513737 7.4801687 12.383732 7.359375 10.78125 C 7.35922 10.77745 7.35953 10.773438 7.359375 10.773438 C 7.322471 10.513961 7.3029012 10.252314 7.3007812 9.9902344 C 7.3008123 6.7315515 9.942489 4.0898747 13.201172 4.0898438 z M 24.060547 6.0136719 L 26.125 6.0136719 C 26.295499 6.0136719 26.380859 6.1158401 26.380859 6.3203125 L 26.380859 18.255859 C 26.380859 18.403639 26.345714 18.511668 26.277344 18.580078 C 26.209123 18.636778 26.090454 18.666016 25.919922 18.666016 L 24.113281 18.666016 C 23.976878 18.666016 23.879106 18.635638 23.822266 18.580078 C 23.765426 18.523385 23.738281 18.431743 23.738281 18.306641 L 23.789062 6.3378906 C 23.789062 6.1220796 23.878676 6.0136719 24.060547 6.0136719 z M 13.201172 6.109375 L 13.201172 6.1113281 C 11.803785 6.1121456 10.514717 6.8641019 9.8261719 8.0800781 C 9.6884273 8.321991 9.5771096 8.5780216 9.4941406 8.84375 C 9.3789188 9.2156758 9.32032 9.6028228 9.3203125 9.9921875 C 9.3204593 12.135466 11.057893 13.8729 13.201172 13.873047 C 15.34445 13.8729 17.081819 12.135465 17.082031 9.9921875 C 17.080931 9.9446294 17.078972 9.8970954 17.076172 9.8496094 C 17.072962 9.7667606 17.067094 9.6840355 17.058594 9.6015625 C 17.053544 9.5558888 17.047716 9.5103087 17.041016 9.4648438 C 17.028706 9.3725141 17.013061 9.2806581 16.994141 9.1894531 C 16.988561 9.1626991 16.982662 9.136005 16.976562 9.109375 C 16.952173 9.0053716 16.923505 8.9024193 16.890625 8.8007812 C 16.884265 8.7818503 16.877794 8.7629706 16.871094 8.7441406 C 16.83519 8.6389387 16.79479 8.5353274 16.75 8.4335938 C 16.7474 8.4257728 16.744787 8.4179562 16.742188 8.4101562 C 16.738888 8.4042883 16.735722 8.3984281 16.732422 8.3925781 C 16.681661 8.2806045 16.625603 8.171106 16.564453 8.0644531 C 15.874477 6.8573812 14.591526 6.111605 13.201172 6.109375 z M 32.443359 9.4570312 C 33.341371 9.4570313 34.138628 9.663018 34.832031 10.072266 C 35.525435 10.470099 36.058472 11.026043 36.433594 11.742188 C 36.820081 12.458331 37.013672 13.272248 37.013672 14.181641 C 37.013672 15.079656 36.820084 15.881169 36.433594 16.585938 C 36.047107 17.290705 35.507857 17.84041 34.814453 18.238281 C 34.12105 18.636114 33.325746 18.835938 32.427734 18.835938 C 31.529722 18.835937 30.732466 18.642429 30.039062 18.255859 C 29.357029 17.857989 28.823987 17.306331 28.4375 16.601562 C 28.051017 15.896795 27.857422 15.095281 27.857422 14.197266 C 27.857422 13.265159 28.051009 12.440754 28.4375 11.724609 C 28.835356 11.008464 29.380815 10.45252 30.074219 10.054688 C 30.778987 9.6568161 31.568081 9.4570312 32.443359 9.4570312 z M 44.167969 9.4570312 C 44.997779 9.4570312 45.65148 9.7027156 46.128906 10.191406 C 46.617697 10.680175 46.863281 11.333887 46.863281 12.152344 L 46.863281 18.255859 C 46.863281 18.528741 46.725935 18.666016 46.453125 18.666016 L 44.560547 18.666016 C 44.43552 18.666016 44.350157 18.643386 44.304688 18.597656 C 44.259218 18.540963 44.236328 18.448943 44.236328 18.324219 L 44.236328 12.560547 C 44.236328 12.17409 44.128072 11.878452 43.912109 11.673828 C 43.707486 11.458017 43.401407 11.349609 42.992188 11.349609 C 42.651161 11.349609 42.332657 11.435012 42.037109 11.605469 C 41.752927 11.775925 41.446833 12.044424 41.117188 12.408203 L 41.117188 18.273438 C 41.117188 18.409877 41.082042 18.512048 41.013672 18.580078 C 40.945451 18.636778 40.832984 18.666016 40.673828 18.666016 L 38.847656 18.666016 C 38.722629 18.666016 38.633012 18.643386 38.576172 18.597656 C 38.519322 18.540963 38.490234 18.448943 38.490234 18.324219 L 38.490234 9.953125 C 38.490234 9.737314 38.581801 9.6289062 38.763672 9.6289062 L 40.826172 9.6289062 C 40.996661 9.6289062 41.082031 9.7248349 41.082031 9.9179688 L 41.082031 10.753906 C 41.082031 10.844995 41.111129 10.890625 41.167969 10.890625 C 41.201989 10.890625 41.241639 10.867996 41.287109 10.822266 C 41.753167 10.378965 42.21949 10.043745 42.685547 9.8164062 C 43.151604 9.5775402 43.645079 9.4570312 44.167969 9.4570312 z M 32.443359 11.146484 C 31.818161 11.146484 31.341369 11.402391 31.011719 11.914062 C 30.682068 12.414245 30.517582 13.157533 30.517578 14.146484 C 30.517578 15.112683 30.682061 15.845558 31.011719 16.345703 C 31.341369 16.845886 31.818161 17.095703 32.443359 17.095703 C 33.068557 17.095703 33.541093 16.851936 33.859375 16.363281 C 34.189025 15.863136 34.353516 15.124059 34.353516 14.146484 C 34.353516 13.157533 34.189033 12.414245 33.859375 11.914062 C 33.541101 11.402542 33.068557 11.146484 32.443359 11.146484 z "
       transform="matrix(0.26458333,0,0,0.26458333,9.2624835,103.80141)"
       id="rect824-2" />
  </g>
</svg>
