<?xml version="1.0" encoding="UTF-8" standalone="no"?>
<!-- Created with Inkscape (http://www.inkscape.org/) -->

<svg
   xmlns:dc="http://purl.org/dc/elements/1.1/"
   xmlns:cc="http://creativecommons.org/ns#"
   xmlns:rdf="http://www.w3.org/1999/02/22-rdf-syntax-ns#"
   xmlns:svg="http://www.w3.org/2000/svg"
   xmlns="http://www.w3.org/2000/svg"
   xmlns:sodipodi="http://sodipodi.sourceforge.net/DTD/sodipodi-0.dtd"
   xmlns:inkscape="http://www.inkscape.org/namespaces/inkscape"
   width="7.0492334mm"
   height="6.6149211mm"
   viewBox="0 0 7.0492334 6.614921"
   version="1.1"
   id="svg4633"
   inkscape:version="0.92.3 (2405546, 2018-03-11)"
   sodipodi:docname="icon_dataset_matrix.svg">
  <defs
     id="defs4627" />
  <sodipodi:namedview
     id="base"
     pagecolor="#ffffff"
     bordercolor="#666666"
     borderopacity="1.0"
     inkscape:pageopacity="0.0"
     inkscape:pageshadow="2"
     inkscape:zoom="15.839192"
     inkscape:cx="12.887719"
     inkscape:cy="2.543418"
     inkscape:document-units="mm"
     inkscape:current-layer="layer1"
     showgrid="false"
     inkscape:window-width="1920"
     inkscape:window-height="1017"
     inkscape:window-x="0"
     inkscape:window-y="30"
     inkscape:window-maximized="1"
     showguides="false" />
  <metadata
     id="metadata4630">
    <rdf:RDF>
      <cc:Work
         rdf:about="">
        <dc:format>image/svg+xml</dc:format>
        <dc:type
           rdf:resource="http://purl.org/dc/dcmitype/StillImage" />
        <dc:title></dc:title>
      </cc:Work>
    </rdf:RDF>
  </metadata>
  <g
     inkscape:label="Layer 1"
     inkscape:groupmode="layer"
     id="layer1"
     transform="translate(-25.110161,12.735069)">
    <path
       inkscape:connector-curvature="0"
       style="color:#000000;font-style:normal;font-variant:normal;font-weight:normal;font-stretch:normal;font-size:medium;line-height:normal;font-family:sans-serif;font-variant-ligatures:normal;font-variant-position:normal;font-variant-caps:normal;font-variant-numeric:normal;font-variant-alternates:normal;font-feature-settings:normal;text-indent:0;text-align:start;text-decoration:none;text-decoration-line:none;text-decoration-style:solid;text-decoration-color:#000000;letter-spacing:normal;word-spacing:normal;text-transform:none;writing-mode:lr-tb;direction:ltr;text-orientation:mixed;dominant-baseline:auto;baseline-shift:baseline;text-anchor:start;white-space:normal;shape-padding:0;clip-rule:nonzero;display:inline;overflow:visible;visibility:visible;opacity:1;isolation:auto;mix-blend-mode:normal;color-interpolation:sRGB;color-interpolation-filters:linearRGB;solid-color:#000000;solid-opacity:1;vector-effect:none;fill:#928888;fill-opacity:1;fill-rule:nonzero;stroke:none;stroke-width:0.38046739;stroke-linecap:butt;stroke-linejoin:miter;stroke-miterlimit:4;stroke-dasharray:none;stroke-dashoffset:0;stroke-opacity:1;color-rendering:auto;image-rendering:auto;shape-rendering:auto;text-rendering:auto;enable-background:accumulate"
       d="m 27.33124,-11.415859 c -0.385278,0 -0.70125,0.31597 -0.701249,0.701249 v 2.5740031 c 0,0.3852789 0.31597,0.7012493 0.701249,0.7012493 h 2.607076 c 0.38528,0 0.701249,-0.3159704 0.701249,-0.7012493 V -10.71461 c 0,-0.385279 -0.315969,-0.701249 -0.701249,-0.701249 z m 0,0.380855 h 0.499711 v 0.810803 h -0.822172 v -0.490409 c 0,-0.181082 0.14138,-0.320394 0.322461,-0.320394 z m 0.784965,0 h 0.984436 v 0.810803 h -0.984436 z m 1.27124,0 h 0.550871 c 0.181083,0 0.322461,0.139312 0.322461,0.320394 v 0.490409 h -0.873332 z m -2.378666,1.0955406 h 0.822172 v 0.9865033 h -0.822172 z m 1.107426,0 h 0.984436 v 0.9865033 h -0.984436 z m 1.27124,0 h 0.873332 v 0.9865033 h -0.873332 z m -2.378666,1.271757 h 0.822172 v 0.8474935 H 27.33124 c -0.181081,0 -0.322461,-0.1393126 -0.322461,-0.320394 z m 1.107426,0 h 0.984436 v 0.8474935 h -0.984436 z m 1.27124,0 h 0.873332 v 0.5270995 c 0,0.1810814 -0.141378,0.320394 -0.322461,0.320394 h -0.550871 z"
       id="rect1139-8-8" />
  </g>
</svg>
