<?xml version="1.0" encoding="UTF-8" standalone="no"?>
<!-- Created with Inkscape (http://www.inkscape.org/) -->

<svg
   xmlns:dc="http://purl.org/dc/elements/1.1/"
   xmlns:cc="http://creativecommons.org/ns#"
   xmlns:rdf="http://www.w3.org/1999/02/22-rdf-syntax-ns#"
   xmlns:svg="http://www.w3.org/2000/svg"
   xmlns="http://www.w3.org/2000/svg"
   xmlns:sodipodi="http://sodipodi.sourceforge.net/DTD/sodipodi-0.dtd"
   xmlns:inkscape="http://www.inkscape.org/namespaces/inkscape"
   width="14.330392mm"
   height="6.3825569mm"
   viewBox="0 0 14.330392 6.3825569"
   version="1.1"
   id="svg4809"
   inkscape:version="0.92.3 (2405546, 2018-03-11)"
   sodipodi:docname="icon_attribute_longitude_gray.svg">
  <defs
     id="defs4803" />
  <sodipodi:namedview
     id="base"
     pagecolor="#ffffff"
     bordercolor="#666666"
     borderopacity="1.0"
     inkscape:pageopacity="0.0"
     inkscape:pageshadow="2"
     inkscape:zoom="11.2"
     inkscape:cx="33.887966"
     inkscape:cy="8.6281558"
     inkscape:document-units="mm"
     inkscape:current-layer="layer1"
     showgrid="false"
     inkscape:window-width="1920"
     inkscape:window-height="1017"
     inkscape:window-x="0"
     inkscape:window-y="30"
     inkscape:window-maximized="1"
     inkscape:snap-bbox="true"
     inkscape:snap-bbox-midpoints="true"
     inkscape:bbox-paths="true"
     inkscape:bbox-nodes="true"
     inkscape:snap-bbox-edge-midpoints="true" />
  <metadata
     id="metadata4806">
    <rdf:RDF>
      <cc:Work
         rdf:about="">
        <dc:format>image/svg+xml</dc:format>
        <dc:type
           rdf:resource="http://purl.org/dc/dcmitype/StillImage" />
        <dc:title></dc:title>
      </cc:Work>
    </rdf:RDF>
  </metadata>
  <g
     inkscape:label="Layer 1"
     inkscape:groupmode="layer"
     id="layer1"
     transform="translate(-9.2624835,-103.80141)">
    <path
       style="color:#000000;clip-rule:nonzero;display:inline;overflow:visible;visibility:visible;opacity:1;isolation:auto;mix-blend-mode:normal;color-interpolation:sRGB;color-interpolation-filters:linearRGB;solid-color:#000000;solid-opacity:1;fill:#4b4b4b;fill-opacity:1;fill-rule:evenodd;stroke-width:0.59385729;color-rendering:auto;image-rendering:auto;shape-rendering:auto;text-rendering:auto;enable-background:accumulate"
       d="m 9.6237019,103.80141 c -0.2001402,0 -0.3612183,0.16108 -0.3612183,0.36122 v 5.66012 c 0,0.20014 0.1610781,0.36122 0.3612183,0.36122 H 23.23114 c 0.20014,0 0.361735,-0.16108 0.361735,-0.36122 v -5.66012 c 0,-0.20014 -0.161595,-0.36122 -0.361735,-0.36122 z m 3.1315921,1.08211 v 5.1e-4 a 1.5611599,1.5611599 0 0 1 1.561145,1.56115 1.5611599,1.5611599 0 0 1 -0.0052,0.1173 c 0.0043,0.43086 -0.272254,1.05715 -0.435633,1.36375 -0.202302,0.37965 -0.709546,1.17667 -1.114144,1.17667 -0.404598,0 -0.912359,-0.79702 -1.11466,-1.17667 -0.151723,-0.28472 -0.405223,-0.84829 -0.437183,-1.27228 -4.1e-5,-10e-4 4.1e-5,-0.002 0,-0.002 a 1.5611599,1.5611599 0 0 1 -0.0155,-0.20722 1.5611599,1.5611599 0 0 1 1.561145,-1.56114 z m 2.87321,0.50901 h 0.546219 c 0.04511,0 0.0677,0.027 0.0677,0.0811 v 3.15795 c 0,0.0391 -0.0093,0.0677 -0.02739,0.0858 -0.01805,0.015 -0.04945,0.0227 -0.09457,0.0227 h -0.478007 c -0.03609,0 -0.06196,-0.008 -0.077,-0.0227 -0.01504,-0.015 -0.02222,-0.0393 -0.02222,-0.0724 l 0.01343,-3.16673 c 0,-0.0571 0.02371,-0.0858 0.07183,-0.0858 z m -2.87321,0.0253 v 5.2e-4 a 1.0268811,1.0268811 0 0 0 -0.892969,0.5209 1.0268811,1.0268811 0 0 0 -0.08785,0.20205 1.0268811,1.0268811 0 0 0 -0.04599,0.30386 1.0268811,1.0268811 0 0 0 1.026811,1.02681 1.0268811,1.0268811 0 0 0 1.026811,-1.02681 1.0268811,1.0268811 0 0 0 -0.0016,-0.0377 1.0268811,1.0268811 0 0 0 -0.0046,-0.0656 1.0268811,1.0268811 0 0 0 -0.0047,-0.0362 1.0268811,1.0268811 0 0 0 -0.0124,-0.0729 1.0268811,1.0268811 0 0 0 -0.0046,-0.0212 1.0268811,1.0268811 0 0 0 -0.02274,-0.0816 1.0268811,1.0268811 0 0 0 -0.0052,-0.015 1.0268811,1.0268811 0 0 0 -0.03204,-0.0822 1.0268811,1.0268811 0 0 0 -0.0021,-0.006 1.0268811,1.0268811 0 0 0 -0.0026,-0.005 1.0268811,1.0268811 0 0 0 -0.04444,-0.0868 1.0268811,1.0268811 0 0 0 -0.889868,-0.51728 z m 5.091162,0.88574 c 0.237599,0 0.44854,0.0545 0.632003,0.16278 0.183463,0.10526 0.324496,0.25235 0.423747,0.44183 0.102258,0.18948 0.153479,0.40483 0.153479,0.64544 0,0.2376 -0.05122,0.44967 -0.153479,0.63614 -0.102258,0.18647 -0.244935,0.33191 -0.428398,0.43718 -0.183463,0.10526 -0.393887,0.15813 -0.631486,0.15813 -0.237599,0 -0.44854,-0.0512 -0.632003,-0.15348 -0.180455,-0.10527 -0.321489,-0.25123 -0.423747,-0.4377 -0.102257,-0.18647 -0.153479,-0.39854 -0.153479,-0.63614 0,-0.24662 0.05122,-0.46474 0.153479,-0.65422 0.105266,-0.18948 0.249586,-0.33657 0.433049,-0.44183 0.18647,-0.10527 0.395251,-0.15813 0.626835,-0.15813 z m 3.102136,0 c 0.219554,0 0.392513,0.065 0.518832,0.1943 0.129326,0.12932 0.194303,0.30228 0.194303,0.51883 v 1.61489 c 0,0.0722 -0.03634,0.10852 -0.108521,0.10852 h -0.500744 c -0.03308,0 -0.05567,-0.006 -0.0677,-0.0181 -0.01203,-0.015 -0.01809,-0.0393 -0.01809,-0.0723 v -1.52498 c 0,-0.10225 -0.02864,-0.18047 -0.08578,-0.23461 -0.05414,-0.0571 -0.135123,-0.0858 -0.243396,-0.0858 -0.09023,0 -0.1745,0.0226 -0.252697,0.0677 -0.07519,0.0451 -0.156177,0.11614 -0.243396,0.21239 v 1.55184 c 0,0.0361 -0.0093,0.0631 -0.02739,0.0811 -0.01805,0.015 -0.04781,0.0227 -0.08992,0.0227 h -0.483175 c -0.03308,0 -0.05679,-0.006 -0.07183,-0.0181 -0.01504,-0.015 -0.02274,-0.0393 -0.02274,-0.0723 v -2.21486 c 0,-0.0571 0.02423,-0.0858 0.07235,-0.0858 h 0.545704 c 0.04511,0 0.0677,0.0254 0.0677,0.0765 v 0.22118 c 0,0.0241 0.0077,0.0362 0.02274,0.0362 0.009,0 0.01949,-0.006 0.03152,-0.0181 0.123311,-0.11729 0.246692,-0.20598 0.370003,-0.26613 0.123311,-0.0632 0.253876,-0.0951 0.392224,-0.0951 z m -3.102136,0.447 c -0.165417,0 -0.291568,0.0677 -0.378788,0.20308 -0.08722,0.13234 -0.130741,0.32901 -0.130742,0.59067 0,0.25564 0.04352,0.44954 0.130742,0.58187 0.08722,0.13234 0.213371,0.19844 0.378788,0.19844 0.165417,0 0.290442,-0.0645 0.374654,-0.19379 0.08722,-0.13233 0.130742,-0.32787 0.130742,-0.58652 0,-0.26166 -0.04352,-0.45833 -0.130742,-0.59067 -0.08421,-0.13534 -0.209237,-0.20308 -0.374654,-0.20308 z"
       id="rect1201-8-2-8-0-6-0"
       inkscape:connector-curvature="0" />
  </g>
</svg>
