<?xml version="1.0" encoding="UTF-8" standalone="no"?>
<!-- Created with Inkscape (http://www.inkscape.org/) -->

<svg
   xmlns:dc="http://purl.org/dc/elements/1.1/"
   xmlns:cc="http://creativecommons.org/ns#"
   xmlns:rdf="http://www.w3.org/1999/02/22-rdf-syntax-ns#"
   xmlns:svg="http://www.w3.org/2000/svg"
   xmlns="http://www.w3.org/2000/svg"
   xmlns:sodipodi="http://sodipodi.sourceforge.net/DTD/sodipodi-0.dtd"
   xmlns:inkscape="http://www.inkscape.org/namespaces/inkscape"
   width="7.0492334mm"
   height="6.6149211mm"
   viewBox="0 0 7.0492334 6.614921"
   version="1.1"
   id="svg4633"
   inkscape:version="0.92.3 (2405546, 2018-03-11)"
   sodipodi:docname="icon_attribute_gray.svg">
  <defs
     id="defs4627" />
  <sodipodi:namedview
     id="base"
     pagecolor="#ffffff"
     bordercolor="#666666"
     borderopacity="1.0"
     inkscape:pageopacity="0.0"
     inkscape:pageshadow="2"
     inkscape:zoom="22.4"
     inkscape:cx="2.5973851"
     inkscape:cy="12.520667"
     inkscape:document-units="mm"
     inkscape:current-layer="layer1"
     showgrid="false"
     inkscape:window-width="1920"
     inkscape:window-height="1017"
     inkscape:window-x="0"
     inkscape:window-y="30"
     inkscape:window-maximized="1"
     showguides="false" />
  <metadata
     id="metadata4630">
    <rdf:RDF>
      <cc:Work
         rdf:about="">
        <dc:format>image/svg+xml</dc:format>
        <dc:type
           rdf:resource="http://purl.org/dc/dcmitype/StillImage" />
        <dc:title />
      </cc:Work>
    </rdf:RDF>
  </metadata>
  <g
     inkscape:label="Layer 1"
     inkscape:groupmode="layer"
     id="layer1"
     transform="translate(-25.110161,12.735069)">
    <path
       inkscape:connector-curvature="0"
       style="color:#000000;font-style:normal;font-variant:normal;font-weight:normal;font-stretch:normal;font-size:medium;line-height:normal;font-family:sans-serif;font-variant-ligatures:normal;font-variant-position:normal;font-variant-caps:normal;font-variant-numeric:normal;font-variant-alternates:normal;font-feature-settings:normal;text-indent:0;text-align:start;text-decoration:none;text-decoration-line:none;text-decoration-style:solid;text-decoration-color:#000000;letter-spacing:normal;word-spacing:normal;text-transform:none;writing-mode:lr-tb;direction:ltr;text-orientation:mixed;dominant-baseline:auto;baseline-shift:baseline;text-anchor:start;white-space:normal;shape-padding:0;clip-rule:nonzero;display:inline;overflow:visible;visibility:visible;opacity:1;isolation:auto;mix-blend-mode:normal;color-interpolation:sRGB;color-interpolation-filters:linearRGB;solid-color:#000000;solid-opacity:1;vector-effect:none;fill:#4b4b4b;fill-opacity:1;fill-rule:nonzero;stroke:none;stroke-width:0.30095607;stroke-linecap:butt;stroke-linejoin:miter;stroke-miterlimit:4;stroke-dasharray:none;stroke-dashoffset:0;stroke-opacity:1;color-rendering:auto;image-rendering:auto;shape-rendering:auto;text-rendering:auto;enable-background:accumulate"
       d="m 26.800781,-10.96742 c -0.306913,0 -0.558621,0.251709 -0.558622,0.558622 v 1.7497652 c 0,0.306912 0.251709,0.558622 0.558622,0.558622 h 3.667993 c 0.306913,0 0.558622,-0.25171 0.558622,-0.558622 v -1.7497652 c 0,-0.306913 -0.251709,-0.558622 -0.558622,-0.558622 z m 0,0.300756 h 3.667993 c 0.145389,0 0.257866,0.112477 0.257866,0.257866 v 1.7497652 c 0,0.145389 -0.112477,0.257865 -0.257866,0.257865 h -3.667993 c -0.145389,0 -0.257865,-0.112476 -0.257865,-0.257865 v -1.7497652 c 0,-0.145389 0.112476,-0.257866 0.257865,-0.257866 z m 3.094902,0.181385 c -0.03545,0 -0.06408,0.02863 -0.06408,0.06408 v 0.274402 c 0,0.03545 0.02863,0.06408 0.06408,0.06408 h 0.574641 c 0.03545,0 0.06408,-0.02863 0.06408,-0.06408 v -0.274402 c 0,-0.03545 -0.02863,-0.06408 -0.06408,-0.06408 z m -3.001367,0.104903 c -0.01879,0 -0.03359,0.01532 -0.03359,0.03411 v 0.145211 c 0,0.01879 0.0148,0.03411 0.03359,0.03411 h 2.546097 c 0.01879,0 0.03411,-0.01532 0.03411,-0.03411 v -0.145211 c 0,-0.01879 -0.01532,-0.03411 -0.03411,-0.03411 z"
       id="rect973"
       sodipodi:nodetypes="scssssssssssssssssssssssssssssssssss" />
  </g>
</svg>
