<?xml version="1.0" encoding="UTF-8" standalone="no"?>
<!-- Created with Inkscape (http://www.inkscape.org/) -->

<svg
   xmlns:dc="http://purl.org/dc/elements/1.1/"
   xmlns:cc="http://creativecommons.org/ns#"
   xmlns:rdf="http://www.w3.org/1999/02/22-rdf-syntax-ns#"
   xmlns:svg="http://www.w3.org/2000/svg"
   xmlns="http://www.w3.org/2000/svg"
   xmlns:sodipodi="http://sodipodi.sourceforge.net/DTD/sodipodi-0.dtd"
   xmlns:inkscape="http://www.inkscape.org/namespaces/inkscape"
   width="14.330392mm"
   height="6.3825569mm"
   viewBox="0 0 14.330392 6.3825569"
   version="1.1"
   id="svg4809"
   inkscape:version="0.92.3 (2405546, 2018-03-11)"
   sodipodi:docname="icon_attribute_latitude_white.svg">
  <defs
     id="defs4803" />
  <sodipodi:namedview
     id="base"
     pagecolor="#ffffff"
     bordercolor="#666666"
     borderopacity="1.0"
     inkscape:pageopacity="0.0"
     inkscape:pageshadow="2"
     inkscape:zoom="15.839192"
     inkscape:cx="30.970924"
     inkscape:cy="19.88325"
     inkscape:document-units="mm"
     inkscape:current-layer="layer1"
     showgrid="false"
     inkscape:window-width="1920"
     inkscape:window-height="1017"
     inkscape:window-x="0"
     inkscape:window-y="30"
     inkscape:window-maximized="1"
     inkscape:snap-bbox="true"
     inkscape:snap-bbox-midpoints="true"
     inkscape:bbox-paths="true"
     inkscape:bbox-nodes="true"
     inkscape:snap-bbox-edge-midpoints="true"
     showguides="true"
     inkscape:guide-bbox="true">
    <sodipodi:guide
       position="0,2.5749627"
       orientation="1,0"
       id="guide816"
       inkscape:locked="false" />
    <sodipodi:guide
       position="7.1651959,6.3825567"
       orientation="0,1"
       id="guide818"
       inkscape:locked="false" />
    <sodipodi:guide
       position="6.3783484,8.1027666e-07"
       orientation="0,1"
       id="guide820"
       inkscape:locked="false" />
    <sodipodi:guide
       position="14.330392,3.1912787"
       orientation="1,0"
       id="guide822"
       inkscape:locked="false" />
  </sodipodi:namedview>
  <metadata
     id="metadata4806">
    <rdf:RDF>
      <cc:Work
         rdf:about="">
        <dc:format>image/svg+xml</dc:format>
        <dc:type
           rdf:resource="http://purl.org/dc/dcmitype/StillImage" />
        <dc:title></dc:title>
      </cc:Work>
    </rdf:RDF>
  </metadata>
  <g
     inkscape:label="Layer 1"
     inkscape:groupmode="layer"
     id="layer1"
     transform="translate(-9.2624835,-103.80141)">
    <path
       style="opacity:1;fill:#4b4b4b;fill-opacity:1;stroke:none;stroke-width:5.6692915;stroke-linecap:round;stroke-miterlimit:4;stroke-dasharray:none;stroke-opacity:1;paint-order:normal"
       d="M 3.7792969 0 C 1.6854374 0 0 1.6854374 0 3.7792969 L 0 20.34375 C 0 22.43761 1.6854374 24.123047 3.7792969 24.123047 L 50.382812 24.123047 C 52.476672 24.123047 54.162109 22.43761 54.162109 20.34375 L 54.162109 3.7792969 C 54.162109 1.6854374 52.476672 0 50.382812 0 L 3.7792969 0 z M 14.728516 4.0878906 C 17.987199 4.0879219 20.628875 6.7295986 20.628906 9.9882812 C 20.628206 10.139517 20.621695 10.290671 20.609375 10.441406 C 20.621994 12.069648 19.579388 14.42902 18.962891 15.585938 C 18.198285 17.020831 16.281142 20.035156 14.751953 20.035156 C 13.222764 20.035156 11.303665 17.020831 10.539062 15.585938 C 9.9656242 14.509821 9.007526 12.381765 8.8867188 10.779297 C 8.8865615 10.777197 8.8868727 10.775537 8.8867188 10.773438 C 8.8497278 10.513316 8.830155 10.251013 8.828125 9.9882812 C 8.8281559 6.7295982 11.469833 4.0879213 14.728516 4.0878906 z M 25.589844 6.0136719 L 27.652344 6.0136719 C 27.822843 6.0136719 27.908203 6.1177932 27.908203 6.3222656 L 27.908203 18.255859 C 27.908203 18.403639 27.874861 18.511668 27.806641 18.580078 C 27.738458 18.637518 27.61776 18.664063 27.447266 18.664062 L 25.640625 18.664062 C 25.50426 18.664062 25.408402 18.637148 25.351562 18.580078 C 25.294713 18.523007 25.265625 18.431743 25.265625 18.306641 L 25.316406 6.3378906 C 25.316406 6.1220796 25.408011 6.0136719 25.589844 6.0136719 z M 14.728516 6.1074219 C 13.330721 6.1086379 12.041558 6.861396 11.353516 8.078125 C 11.215771 8.3200379 11.104454 8.5760685 11.021484 8.8417969 C 10.944818 9.0892676 10.893137 9.3437923 10.867188 9.6015625 C 10.854258 9.7300635 10.847728 9.8591304 10.847656 9.9882812 C 10.846724 12.132323 12.584474 13.870948 14.728516 13.871094 C 16.872557 13.870947 18.610307 12.132322 18.609375 9.9882812 C 18.608275 9.9413743 18.606316 9.8944922 18.603516 9.8476562 C 18.600306 9.7648075 18.594437 9.6820824 18.585938 9.5996094 C 18.580888 9.5539356 18.575059 9.5083556 18.568359 9.4628906 C 18.556049 9.370561 18.540404 9.278705 18.521484 9.1875 C 18.515904 9.160746 18.510006 9.1340519 18.503906 9.1074219 C 18.478976 9.0020751 18.449656 8.8978172 18.416016 8.7949219 C 18.414016 8.7871039 18.412156 8.7792944 18.410156 8.7714844 C 18.406856 8.7636614 18.403691 8.7558469 18.400391 8.7480469 C 18.363591 8.638162 18.321881 8.5299807 18.275391 8.4238281 C 18.273391 8.4192661 18.271531 8.4147062 18.269531 8.4101562 C 18.267531 8.4062473 18.265672 8.4023375 18.263672 8.3984375 C 18.211804 8.2844006 18.154447 8.172942 18.091797 8.0644531 C 17.40232 6.8566289 16.119275 6.1100519 14.728516 6.1074219 z M 40.935547 6.5605469 L 42.792969 6.5605469 C 42.872528 6.5605469 42.934999 6.5874603 42.980469 6.6445312 C 43.037319 6.7016021 43.066406 6.7823404 43.066406 6.8847656 L 43.066406 9.4414062 C 43.066406 9.5551701 43.122678 9.6113281 43.236328 9.6113281 L 45.027344 9.6113281 C 45.231892 9.6113281 45.333984 9.7029703 45.333984 9.8847656 L 45.333984 11.146484 C 45.333984 11.339617 45.219524 11.435547 44.992188 11.435547 L 43.185547 11.435547 C 43.060517 11.435547 42.998047 11.504184 42.998047 11.640625 L 42.998047 15.75 C 42.998047 16.136419 43.089647 16.413531 43.271484 16.583984 C 43.453329 16.743106 43.742822 16.822266 44.140625 16.822266 L 45.060547 16.822266 C 45.140106 16.822266 45.202577 16.851133 45.248047 16.908203 C 45.293367 16.953557 45.316406 17.022191 45.316406 17.113281 L 45.300781 18.152344 C 45.300781 18.379569 45.175835 18.51715 44.925781 18.5625 C 44.448423 18.630152 43.771642 18.664062 42.896484 18.664062 C 42.10089 18.664062 41.480372 18.476492 41.037109 18.101562 C 40.59385 17.726522 40.373047 17.180913 40.373047 16.464844 L 40.373047 11.691406 C 40.373047 11.520947 40.298132 11.435547 40.150391 11.435547 L 39.111328 11.435547 C 38.895404 11.435547 38.787109 11.339618 38.787109 11.146484 L 38.787109 9.8847656 C 38.787109 9.7143092 38.889164 9.6289062 39.09375 9.6289062 L 40.271484 9.6289062 C 40.362416 9.6289062 40.418726 9.5665086 40.441406 9.4414062 L 40.679688 6.8496094 C 40.702363 6.6560979 40.78773 6.5605469 40.935547 6.5605469 z M 33.783203 9.4570312 C 35.135718 9.4570313 36.114419 9.7069626 36.716797 10.207031 C 37.319197 10.695762 37.619141 11.395447 37.619141 12.304688 L 37.619141 18.287109 C 37.619141 18.42355 37.596251 18.521055 37.550781 18.578125 C 37.505314 18.633675 37.419949 18.662109 37.294922 18.662109 L 35.539062 18.662109 C 35.425376 18.662109 35.340013 18.622719 35.283203 18.542969 C 35.237771 18.463221 35.204321 18.342712 35.181641 18.183594 L 35.164062 17.810547 C 35.152726 17.708123 35.106944 17.658203 35.027344 17.658203 C 34.981876 17.658203 34.898462 17.703832 34.773438 17.794922 C 34.023307 18.488201 33.129982 18.835937 32.095703 18.835938 C 31.24328 18.835937 30.566498 18.606945 30.066406 18.152344 C 29.566311 17.686328 29.316406 17.08445 29.316406 16.345703 C 29.316406 15.390957 29.753749 14.624588 30.628906 14.044922 C 31.504063 13.465105 32.709773 13.157067 34.244141 13.123047 L 34.857422 13.072266 C 34.925605 13.072266 34.981874 13.055504 35.027344 13.021484 C 35.084194 12.97613 35.113281 12.913734 35.113281 12.833984 L 35.113281 12.476562 C 35.113281 12.033339 34.988335 11.691613 34.738281 11.453125 C 34.488228 11.214259 34.130048 11.095703 33.664062 11.095703 C 32.86847 11.095703 32.277059 11.4372 31.890625 12.119141 C 31.845195 12.232902 31.772234 12.289062 31.669922 12.289062 C 31.613115 12.289062 31.561095 12.280871 31.515625 12.269531 L 29.810547 11.876953 C 29.708233 11.854276 29.658203 11.793831 29.658203 11.691406 C 29.658203 11.622997 29.681093 11.537972 29.726562 11.435547 C 29.999342 10.776322 30.482476 10.280747 31.175781 9.9511719 C 31.880451 9.6214459 32.748924 9.4570313 33.783203 9.4570312 z M 34.857422 14.351562 L 34.380859 14.384766 C 33.721649 14.418781 33.136453 14.579061 32.625 14.863281 C 32.1249 15.13605 31.875 15.517166 31.875 16.005859 C 31.875 16.346848 31.993746 16.619746 32.232422 16.824219 C 32.47111 17.017351 32.800185 17.113281 33.220703 17.113281 C 33.743525 17.113281 34.187077 16.959241 34.550781 16.652344 C 34.925854 16.35686 35.113281 16.056898 35.113281 15.75 L 35.113281 14.640625 C 35.113281 14.5382 35.09652 14.465272 35.0625 14.419922 C 35.028409 14.374192 34.959734 14.351562 34.857422 14.351562 z "
       transform="matrix(0.26458333,0,0,0.26458333,9.2624835,103.80141)"
       id="rect824" />
  </g>
</svg>
