<?xml version="1.0" encoding="UTF-8" standalone="no"?>
<!-- Created with Inkscape (http://www.inkscape.org/) -->

<svg
   xmlns:dc="http://purl.org/dc/elements/1.1/"
   xmlns:cc="http://creativecommons.org/ns#"
   xmlns:rdf="http://www.w3.org/1999/02/22-rdf-syntax-ns#"
   xmlns:svg="http://www.w3.org/2000/svg"
   xmlns="http://www.w3.org/2000/svg"
   xmlns:xlink="http://www.w3.org/1999/xlink"
   xmlns:sodipodi="http://sodipodi.sourceforge.net/DTD/sodipodi-0.dtd"
   xmlns:inkscape="http://www.inkscape.org/namespaces/inkscape"
   width="14.330132mm"
   height="6.382328mm"
   viewBox="0 0 14.330131 6.3823279"
   version="1.1"
   id="svg4633"
   inkscape:version="0.92.3 (2405546, 2018-03-11)"
   sodipodi:docname="label_attribute_latitude_blue.svg">
  <defs
     id="defs4627">
    <linearGradient
       inkscape:collect="always"
       id="linearGradient6218">
      <stop
         style="stop-color:#14e0f9;stop-opacity:1"
         offset="0"
         id="stop6214" />
      <stop
         style="stop-color:#3765ff;stop-opacity:1"
         offset="1"
         id="stop6216" />
    </linearGradient>
    <linearGradient
       inkscape:collect="always"
       xlink:href="#linearGradient6218"
       id="linearGradient4933"
       x1="-3759.241"
       y1="4189.0234"
       x2="-3756.2056"
       y2="4189.0234"
       gradientUnits="userSpaceOnUse"
       gradientTransform="matrix(1.8347475,0,0,1.8347475,3241.6795,-3368.5314)" />
    <linearGradient
       inkscape:collect="always"
       xlink:href="#linearGradient6218"
       id="linearGradient6199"
       x1="-3759.241"
       y1="4189.0234"
       x2="-3756.2056"
       y2="4189.0234"
       gradientUnits="userSpaceOnUse"
       gradientTransform="matrix(1.8347475,0,0,1.8347475,6849.0095,-7706.9634)" />
    <linearGradient
       inkscape:collect="always"
       xlink:href="#linearGradient6218"
       id="linearGradient6381"
       x1="-3759.241"
       y1="4189.0234"
       x2="-3756.2056"
       y2="4189.0234"
       gradientUnits="userSpaceOnUse"
       gradientTransform="matrix(1.8347475,0,0,1.8347475,6876.7706,-7712.2446)" />
    <linearGradient
       inkscape:collect="always"
       xlink:href="#linearGradient6218"
       id="linearGradient6557"
       x1="-3759.241"
       y1="4189.0234"
       x2="-3756.2056"
       y2="4189.0234"
       gradientUnits="userSpaceOnUse"
       gradientTransform="matrix(1.8347475,0,0,1.8347475,6859.0057,-7760.2476)" />
    <linearGradient
       inkscape:collect="always"
       xlink:href="#linearGradient6218"
       id="linearGradient6724"
       x1="-3759.241"
       y1="4189.0234"
       x2="-3756.2056"
       y2="4189.0234"
       gradientUnits="userSpaceOnUse"
       gradientTransform="matrix(1.8347475,0,0,1.8347475,6864.9839,-7751.3375)" />
    <linearGradient
       inkscape:collect="always"
       xlink:href="#linearGradient6218"
       id="linearGradient6878"
       x1="-3759.241"
       y1="4189.0234"
       x2="-3756.2056"
       y2="4189.0234"
       gradientUnits="userSpaceOnUse"
       gradientTransform="matrix(1.8347475,0,0,1.8347475,6891.9045,-7725.0806)" />
    <linearGradient
       inkscape:collect="always"
       xlink:href="#linearGradient6218"
       id="linearGradient5462-2-5"
       x1="-3756.7827"
       y1="4187.8032"
       x2="-3756.7883"
       y2="4191.1719"
       gradientUnits="userSpaceOnUse"
       gradientTransform="matrix(1.8347475,0,0,1.8347475,6883.2063,-7717.4135)" />
    <linearGradient
       gradientTransform="translate(-13.151154,-8.3765234)"
       inkscape:collect="always"
       xlink:href="#linearGradient7083"
       id="linearGradient7085"
       x1="-1.9917486"
       y1="-33.249763"
       x2="-1.9917486"
       y2="-29.930658"
       gradientUnits="userSpaceOnUse" />
    <linearGradient
       inkscape:collect="always"
       id="linearGradient7083">
      <stop
         style="stop-color:#18d3fa;stop-opacity:1"
         offset="0"
         id="stop7079" />
      <stop
         style="stop-color:#2a93fd;stop-opacity:1"
         offset="1"
         id="stop7081" />
    </linearGradient>
    <linearGradient
       inkscape:collect="always"
       xlink:href="#linearGradient7083"
       id="linearGradient7099"
       x1="-1.9917486"
       y1="-33.249763"
       x2="-1.9917486"
       y2="-29.930658"
       gradientUnits="userSpaceOnUse" />
    <linearGradient
       inkscape:collect="always"
       xlink:href="#linearGradient7083"
       id="linearGradient11463"
       x1="-13.089029"
       y1="-42.05151"
       x2="-13.089029"
       y2="-37.834713"
       gradientUnits="userSpaceOnUse" />
  </defs>
  <sodipodi:namedview
     id="base"
     pagecolor="#ffffff"
     bordercolor="#666666"
     borderopacity="1.0"
     inkscape:pageopacity="0.0"
     inkscape:pageshadow="2"
     inkscape:zoom="5.6"
     inkscape:cx="-24.904008"
     inkscape:cy="-16.997485"
     inkscape:document-units="mm"
     inkscape:current-layer="text1205-12-6-9-8-5-3-5"
     showgrid="false"
     inkscape:window-width="1920"
     inkscape:window-height="1017"
     inkscape:window-x="0"
     inkscape:window-y="30"
     inkscape:window-maximized="1"
     showguides="false" />
  <metadata
     id="metadata4630">
    <rdf:RDF>
      <cc:Work
         rdf:about="">
        <dc:format>image/svg+xml</dc:format>
        <dc:type
           rdf:resource="http://purl.org/dc/dcmitype/StillImage" />
        <dc:title></dc:title>
      </cc:Work>
    </rdf:RDF>
  </metadata>
  <g
     inkscape:label="Layer 1"
     inkscape:groupmode="layer"
     id="layer1"
     transform="translate(25.09853,43.140182)">
    <g
       aria-label="Aa"
       style="font-style:normal;font-variant:normal;font-weight:normal;font-stretch:normal;font-size:4.47149324px;line-height:125%;font-family:Riffic;-inkscape-font-specification:Riffic;letter-spacing:0px;word-spacing:0px;fill:url(#linearGradient7085);fill-opacity:1;stroke:none;stroke-width:0.11178732px;stroke-linecap:butt;stroke-linejoin:miter;stroke-opacity:1"
       id="text1205-12-6-9-8-5-3-5">
      <path
         inkscape:connector-curvature="0"
         style="color:#000000;clip-rule:nonzero;display:inline;overflow:visible;visibility:visible;opacity:1;isolation:auto;mix-blend-mode:normal;color-interpolation:sRGB;color-interpolation-filters:linearRGB;solid-color:#000000;solid-opacity:1;fill:url(#linearGradient11463);fill-opacity:1;fill-rule:evenodd;stroke-width:0.59385729;color-rendering:auto;image-rendering:auto;shape-rendering:auto;text-rendering:auto;enable-background:accumulate"
         d="m -21.201713,-42.058733 a 1.5611598,1.5611598 0 0 0 -1.561145,1.561145 1.5611598,1.5611598 0 0 0 0.0155,0.207739 c 4.1e-5,5.56e-4 -4.2e-5,10e-4 0,0.0016 0.03196,0.423987 0.28546,0.987035 0.437182,1.271757 0.202302,0.379649 0.710063,1.177189 1.114661,1.177189 0.404598,0 0.911842,-0.79754 1.114144,-1.177189 0.163115,-0.306101 0.438971,-0.930351 0.435632,-1.361157 a 1.5611598,1.5611598 0 0 0 0.0052,-0.119889 1.5611598,1.5611598 0 0 0 -1.561145,-1.561145 z m 2.873726,0.50953 c -0.04811,0 -0.07235,0.02868 -0.07235,0.08578 l -0.01344,3.166732 c 0,0.0331 0.0077,0.05725 0.02274,0.07235 0.01504,0.0151 0.0404,0.02222 0.07648,0.02222 h 0.478007 c 0.04511,0 0.07705,-0.007 0.09509,-0.02222 0.01805,-0.0181 0.02687,-0.04668 0.02687,-0.08578 v -3.15743 c 0,-0.0541 -0.02258,-0.08165 -0.0677,-0.08165 z m -2.873726,0.0248 a 1.0268811,1.0268811 0 0 1 0.889868,0.517798 1.0268811,1.0268811 0 0 1 0.04547,0.08837 1.0268811,1.0268811 0 0 1 0.0016,0.0031 1.0268811,1.0268811 0 0 1 0.0016,0.0036 1.0268811,1.0268811 0 0 1 0.03307,0.08578 1.0268811,1.0268811 0 0 1 0.0026,0.0062 1.0268811,1.0268811 0 0 1 0.0016,0.0062 1.0268811,1.0268811 0 0 1 0.02326,0.08268 1.0268811,1.0268811 0 0 1 0.0047,0.02119 1.0268811,1.0268811 0 0 1 0.0124,0.07286 1.0268811,1.0268811 0 0 1 0.0047,0.03617 1.0268811,1.0268811 0 0 1 0.0047,0.06563 1.0268811,1.0268811 0 0 1 0.0016,0.03721 1.0268811,1.0268811 0 0 1 -1.026811,1.027327 1.0268811,1.0268811 0 0 1 -1.026811,-1.027327 1.0268811,1.0268811 0 0 1 0.0052,-0.102319 1.0268811,1.0268811 0 0 1 0.04082,-0.201022 1.0268811,1.0268811 0 0 1 0.08785,-0.202055 1.0268811,1.0268811 0 0 1 0.892969,-0.521415 z m 6.933944,0.11989 c -0.03911,0 -0.0617,0.02528 -0.0677,0.07648 l -0.06305,0.685746 c -0.006,0.0331 -0.0209,0.04961 -0.04496,0.04961 h -0.311609 c -0.05413,0 -0.08113,0.0226 -0.08113,0.0677 v 0.333829 c 0,0.0511 0.02865,0.07648 0.08578,0.07648 h 0.274919 c 0.03909,0 0.05891,0.0226 0.05891,0.0677 v 1.262972 c 0,0.18946 0.05842,0.333819 0.175699,0.433049 0.11728,0.0992 0.281459,0.148828 0.49196,0.148828 0.231552,0 0.410617,-0.009 0.536918,-0.02687 0.06616,-0.012 0.09922,-0.0484 0.09922,-0.10852 l 0.0041,-0.274919 c 0,-0.0241 -0.0061,-0.04226 -0.01809,-0.05426 -0.01203,-0.0151 -0.02856,-0.02274 -0.04961,-0.02274 h -0.243396 c -0.105252,0 -0.181847,-0.02094 -0.22996,-0.06305 -0.04811,-0.0451 -0.07235,-0.118417 -0.07235,-0.220657 v -1.087272 c 0,-0.0361 0.01653,-0.05426 0.04961,-0.05426 h 0.478007 c 0.06015,0 0.09043,-0.02538 0.09043,-0.07648 v -0.333829 c 0,-0.0481 -0.02701,-0.07235 -0.08113,-0.07235 h -0.473873 c -0.03007,0 -0.04496,-0.01486 -0.04496,-0.04496 v -0.676444 c 0,-0.0271 -0.0077,-0.04846 -0.02274,-0.06356 -0.01203,-0.0151 -0.02856,-0.02222 -0.04961,-0.02222 z m -1.892391,0.766361 c -0.273653,0 -0.503437,0.0435 -0.689881,0.130742 -0.183437,0.0872 -0.311266,0.21832 -0.383439,0.39274 -0.01203,0.0271 -0.01809,0.0496 -0.01809,0.0677 0,0.0271 0.01324,0.04309 0.04031,0.04909 l 0.451135,0.10387 c 0.01203,0.003 0.02579,0.0052 0.04083,0.0052 0.02707,0 0.04637,-0.01486 0.05839,-0.04496 0.102244,-0.18043 0.258721,-0.270785 0.469222,-0.270785 0.123292,0 0.21806,0.03137 0.28422,0.09457 0.06616,0.0631 0.09922,0.153515 0.09922,0.270784 v 0.09457 c 0,0.0211 -0.0077,0.03761 -0.02274,0.04961 -0.01203,0.009 -0.02692,0.01344 -0.04496,0.01344 l -0.162264,0.01344 c -0.405968,0.009 -0.724979,0.0905 -0.956531,0.243912 -0.231552,0.15337 -0.347265,0.356139 -0.347265,0.608749 0,0.19546 0.06612,0.354707 0.198437,0.478007 0.132316,0.12028 0.311381,0.180867 0.536918,0.180867 0.273653,0 0.510012,-0.09201 0.708484,-0.275435 0.03308,-0.0241 0.05515,-0.03617 0.06718,-0.03617 0.02106,0 0.03317,0.01321 0.03617,0.04031 l 0.0047,0.0987 c 0.006,0.0421 0.01485,0.07399 0.02687,0.09508 0.01503,0.0211 0.03762,0.03152 0.0677,0.03152 h 0.464571 c 0.03308,0 0.05567,-0.0075 0.0677,-0.02222 0.01203,-0.0151 0.01809,-0.0409 0.01809,-0.077 v -1.582848 c 0,-0.24057 -0.07936,-0.425695 -0.238745,-0.555005 -0.159379,-0.13231 -0.418326,-0.198438 -0.776179,-0.198438 z m 0.28422,1.295011 c 0.02707,0 0.04524,0.006 0.05426,0.01809 0.009,0.012 0.01344,0.0313 0.01344,0.05839 v 0.293522 c 0,0.0812 -0.04959,0.160565 -0.148828,0.238745 -0.09623,0.0812 -0.213587,0.121956 -0.351917,0.121956 -0.111262,0 -0.198329,-0.02538 -0.261482,-0.07648 -0.06315,-0.0541 -0.09457,-0.126304 -0.09457,-0.216524 0,-0.1293 0.06612,-0.230137 0.198438,-0.302307 0.135321,-0.0752 0.290155,-0.117608 0.464571,-0.126607 z"
         id="rect1201-8-2-8-0-6" />
    </g>
  </g>
</svg>
