<?xml version="1.0" encoding="UTF-8" standalone="no"?>
<!-- Created with Inkscape (http://www.inkscape.org/) -->

<svg
   xmlns:dc="http://purl.org/dc/elements/1.1/"
   xmlns:cc="http://creativecommons.org/ns#"
   xmlns:rdf="http://www.w3.org/1999/02/22-rdf-syntax-ns#"
   xmlns:svg="http://www.w3.org/2000/svg"
   xmlns="http://www.w3.org/2000/svg"
   xmlns:xlink="http://www.w3.org/1999/xlink"
   xmlns:sodipodi="http://sodipodi.sourceforge.net/DTD/sodipodi-0.dtd"
   xmlns:inkscape="http://www.inkscape.org/namespaces/inkscape"
   width="14.330132mm"
   height="6.382328mm"
   viewBox="0 0 14.330131 6.3823279"
   version="1.1"
   id="svg4633"
   inkscape:version="0.92.3 (2405546, 2018-03-11)"
   sodipodi:docname="label_attribute_nominal_blue.svg">
  <defs
     id="defs4627">
    <linearGradient
       inkscape:collect="always"
       id="linearGradient6218">
      <stop
         style="stop-color:#14e0f9;stop-opacity:1"
         offset="0"
         id="stop6214" />
      <stop
         style="stop-color:#3765ff;stop-opacity:1"
         offset="1"
         id="stop6216" />
    </linearGradient>
    <linearGradient
       inkscape:collect="always"
       xlink:href="#linearGradient6218"
       id="linearGradient4933"
       x1="-3759.241"
       y1="4189.0234"
       x2="-3756.2056"
       y2="4189.0234"
       gradientUnits="userSpaceOnUse"
       gradientTransform="matrix(1.8347475,0,0,1.8347475,3241.6795,-3368.5314)" />
    <linearGradient
       inkscape:collect="always"
       xlink:href="#linearGradient6218"
       id="linearGradient6199"
       x1="-3759.241"
       y1="4189.0234"
       x2="-3756.2056"
       y2="4189.0234"
       gradientUnits="userSpaceOnUse"
       gradientTransform="matrix(1.8347475,0,0,1.8347475,6849.0095,-7706.9634)" />
    <linearGradient
       inkscape:collect="always"
       xlink:href="#linearGradient6218"
       id="linearGradient6381"
       x1="-3759.241"
       y1="4189.0234"
       x2="-3756.2056"
       y2="4189.0234"
       gradientUnits="userSpaceOnUse"
       gradientTransform="matrix(1.8347475,0,0,1.8347475,6876.7706,-7712.2446)" />
    <linearGradient
       inkscape:collect="always"
       xlink:href="#linearGradient6218"
       id="linearGradient6557"
       x1="-3759.241"
       y1="4189.0234"
       x2="-3756.2056"
       y2="4189.0234"
       gradientUnits="userSpaceOnUse"
       gradientTransform="matrix(1.8347475,0,0,1.8347475,6859.0057,-7760.2476)" />
    <linearGradient
       inkscape:collect="always"
       xlink:href="#linearGradient6218"
       id="linearGradient6724"
       x1="-3759.241"
       y1="4189.0234"
       x2="-3756.2056"
       y2="4189.0234"
       gradientUnits="userSpaceOnUse"
       gradientTransform="matrix(1.8347475,0,0,1.8347475,6864.9839,-7751.3375)" />
    <linearGradient
       inkscape:collect="always"
       xlink:href="#linearGradient6218"
       id="linearGradient6878"
       x1="-3759.241"
       y1="4189.0234"
       x2="-3756.2056"
       y2="4189.0234"
       gradientUnits="userSpaceOnUse"
       gradientTransform="matrix(1.8347475,0,0,1.8347475,6891.9045,-7725.0806)" />
    <linearGradient
       inkscape:collect="always"
       xlink:href="#linearGradient6218"
       id="linearGradient5462-2-5"
       x1="-3756.7827"
       y1="4187.8032"
       x2="-3756.7883"
       y2="4191.1719"
       gradientUnits="userSpaceOnUse"
       gradientTransform="matrix(1.8347475,0,0,1.8347475,6883.2063,-7717.4135)" />
    <linearGradient
       gradientTransform="translate(-13.151154,-8.3765234)"
       inkscape:collect="always"
       xlink:href="#linearGradient7083"
       id="linearGradient7085"
       x1="-1.9917486"
       y1="-33.249763"
       x2="-1.9917486"
       y2="-29.930658"
       gradientUnits="userSpaceOnUse" />
    <linearGradient
       inkscape:collect="always"
       id="linearGradient7083">
      <stop
         style="stop-color:#18d3fa;stop-opacity:1"
         offset="0"
         id="stop7079" />
      <stop
         style="stop-color:#2a93fd;stop-opacity:1"
         offset="1"
         id="stop7081" />
    </linearGradient>
    <linearGradient
       inkscape:collect="always"
       xlink:href="#linearGradient7083"
       id="linearGradient7099"
       x1="-1.9917486"
       y1="-33.249763"
       x2="-1.9917486"
       y2="-29.930658"
       gradientUnits="userSpaceOnUse" />
  </defs>
  <sodipodi:namedview
     id="base"
     pagecolor="#ffffff"
     bordercolor="#666666"
     borderopacity="1.0"
     inkscape:pageopacity="0.0"
     inkscape:pageshadow="2"
     inkscape:zoom="5.6"
     inkscape:cx="-4.3249357"
     inkscape:cy="21.546894"
     inkscape:document-units="mm"
     inkscape:current-layer="layer1"
     showgrid="false"
     inkscape:window-width="1920"
     inkscape:window-height="1017"
     inkscape:window-x="0"
     inkscape:window-y="30"
     inkscape:window-maximized="1"
     showguides="false" />
  <metadata
     id="metadata4630">
    <rdf:RDF>
      <cc:Work
         rdf:about="">
        <dc:format>image/svg+xml</dc:format>
        <dc:type
           rdf:resource="http://purl.org/dc/dcmitype/StillImage" />
        <dc:title />
      </cc:Work>
    </rdf:RDF>
  </metadata>
  <g
     inkscape:label="Layer 1"
     inkscape:groupmode="layer"
     id="layer1"
     transform="translate(25.09853,43.140182)">
    <g
       aria-label="Aa"
       style="font-style:normal;font-variant:normal;font-weight:normal;font-stretch:normal;font-size:4.47149324px;line-height:125%;font-family:Riffic;-inkscape-font-specification:Riffic;letter-spacing:0px;word-spacing:0px;fill:url(#linearGradient7085);fill-opacity:1;stroke:none;stroke-width:0.11178732px;stroke-linecap:butt;stroke-linejoin:miter;stroke-opacity:1"
       id="text1205-12-6-9-8-5-3-5">
      <path
         d="m -20.650978,-38.31245 q -0.06707,0 -0.06707,-0.07602 0,-0.03577 0.0089,-0.05366 l 1.113402,-3.098745 q 0.01789,-0.04919 0.04024,-0.06707 0.02683,-0.02236 0.07602,-0.02236 h 0.670724 q 0.04919,0 0.08496,0.02683 0.03577,0.02683 0.04919,0.07154 l 1.104458,3.098745 q 0.0089,0.02683 0.0089,0.04024 0,0.03577 -0.01789,0.05813 -0.01341,0.02236 -0.04472,0.02236 h -0.657309 q -0.06707,0 -0.08496,-0.0626 l -0.232518,-0.652838 q -0.0089,-0.02683 -0.02236,-0.03577 -0.0089,-0.01341 -0.03577,-0.01341 h -1.091045 q -0.04472,0 -0.05813,0.04471 l -0.236989,0.661781 q -0.02683,0.05813 -0.0939,0.05813 z m 1.810954,-1.359334 q 0.04472,0 0.04472,-0.03577 0,-0.02683 -0.0045,-0.04024 l -0.375606,-1.046329 q -0.01341,-0.02683 -0.0313,-0.02683 -0.01341,0 -0.02683,0.0313 l -0.380077,1.041858 q -0.0089,0.02683 -0.0089,0.04024 0,0.03577 0.04919,0.03577 z"
         style="font-style:normal;font-variant:normal;font-weight:bold;font-stretch:normal;font-family:'Libre Franklin';-inkscape-font-specification:'Libre Franklin Bold';fill:url(#linearGradient7085);fill-opacity:1;stroke-width:0.11178732px"
         id="path829" />
      <path
         d="m -15.864315,-38.540497 q -0.295118,0.272762 -0.702024,0.272762 -0.335362,0 -0.532108,-0.17886 -0.196746,-0.183331 -0.196746,-0.473978 0,-0.375606 0.344305,-0.603652 0.344305,-0.228046 0.947957,-0.241461 l 0.160974,-0.01341 q 0.02683,0 0.04472,-0.01342 0.02236,-0.01789 0.02236,-0.04919 v -0.0939 q 0,-0.174389 -0.09837,-0.26829 -0.09837,-0.0939 -0.281704,-0.0939 -0.313004,0 -0.465035,0.268289 -0.01789,0.04472 -0.05813,0.04472 -0.02236,0 -0.04024,-0.0045 l -0.447149,-0.102845 q -0.04024,-0.0089 -0.04024,-0.04919 0,-0.02683 0.01789,-0.06707 0.107316,-0.259346 0.380077,-0.389019 0.277233,-0.129674 0.684139,-0.129674 0.532107,0 0.769097,0.196746 0.236989,0.192274 0.236989,0.549994 v 1.569494 q 0,0.05366 -0.01789,0.07601 -0.01789,0.02236 -0.06707,0.02236 h -0.460564 q -0.04471,0 -0.06707,-0.0313 -0.01789,-0.0313 -0.02683,-0.0939 l -0.0045,-0.09837 q -0.0045,-0.04024 -0.03577,-0.04024 -0.01789,0 -0.06707,0.03577 z m 0.08943,-0.827226 q 0,-0.04024 -0.01341,-0.05813 -0.01342,-0.01789 -0.05366,-0.01789 l -0.125202,0.0089 q -0.259347,0.01341 -0.460564,0.125202 -0.196746,0.107315 -0.196746,0.29959 0,0.134144 0.0939,0.214631 0.0939,0.07602 0.259346,0.07602 0.205689,0 0.348777,-0.120731 0.147559,-0.116258 0.147559,-0.236989 z"
         style="font-style:normal;font-variant:normal;font-weight:bold;font-stretch:normal;font-family:'Libre Franklin';-inkscape-font-specification:'Libre Franklin Bold';fill:url(#linearGradient7085);fill-opacity:1;stroke-width:0.11178732px"
         id="path831" />
    </g>
  </g>
</svg>
