<?xml version="1.0" encoding="UTF-8" standalone="no"?>
<!-- Created with Inkscape (http://www.inkscape.org/) -->

<svg
   xmlns:dc="http://purl.org/dc/elements/1.1/"
   xmlns:cc="http://creativecommons.org/ns#"
   xmlns:rdf="http://www.w3.org/1999/02/22-rdf-syntax-ns#"
   xmlns:svg="http://www.w3.org/2000/svg"
   xmlns="http://www.w3.org/2000/svg"
   xmlns:xlink="http://www.w3.org/1999/xlink"
   xmlns:sodipodi="http://sodipodi.sourceforge.net/DTD/sodipodi-0.dtd"
   xmlns:inkscape="http://www.inkscape.org/namespaces/inkscape"
   width="14.330132mm"
   height="6.382328mm"
   viewBox="0 0 14.330131 6.3823279"
   version="1.1"
   id="svg4633"
   inkscape:version="0.92.3 (2405546, 2018-03-11)"
   sodipodi:docname="label_attribute_numerical_blue.svg">
  <defs
     id="defs4627">
    <linearGradient
       inkscape:collect="always"
       id="linearGradient6218">
      <stop
         style="stop-color:#14e0f9;stop-opacity:1"
         offset="0"
         id="stop6214" />
      <stop
         style="stop-color:#3765ff;stop-opacity:1"
         offset="1"
         id="stop6216" />
    </linearGradient>
    <linearGradient
       inkscape:collect="always"
       xlink:href="#linearGradient6218"
       id="linearGradient4933"
       x1="-3759.241"
       y1="4189.0234"
       x2="-3756.2056"
       y2="4189.0234"
       gradientUnits="userSpaceOnUse"
       gradientTransform="matrix(1.8347475,0,0,1.8347475,3241.6795,-3368.5314)" />
    <linearGradient
       inkscape:collect="always"
       xlink:href="#linearGradient6218"
       id="linearGradient6199"
       x1="-3759.241"
       y1="4189.0234"
       x2="-3756.2056"
       y2="4189.0234"
       gradientUnits="userSpaceOnUse"
       gradientTransform="matrix(1.8347475,0,0,1.8347475,6849.0095,-7706.9634)" />
    <linearGradient
       inkscape:collect="always"
       xlink:href="#linearGradient6218"
       id="linearGradient6381"
       x1="-3759.241"
       y1="4189.0234"
       x2="-3756.2056"
       y2="4189.0234"
       gradientUnits="userSpaceOnUse"
       gradientTransform="matrix(1.8347475,0,0,1.8347475,6876.7706,-7712.2446)" />
    <linearGradient
       inkscape:collect="always"
       xlink:href="#linearGradient6218"
       id="linearGradient6557"
       x1="-3759.241"
       y1="4189.0234"
       x2="-3756.2056"
       y2="4189.0234"
       gradientUnits="userSpaceOnUse"
       gradientTransform="matrix(1.8347475,0,0,1.8347475,6859.0057,-7760.2476)" />
    <linearGradient
       inkscape:collect="always"
       xlink:href="#linearGradient6218"
       id="linearGradient6724"
       x1="-3759.241"
       y1="4189.0234"
       x2="-3756.2056"
       y2="4189.0234"
       gradientUnits="userSpaceOnUse"
       gradientTransform="matrix(1.8347475,0,0,1.8347475,6864.9839,-7751.3375)" />
    <linearGradient
       inkscape:collect="always"
       xlink:href="#linearGradient6218"
       id="linearGradient6878"
       x1="-3759.241"
       y1="4189.0234"
       x2="-3756.2056"
       y2="4189.0234"
       gradientUnits="userSpaceOnUse"
       gradientTransform="matrix(1.8347475,0,0,1.8347475,6891.9045,-7725.0806)" />
    <linearGradient
       inkscape:collect="always"
       xlink:href="#linearGradient6218"
       id="linearGradient5462-2-5"
       x1="-3756.7827"
       y1="4187.8032"
       x2="-3756.7883"
       y2="4191.1719"
       gradientUnits="userSpaceOnUse"
       gradientTransform="matrix(1.8347475,0,0,1.8347475,6883.2063,-7717.4135)" />
    <linearGradient
       inkscape:collect="always"
       id="linearGradient7083">
      <stop
         style="stop-color:#18d3fa;stop-opacity:1"
         offset="0"
         id="stop7079" />
      <stop
         style="stop-color:#2a93fd;stop-opacity:1"
         offset="1"
         id="stop7081" />
    </linearGradient>
    <linearGradient
       inkscape:collect="always"
       xlink:href="#linearGradient7083"
       id="linearGradient7099"
       x1="-1.9917486"
       y1="-33.249763"
       x2="-1.9917486"
       y2="-29.930658"
       gradientUnits="userSpaceOnUse" />
    <linearGradient
       inkscape:collect="always"
       xlink:href="#linearGradient7083"
       id="linearGradient7433"
       x1="5.286468"
       y1="-41.746109"
       x2="5.286468"
       y2="-38.346775"
       gradientUnits="userSpaceOnUse"
       gradientTransform="translate(-19.362214,0.09324875)" />
  </defs>
  <sodipodi:namedview
     id="base"
     pagecolor="#ffffff"
     bordercolor="#666666"
     borderopacity="1.0"
     inkscape:pageopacity="0.0"
     inkscape:pageshadow="2"
     inkscape:zoom="1.979899"
     inkscape:cx="-55.703504"
     inkscape:cy="-19.567256"
     inkscape:document-units="mm"
     inkscape:current-layer="layer1"
     showgrid="false"
     inkscape:window-width="1920"
     inkscape:window-height="1017"
     inkscape:window-x="0"
     inkscape:window-y="30"
     inkscape:window-maximized="1"
     showguides="false" />
  <metadata
     id="metadata4630">
    <rdf:RDF>
      <cc:Work
         rdf:about="">
        <dc:format>image/svg+xml</dc:format>
        <dc:type
           rdf:resource="http://purl.org/dc/dcmitype/StillImage" />
        <dc:title />
      </cc:Work>
    </rdf:RDF>
  </metadata>
  <g
     inkscape:label="Layer 1"
     inkscape:groupmode="layer"
     id="layer1"
     transform="translate(25.09853,43.140182)">
    <g
       aria-label="123"
       style="font-style:normal;font-variant:normal;font-weight:normal;font-stretch:normal;font-size:4.47149324px;line-height:125%;font-family:Riffic;-inkscape-font-specification:Riffic;letter-spacing:0px;word-spacing:0px;fill:url(#linearGradient7433);fill-opacity:1;stroke:none;stroke-width:0.11178732px;stroke-linecap:butt;stroke-linejoin:miter;stroke-opacity:1"
       id="text1205-12-6-9-8-9-9">
      <path
         d="m -19.96195,-38.866915 q 0.08049,0 0.08049,0.06707 v 0.433735 q 0,0.0313 -0.02236,0.05366 -0.02236,0.02236 -0.06707,0.02236 h -1.76624 q -0.08496,0 -0.08496,-0.07602 v -0.433735 q 0,-0.06707 0.07602,-0.06707 h 0.465035 q 0.04919,0 0.04919,-0.0313 v -1.878027 q 0,-0.03577 -0.01342,-0.04471 -0.01341,-0.01341 -0.04919,-0.0045 l -0.433735,0.129673 -0.0313,0.0045 q -0.06707,0 -0.06707,-0.08943 v -0.295119 q 0,-0.04471 0.01341,-0.0626 0.01341,-0.02236 0.05366,-0.04472 l 0.746739,-0.371134 q 0.0626,-0.0313 0.09837,-0.04024 0.04024,-0.01341 0.08943,-0.01341 h 0.308533 q 0.0313,0 0.04919,0.02236 0.01789,0.02236 0.01789,0.05813 v 2.615824 q 0,0.04472 0.04024,0.04472 z"
         style="font-style:normal;font-variant:normal;font-weight:bold;font-stretch:normal;font-family:'Libre Franklin';-inkscape-font-specification:'Libre Franklin Bold';fill:url(#linearGradient7433);fill-opacity:1;stroke-width:0.11178732px"
         id="path829" />
      <path
         d="m -18.523177,-39.725442 q 0.295118,-0.254875 0.438206,-0.406906 0.143088,-0.15203 0.196746,-0.263818 0.05813,-0.116259 0.05813,-0.250403 0,-0.201218 -0.143088,-0.317476 -0.138616,-0.120731 -0.353248,-0.120731 -0.187802,0 -0.348776,0.111788 -0.156502,0.107315 -0.304062,0.357719 -0.01341,0.03577 -0.05813,0.03577 -0.0313,0 -0.0626,-0.01789 l -0.397963,-0.205689 q -0.05366,-0.03577 -0.05366,-0.08049 0,-0.0313 0.02236,-0.06707 0.442677,-0.702024 1.247546,-0.702024 0.35772,0 0.630481,0.12073 0.277232,0.12073 0.429263,0.348776 0.152031,0.228047 0.152031,0.53658 0,0.272761 -0.147559,0.500807 -0.143088,0.228046 -0.496336,0.50975 l -0.827226,0.648367 q -0.02683,0.01789 -0.02683,0.0313 0,0.02236 0.05366,0.02236 h 1.390634 q 0.08496,0 0.08496,0.07154 v 0.491865 q 0,0.08049 -0.08943,0.08049 h -2.329648 q -0.05813,0 -0.08049,-0.01789 -0.02236,-0.02236 -0.02236,-0.07602 v -0.344305 q 0,-0.04024 0.03577,-0.08496 0.03577,-0.04919 0.169917,-0.160974 z"
         style="font-style:normal;font-variant:normal;font-weight:bold;font-stretch:normal;font-family:'Libre Franklin';-inkscape-font-specification:'Libre Franklin Bold';fill:url(#linearGradient7433);fill-opacity:1;stroke-width:0.11178732px"
         id="path831" />
      <path
         d="m -16.553345,-41.089247 q -0.01789,-0.01789 -0.01789,-0.04471 0,-0.02236 0.01789,-0.05366 0.17886,-0.214632 0.491864,-0.339834 0.313005,-0.125201 0.666253,-0.125201 0.384548,0 0.666252,0.111787 0.286176,0.107316 0.433735,0.304061 0.152031,0.196746 0.152031,0.451621 0,0.223575 -0.138617,0.415849 -0.138616,0.187803 -0.38902,0.263818 -0.05366,0.01789 -0.05366,0.04472 0,0.02236 0.04919,0.03577 0.286176,0.0939 0.460564,0.29959 0.174388,0.205689 0.174388,0.473978 0,0.487393 -0.357719,0.74674 -0.353248,0.259346 -1.050801,0.259346 -0.384549,0 -0.719911,-0.147559 -0.33089,-0.152031 -0.518693,-0.406906 -0.02236,-0.0313 -0.02236,-0.05813 0,-0.03577 0.04919,-0.07154 l 0.348776,-0.245932 q 0.04024,-0.02683 0.05813,-0.02683 0.02683,0 0.04024,0.02236 0.21016,0.214632 0.384549,0.29959 0.178859,0.08496 0.424792,0.08496 0.277232,0 0.433734,-0.120731 0.160974,-0.12073 0.160974,-0.317476 0,-0.219103 -0.17886,-0.348776 -0.174388,-0.129673 -0.442677,-0.134145 l -0.384549,-0.0089 q -0.07601,0 -0.07601,-0.0626 v -0.42032 q 0,-0.04919 0.07601,-0.0626 l 0.308533,-0.01341 q 0.263818,-0.0045 0.429264,-0.129674 0.169916,-0.129673 0.169916,-0.321947 0,-0.160974 -0.143087,-0.26829 -0.138617,-0.111787 -0.353248,-0.111787 -0.205689,0 -0.375606,0.08049 -0.169917,0.07601 -0.348776,0.250403 -0.0313,0.0313 -0.04919,0.0313 -0.0089,0 -0.04919,-0.0313 z"
         style="font-style:normal;font-variant:normal;font-weight:bold;font-stretch:normal;font-family:'Libre Franklin';-inkscape-font-specification:'Libre Franklin Bold';fill:url(#linearGradient7433);fill-opacity:1;stroke-width:0.11178732px"
         id="path833" />
    </g>
  </g>
</svg>
