<?xml version="1.0" encoding="UTF-8" standalone="no"?>
<!-- Created with Inkscape (http://www.inkscape.org/) -->

<svg
   xmlns:dc="http://purl.org/dc/elements/1.1/"
   xmlns:cc="http://creativecommons.org/ns#"
   xmlns:rdf="http://www.w3.org/1999/02/22-rdf-syntax-ns#"
   xmlns:svg="http://www.w3.org/2000/svg"
   xmlns="http://www.w3.org/2000/svg"
   xmlns:xlink="http://www.w3.org/1999/xlink"
   xmlns:sodipodi="http://sodipodi.sourceforge.net/DTD/sodipodi-0.dtd"
   xmlns:inkscape="http://www.inkscape.org/namespaces/inkscape"
   width="14.330132mm"
   height="6.382328mm"
   viewBox="0 0 14.330131 6.3823279"
   version="1.1"
   id="svg4633"
   inkscape:version="0.92.3 (2405546, 2018-03-11)"
   sodipodi:docname="label_attribute_locational_blue.svg">
  <defs
     id="defs4627">
    <linearGradient
       inkscape:collect="always"
       id="linearGradient6218">
      <stop
         style="stop-color:#14e0f9;stop-opacity:1"
         offset="0"
         id="stop6214" />
      <stop
         style="stop-color:#3765ff;stop-opacity:1"
         offset="1"
         id="stop6216" />
    </linearGradient>
    <linearGradient
       inkscape:collect="always"
       xlink:href="#linearGradient6218"
       id="linearGradient4933"
       x1="-3759.241"
       y1="4189.0234"
       x2="-3756.2056"
       y2="4189.0234"
       gradientUnits="userSpaceOnUse"
       gradientTransform="matrix(1.8347475,0,0,1.8347475,3241.6795,-3368.5314)" />
    <linearGradient
       inkscape:collect="always"
       xlink:href="#linearGradient6218"
       id="linearGradient6199"
       x1="-3759.241"
       y1="4189.0234"
       x2="-3756.2056"
       y2="4189.0234"
       gradientUnits="userSpaceOnUse"
       gradientTransform="matrix(1.8347475,0,0,1.8347475,6849.0095,-7706.9634)" />
    <linearGradient
       inkscape:collect="always"
       xlink:href="#linearGradient6218"
       id="linearGradient6381"
       x1="-3759.241"
       y1="4189.0234"
       x2="-3756.2056"
       y2="4189.0234"
       gradientUnits="userSpaceOnUse"
       gradientTransform="matrix(1.8347475,0,0,1.8347475,6876.7706,-7712.2446)" />
    <linearGradient
       inkscape:collect="always"
       xlink:href="#linearGradient6218"
       id="linearGradient6557"
       x1="-3759.241"
       y1="4189.0234"
       x2="-3756.2056"
       y2="4189.0234"
       gradientUnits="userSpaceOnUse"
       gradientTransform="matrix(1.8347475,0,0,1.8347475,6859.0057,-7760.2476)" />
    <linearGradient
       inkscape:collect="always"
       xlink:href="#linearGradient6218"
       id="linearGradient6724"
       x1="-3759.241"
       y1="4189.0234"
       x2="-3756.2056"
       y2="4189.0234"
       gradientUnits="userSpaceOnUse"
       gradientTransform="matrix(1.8347475,0,0,1.8347475,6864.9839,-7751.3375)" />
    <linearGradient
       inkscape:collect="always"
       xlink:href="#linearGradient6218"
       id="linearGradient6878"
       x1="-3759.241"
       y1="4189.0234"
       x2="-3756.2056"
       y2="4189.0234"
       gradientUnits="userSpaceOnUse"
       gradientTransform="matrix(1.8347475,0,0,1.8347475,6891.9045,-7725.0806)" />
    <linearGradient
       inkscape:collect="always"
       xlink:href="#linearGradient6218"
       id="linearGradient5462-2-5"
       x1="-3756.7827"
       y1="4187.8032"
       x2="-3756.7883"
       y2="4191.1719"
       gradientUnits="userSpaceOnUse"
       gradientTransform="matrix(1.8347475,0,0,1.8347475,6883.2063,-7717.4135)" />
    <linearGradient
       gradientTransform="translate(-13.151154,-8.3765234)"
       inkscape:collect="always"
       xlink:href="#linearGradient7083"
       id="linearGradient7085"
       x1="-1.9917486"
       y1="-33.249763"
       x2="-1.9917486"
       y2="-29.930658"
       gradientUnits="userSpaceOnUse" />
    <linearGradient
       inkscape:collect="always"
       id="linearGradient7083">
      <stop
         style="stop-color:#18d3fa;stop-opacity:1"
         offset="0"
         id="stop7079" />
      <stop
         style="stop-color:#2a93fd;stop-opacity:1"
         offset="1"
         id="stop7081" />
    </linearGradient>
    <linearGradient
       inkscape:collect="always"
       xlink:href="#linearGradient7083"
       id="linearGradient7099"
       x1="-1.9917486"
       y1="-33.249763"
       x2="-1.9917486"
       y2="-29.930658"
       gradientUnits="userSpaceOnUse" />
    <linearGradient
       inkscape:collect="always"
       xlink:href="#linearGradient7083"
       id="linearGradient11463"
       x1="-13.089029"
       y1="-42.05151"
       x2="-13.089029"
       y2="-37.834713"
       gradientUnits="userSpaceOnUse"
       gradientTransform="translate(3.2682343)" />
  </defs>
  <sodipodi:namedview
     id="base"
     pagecolor="#ffffff"
     bordercolor="#666666"
     borderopacity="1.0"
     inkscape:pageopacity="0.0"
     inkscape:pageshadow="2"
     inkscape:zoom="15.839192"
     inkscape:cx="29.603967"
     inkscape:cy="12.435267"
     inkscape:document-units="mm"
     inkscape:current-layer="text1205-12-6-9-8-5-3-5"
     showgrid="false"
     inkscape:window-width="1920"
     inkscape:window-height="1017"
     inkscape:window-x="0"
     inkscape:window-y="30"
     inkscape:window-maximized="1"
     showguides="false" />
  <metadata
     id="metadata4630">
    <rdf:RDF>
      <cc:Work
         rdf:about="">
        <dc:format>image/svg+xml</dc:format>
        <dc:type
           rdf:resource="http://purl.org/dc/dcmitype/StillImage" />
        <dc:title></dc:title>
      </cc:Work>
    </rdf:RDF>
  </metadata>
  <g
     inkscape:label="Layer 1"
     inkscape:groupmode="layer"
     id="layer1"
     transform="translate(25.09853,43.140182)">
    <g
       aria-label="Aa"
       style="font-style:normal;font-variant:normal;font-weight:normal;font-stretch:normal;font-size:4.47149324px;line-height:125%;font-family:Riffic;-inkscape-font-specification:Riffic;letter-spacing:0px;word-spacing:0px;fill:url(#linearGradient7085);fill-opacity:1;stroke:none;stroke-width:0.11178732px;stroke-linecap:butt;stroke-linejoin:miter;stroke-opacity:1"
       id="text1205-12-6-9-8-5-3-5">
      <path
         inkscape:connector-curvature="0"
         style="color:#000000;clip-rule:nonzero;display:inline;overflow:visible;visibility:visible;opacity:1;isolation:auto;mix-blend-mode:normal;color-interpolation:sRGB;color-interpolation-filters:linearRGB;solid-color:#000000;solid-opacity:1;fill:url(#linearGradient11463);fill-opacity:1;fill-rule:evenodd;stroke-width:0.59385729;color-rendering:auto;image-rendering:auto;shape-rendering:auto;text-rendering:auto;enable-background:accumulate"
         d="m -17.933479,-42.058733 c -0.862193,8e-6 -1.561137,0.698952 -1.561145,1.561145 5.36e-4,0.06951 0.0057,0.138915 0.0155,0.207739 4.1e-5,5.56e-4 -4.2e-5,10e-4 0,0.0016 0.03196,0.423987 0.28546,0.987035 0.437182,1.271757 0.202302,0.379649 0.710063,1.177189 1.114661,1.177189 0.404598,0 0.911842,-0.79754 1.114144,-1.177189 0.163115,-0.306101 0.438971,-0.930351 0.435632,-1.361157 0.0033,-0.03988 0.005,-0.07987 0.0052,-0.119889 -8e-6,-0.862193 -0.698952,-1.561137 -1.561145,-1.561145 z m 0,0.53433 c 0.367972,6.95e-4 0.707444,0.198228 0.889868,0.517798 0.01657,0.02871 0.03175,0.0582 0.04547,0.08837 5.35e-4,0.001 0.0011,0.0021 0.0016,0.0031 5.36e-4,0.0012 0.0011,0.0024 0.0016,0.0036 0.0123,0.02808 0.02333,0.05671 0.03307,0.08578 8.73e-4,0.0021 0.0017,0.0041 0.0026,0.0062 5.4e-4,0.0021 0.0011,0.0041 0.0016,0.0062 0.0089,0.02722 0.01666,0.05481 0.02326,0.08268 0.0016,0.007 0.0032,0.01411 0.0047,0.02119 0.005,0.02413 0.0091,0.04843 0.0124,0.07286 0.0018,0.01203 0.0033,0.02409 0.0047,0.03617 0.0023,0.02182 0.0038,0.04371 0.0047,0.06563 7.58e-4,0.01239 0.0013,0.0248 0.0016,0.03721 2.46e-4,0.567278 -0.459533,1.027288 -1.026811,1.027327 -0.567278,-3.9e-5 -1.027057,-0.460049 -1.026811,-1.027327 3e-5,-0.03417 0.0018,-0.06832 0.0052,-0.102319 0.0069,-0.0682 0.02054,-0.135545 0.04082,-0.201022 0.02195,-0.07031 0.0514,-0.138049 0.08785,-0.202055 0.182045,-0.321926 0.523136,-0.521093 0.892969,-0.521415 z"
         id="rect1201-8-2-8-0-6"
         sodipodi:nodetypes="cccccscccccccccccccccccccccccccc" />
    </g>
  </g>
</svg>
