<?xml version="1.0" encoding="UTF-8" standalone="no"?>
<!-- Created with Inkscape (http://www.inkscape.org/) -->

<svg
   xmlns:dc="http://purl.org/dc/elements/1.1/"
   xmlns:cc="http://creativecommons.org/ns#"
   xmlns:rdf="http://www.w3.org/1999/02/22-rdf-syntax-ns#"
   xmlns:svg="http://www.w3.org/2000/svg"
   xmlns="http://www.w3.org/2000/svg"
   xmlns:xlink="http://www.w3.org/1999/xlink"
   xmlns:sodipodi="http://sodipodi.sourceforge.net/DTD/sodipodi-0.dtd"
   xmlns:inkscape="http://www.inkscape.org/namespaces/inkscape"
   width="14.330132mm"
   height="6.382328mm"
   viewBox="0 0 14.330131 6.3823279"
   version="1.1"
   id="svg4633"
   inkscape:version="0.92.3 (2405546, 2018-03-11)"
   sodipodi:docname="label_attribute_longitude_white.svg">
  <defs
     id="defs4627">
    <linearGradient
       inkscape:collect="always"
       id="linearGradient6218">
      <stop
         style="stop-color:#14e0f9;stop-opacity:1"
         offset="0"
         id="stop6214" />
      <stop
         style="stop-color:#3765ff;stop-opacity:1"
         offset="1"
         id="stop6216" />
    </linearGradient>
    <linearGradient
       inkscape:collect="always"
       xlink:href="#linearGradient6218"
       id="linearGradient4933"
       x1="-3759.241"
       y1="4189.0234"
       x2="-3756.2056"
       y2="4189.0234"
       gradientUnits="userSpaceOnUse"
       gradientTransform="matrix(1.8347475,0,0,1.8347475,3241.6795,-3368.5314)" />
    <linearGradient
       inkscape:collect="always"
       xlink:href="#linearGradient6218"
       id="linearGradient6199"
       x1="-3759.241"
       y1="4189.0234"
       x2="-3756.2056"
       y2="4189.0234"
       gradientUnits="userSpaceOnUse"
       gradientTransform="matrix(1.8347475,0,0,1.8347475,6849.0095,-7706.9634)" />
    <linearGradient
       inkscape:collect="always"
       xlink:href="#linearGradient6218"
       id="linearGradient6381"
       x1="-3759.241"
       y1="4189.0234"
       x2="-3756.2056"
       y2="4189.0234"
       gradientUnits="userSpaceOnUse"
       gradientTransform="matrix(1.8347475,0,0,1.8347475,6876.7706,-7712.2446)" />
    <linearGradient
       inkscape:collect="always"
       xlink:href="#linearGradient6218"
       id="linearGradient6557"
       x1="-3759.241"
       y1="4189.0234"
       x2="-3756.2056"
       y2="4189.0234"
       gradientUnits="userSpaceOnUse"
       gradientTransform="matrix(1.8347475,0,0,1.8347475,6859.0057,-7760.2476)" />
    <linearGradient
       inkscape:collect="always"
       xlink:href="#linearGradient6218"
       id="linearGradient6724"
       x1="-3759.241"
       y1="4189.0234"
       x2="-3756.2056"
       y2="4189.0234"
       gradientUnits="userSpaceOnUse"
       gradientTransform="matrix(1.8347475,0,0,1.8347475,6864.9839,-7751.3375)" />
    <linearGradient
       inkscape:collect="always"
       xlink:href="#linearGradient6218"
       id="linearGradient6878"
       x1="-3759.241"
       y1="4189.0234"
       x2="-3756.2056"
       y2="4189.0234"
       gradientUnits="userSpaceOnUse"
       gradientTransform="matrix(1.8347475,0,0,1.8347475,6891.9045,-7725.0806)" />
    <linearGradient
       inkscape:collect="always"
       xlink:href="#linearGradient6218"
       id="linearGradient5462-2-5"
       x1="-3756.7827"
       y1="4187.8032"
       x2="-3756.7883"
       y2="4191.1719"
       gradientUnits="userSpaceOnUse"
       gradientTransform="matrix(1.8347475,0,0,1.8347475,6883.2063,-7717.4135)" />
    <linearGradient
       gradientTransform="translate(-13.151154,-8.3765234)"
       inkscape:collect="always"
       xlink:href="#linearGradient7083"
       id="linearGradient7085"
       x1="-1.9917486"
       y1="-33.249763"
       x2="-1.9917486"
       y2="-29.930658"
       gradientUnits="userSpaceOnUse" />
    <linearGradient
       inkscape:collect="always"
       id="linearGradient7083">
      <stop
         style="stop-color:#18d3fa;stop-opacity:1"
         offset="0"
         id="stop7079" />
      <stop
         style="stop-color:#2a93fd;stop-opacity:1"
         offset="1"
         id="stop7081" />
    </linearGradient>
    <linearGradient
       inkscape:collect="always"
       xlink:href="#linearGradient7083"
       id="linearGradient7099"
       x1="-1.9917486"
       y1="-33.249763"
       x2="-1.9917486"
       y2="-29.930658"
       gradientUnits="userSpaceOnUse" />
  </defs>
  <sodipodi:namedview
     id="base"
     pagecolor="#ffffff"
     bordercolor="#666666"
     borderopacity="1.0"
     inkscape:pageopacity="0.0"
     inkscape:pageshadow="2"
     inkscape:zoom="11.2"
     inkscape:cx="26.855894"
     inkscape:cy="-7.4791429"
     inkscape:document-units="mm"
     inkscape:current-layer="text1205-12-6-9-8-5-3-5"
     showgrid="false"
     inkscape:window-width="1920"
     inkscape:window-height="1017"
     inkscape:window-x="0"
     inkscape:window-y="30"
     inkscape:window-maximized="1"
     showguides="false" />
  <metadata
     id="metadata4630">
    <rdf:RDF>
      <cc:Work
         rdf:about="">
        <dc:format>image/svg+xml</dc:format>
        <dc:type
           rdf:resource="http://purl.org/dc/dcmitype/StillImage" />
        <dc:title></dc:title>
      </cc:Work>
    </rdf:RDF>
  </metadata>
  <g
     inkscape:label="Layer 1"
     inkscape:groupmode="layer"
     id="layer1"
     transform="translate(25.09853,43.140182)">
    <g
       aria-label="Aa"
       style="font-style:normal;font-variant:normal;font-weight:normal;font-stretch:normal;font-size:4.47149324px;line-height:125%;font-family:Riffic;-inkscape-font-specification:Riffic;letter-spacing:0px;word-spacing:0px;fill:url(#linearGradient7085);fill-opacity:1;stroke:none;stroke-width:0.11178732px;stroke-linecap:butt;stroke-linejoin:miter;stroke-opacity:1"
       id="text1205-12-6-9-8-5-3-5">
      <path
         inkscape:connector-curvature="0"
         style="color:#000000;clip-rule:nonzero;display:inline;overflow:visible;visibility:visible;opacity:1;isolation:auto;mix-blend-mode:normal;color-interpolation:sRGB;color-interpolation-filters:linearRGB;solid-color:#000000;solid-opacity:1;fill:#ffffff;fill-opacity:1;fill-rule:evenodd;stroke-width:0.59385729;color-rendering:auto;image-rendering:auto;shape-rendering:auto;text-rendering:auto;enable-background:accumulate"
         d="m -21.60611,-42.058725 a 1.5611599,1.5611599 0 0 0 -1.561145,1.561145 1.5611599,1.5611599 0 0 0 0.0155,0.207223 c 4.1e-5,0 -4.1e-5,0.0011 0,0.0021 0.03196,0.42399 0.28546,0.987554 0.437183,1.272274 0.202301,0.37965 0.710062,1.176672 1.11466,1.176672 0.404598,0 0.911842,-0.797022 1.114144,-1.176672 0.163379,-0.3066 0.439932,-0.932881 0.435632,-1.363741 a 1.5611599,1.5611599 0 0 0 0.0052,-0.117305 1.5611599,1.5611599 0 0 0 -1.561145,-1.561145 z m 2.87321,0.509013 c -0.04812,0 -0.07183,0.02868 -0.07183,0.08578 l -0.01344,3.166732 c 0,0.0331 0.0072,0.05735 0.02222,0.07235 0.01504,0.0147 0.04091,0.02274 0.077,0.02274 h 0.478007 c 0.04512,0 0.07652,-0.0077 0.09457,-0.02274 0.01809,-0.0181 0.02739,-0.04668 0.02739,-0.08578 v -3.157946 c 0,-0.0541 -0.02258,-0.08113 -0.0677,-0.08113 z m -2.87321,0.02532 a 1.0268811,1.0268811 0 0 1 0.889868,0.517281 1.0268811,1.0268811 0 0 1 0.04444,0.08682 1.0268811,1.0268811 0 0 1 0.0026,0.0047 1.0268811,1.0268811 0 0 1 0.0021,0.0062 1.0268811,1.0268811 0 0 1 0.03204,0.08217 1.0268811,1.0268811 0 0 1 0.0052,0.01499 1.0268811,1.0268811 0 0 1 0.02274,0.08165 1.0268811,1.0268811 0 0 1 0.0047,0.02119 1.0268811,1.0268811 0 0 1 0.0124,0.07286 1.0268811,1.0268811 0 0 1 0.0047,0.03617 1.0268811,1.0268811 0 0 1 0.0047,0.06563 1.0268811,1.0268811 0 0 1 0.0016,0.03772 1.0268811,1.0268811 0 0 1 -1.026828,1.026811 1.0268811,1.0268811 0 0 1 -1.026811,-1.026811 1.0268811,1.0268811 0 0 1 0.04599,-0.303858 1.0268811,1.0268811 0 0 1 0.08785,-0.202055 1.0268811,1.0268811 0 0 1 0.892969,-0.520898 z m 5.091162,0.885734 c -0.231584,0 -0.440365,0.05286 -0.626835,0.15813 -0.183463,0.10526 -0.327782,0.252354 -0.433048,0.441834 -0.10226,0.18948 -0.153479,0.407603 -0.153479,0.654223 0,0.2376 0.05122,0.449667 0.153479,0.636137 0.102258,0.18647 0.243291,0.33243 0.423746,0.437699 0.183463,0.10228 0.394404,0.15348 0.632003,0.15348 0.237599,0 0.448023,-0.05287 0.631486,-0.15813 0.183463,-0.10527 0.32614,-0.250713 0.428398,-0.437183 0.102259,-0.18647 0.153479,-0.398537 0.153479,-0.636137 0,-0.24061 -0.05122,-0.455958 -0.153479,-0.645438 -0.09925,-0.18948 -0.240284,-0.336574 -0.423747,-0.441834 -0.183463,-0.10828 -0.394404,-0.162781 -0.632003,-0.162781 z m 3.102136,0 c -0.138347,0 -0.268913,0.03189 -0.392224,0.09509 -0.123311,0.06015 -0.246692,0.148844 -0.370003,0.266134 -0.01203,0.0121 -0.02252,0.01809 -0.03152,0.01809 -0.01504,0 -0.02274,-0.01207 -0.02274,-0.03617 v -0.221175 c 0,-0.0511 -0.02259,-0.07648 -0.0677,-0.07648 h -0.545703 c -0.04812,0 -0.07235,0.02868 -0.07235,0.08578 v 2.214852 c 0,0.033 0.0077,0.05735 0.02274,0.07235 0.01504,0.0121 0.03875,0.01809 0.07183,0.01809 h 0.483175 c 0.04211,0 0.07187,-0.0077 0.08992,-0.02274 0.01809,-0.018 0.02739,-0.04503 0.02739,-0.08113 v -1.551843 c 0.08722,-0.09625 0.168206,-0.167291 0.243395,-0.21239 0.0782,-0.0451 0.162468,-0.0677 0.252698,-0.0677 0.108273,0 0.189256,0.02868 0.243396,0.08578 0.05714,0.05414 0.08578,0.132361 0.08578,0.234611 v 1.524972 c 0,0.033 0.0061,0.05735 0.01809,0.07235 0.01203,0.0121 0.03462,0.01809 0.0677,0.01809 h 0.500745 c 0.07218,0 0.10852,-0.03632 0.10852,-0.108521 v -1.614888 c 0,-0.21655 -0.06498,-0.389512 -0.194303,-0.518832 -0.126319,-0.129299 -0.299278,-0.194303 -0.518832,-0.194303 z m -3.102136,0.447001 c 0.165417,0 0.290444,0.06775 0.374654,0.203089 0.08722,0.13234 0.130742,0.329001 0.130742,0.590661 0,0.25865 -0.04352,0.454198 -0.130742,0.586528 -0.08421,0.12929 -0.209237,0.193787 -0.374654,0.193787 -0.165417,0 -0.291568,-0.0661 -0.378788,-0.198438 -0.08722,-0.13233 -0.130741,-0.326237 -0.130741,-0.581877 1e-6,-0.26166 0.04352,-0.458321 0.130741,-0.590661 0.08722,-0.13538 0.213371,-0.203089 0.378788,-0.203089 z"
         id="rect1201-8-2-8-0-6-0-9" />
    </g>
  </g>
</svg>
