<?xml version="1.0" encoding="UTF-8" standalone="no"?>
<!-- Created with Inkscape (http://www.inkscape.org/) -->

<svg
   xmlns:dc="http://purl.org/dc/elements/1.1/"
   xmlns:cc="http://creativecommons.org/ns#"
   xmlns:rdf="http://www.w3.org/1999/02/22-rdf-syntax-ns#"
   xmlns:svg="http://www.w3.org/2000/svg"
   xmlns="http://www.w3.org/2000/svg"
   xmlns:xlink="http://www.w3.org/1999/xlink"
   xmlns:sodipodi="http://sodipodi.sourceforge.net/DTD/sodipodi-0.dtd"
   xmlns:inkscape="http://www.inkscape.org/namespaces/inkscape"
   width="128.90643mm"
   height="25.692148mm"
   viewBox="0 0 128.90643 25.692148"
   version="1.1"
   id="svg4631"
   inkscape:version="0.92.3 (2405546, 2018-03-11)"
   sodipodi:docname="logo_white.svg">
  <defs
     id="defs4625">
    <linearGradient
       inkscape:collect="always"
       xlink:href="#linearGradient6218"
       id="linearGradient9497-3"
       x1="-1504.6088"
       y1="2749.7974"
       x2="-1130.4758"
       y2="2824.3652"
       gradientUnits="userSpaceOnUse"
       gradientTransform="matrix(0.34454724,0,0,0.34454724,553.74115,-998.92392)" />
    <linearGradient
       inkscape:collect="always"
       id="linearGradient6218">
      <stop
         style="stop-color:#14e0f9;stop-opacity:1"
         offset="0"
         id="stop6214" />
      <stop
         style="stop-color:#3765ff;stop-opacity:1"
         offset="1"
         id="stop6216" />
    </linearGradient>
    <linearGradient
       inkscape:collect="always"
       xlink:href="#linearGradient6218"
       id="linearGradient4615"
       x1="-1504.6088"
       y1="2749.7974"
       x2="-1130.4758"
       y2="2824.3652"
       gradientUnits="userSpaceOnUse"
       gradientTransform="matrix(0.34454724,0,0,0.34454724,-3277.9097,2342.573)" />
  </defs>
  <sodipodi:namedview
     id="base"
     pagecolor="#ffffff"
     bordercolor="#666666"
     borderopacity="1.0"
     inkscape:pageopacity="0.0"
     inkscape:pageshadow="2"
     inkscape:zoom="1.979899"
     inkscape:cx="128.9534"
     inkscape:cy="161.57252"
     inkscape:document-units="mm"
     inkscape:current-layer="layer1"
     showgrid="false"
     inkscape:window-width="1920"
     inkscape:window-height="1017"
     inkscape:window-x="0"
     inkscape:window-y="30"
     inkscape:window-maximized="1" />
  <metadata
     id="metadata4628">
    <rdf:RDF>
      <cc:Work
         rdf:about="">
        <dc:format>image/svg+xml</dc:format>
        <dc:type
           rdf:resource="http://purl.org/dc/dcmitype/StillImage" />
        <dc:title />
      </cc:Work>
    </rdf:RDF>
  </metadata>
  <g
     inkscape:label="Layer 1"
     inkscape:groupmode="layer"
     id="layer1"
     transform="translate(-35.332498,51.48893)">
    <g
       aria-label="cyberplot"
       style="font-style:normal;font-variant:normal;font-weight:normal;font-stretch:normal;font-size:28.32651329px;line-height:125%;font-family:Riffic;-inkscape-font-specification:Riffic;letter-spacing:0px;word-spacing:0px;fill:#ffffff;fill-opacity:1;stroke:none;stroke-width:0.17704068px;stroke-linecap:butt;stroke-linejoin:miter;stroke-opacity:1"
       id="text1800-2-2-3-9-3-0-7-5">
      <path
         d="m 42.867351,-45.766975 q 2.521059,0 4.163997,1.274694 1.671264,1.246366 2.237795,3.030936 0.05665,0.226613 0.05665,0.283266 0,0.254938 -0.396571,0.311591 l -2.974284,0.283265 h -0.08498 q -0.254939,0 -0.339918,-0.311591 -0.509877,-1.019755 -1.048081,-1.501305 -0.509877,-0.509878 -1.472979,-0.509878 -1.529631,0 -2.407753,1.246367 -0.849796,1.246366 -0.849796,3.682447 0,2.492733 0.906449,3.739099 0.934775,1.246367 2.577712,1.246367 1.161387,0 1.897877,-0.594857 0.736489,-0.594857 1.444652,-1.812897 0.08498,-0.141632 0.169959,-0.141632 0.113306,-0.02833 0.311592,0 l 2.096162,0.48155 q 0.254938,0.02833 0.254938,0.283266 l -0.05665,0.254938 q -0.56653,1.642938 -2.209468,3.002611 -1.614611,1.331346 -4.277303,1.331346 -2.181142,0 -3.909059,-0.963102 -1.699591,-0.991428 -2.662692,-2.747671 -0.963102,-1.756244 -0.963102,-4.022365 0,-2.294448 0.963102,-4.079018 0.991428,-1.784571 2.691018,-2.775999 1.727918,-0.991428 3.880733,-0.991428 z"
         style="font-style:normal;font-variant:normal;font-weight:bold;font-stretch:normal;font-family:'Libre Franklin';-inkscape-font-specification:'Libre Franklin Bold';fill:#ffffff;fill-opacity:1;stroke:none;stroke-width:0.17704068px"
         id="path822" />
      <path
         d="m 53.002046,-25.796783 q -0.934775,0 -1.30302,-0.113306 -0.368244,-0.08498 -0.368244,-0.424897 v -2.181142 q 0,-0.453224 0.821468,-0.453224 h 1.926203 q 0.849796,0 1.472979,-0.65151 0.623183,-0.623183 0.623183,-1.331346 0,-0.254939 -0.08498,-0.453224 l -5.438691,-13.398441 q -0.05665,-0.169959 -0.05665,-0.226612 0,-0.198286 0.141633,-0.311592 0.141632,-0.141632 0.368244,-0.141632 h 3.569141 q 0.198286,0 0.368245,0.141632 0.198285,0.113306 0.254938,0.339918 l 3.144243,8.441301 q 0.08498,0.283265 0.226612,0.283265 0.113307,0 0.254939,-0.311591 l 3.115917,-8.441301 q 0.198285,-0.453224 0.623183,-0.453224 h 2.43608 q 0.198286,0 0.311592,0.141632 0.141632,0.113306 0.141632,0.283265 0,0.05665 -0.05665,0.226612 l -5.806935,14.361543 q -0.793142,1.954529 -1.671264,2.945957 -0.878122,0.991428 -2.039509,1.359673 -1.133061,0.368244 -2.974284,0.368244 z"
         style="font-style:normal;font-variant:normal;font-weight:bold;font-stretch:normal;font-family:'Libre Franklin';-inkscape-font-specification:'Libre Franklin Bold';fill:#ffffff;fill-opacity:1;stroke:none;stroke-width:0.17704068px"
         id="path824" />
      <path
         d="m 68.309871,-30.470657 q -0.339918,0 -0.509877,-0.141633 -0.141633,-0.169959 -0.141633,-0.481551 v -19.856885 q 0,-0.254939 0.113306,-0.396572 0.141633,-0.141632 0.368245,-0.141632 h 3.455834 q 0.424898,0 0.424898,0.509877 v 6.600078 q 0,0.339918 0.198286,0.339918 0.113306,0 0.311591,-0.141633 1.699591,-1.586285 3.965712,-1.586285 2.832652,0 4.362283,2.096162 1.557958,2.096162 1.557958,5.60865 0,3.65412 -1.69959,5.778609 -1.699591,2.096162 -4.758855,2.096162 -1.444652,0 -2.606039,-0.65151 -1.13306,-0.65151 -1.86955,-1.642938 -0.141632,-0.141632 -0.198285,-0.141632 -0.08498,0 -0.141633,0.226612 l -0.339918,1.359672 q -0.08498,0.311592 -0.226612,0.453225 -0.141633,0.113306 -0.424898,0.113306 z m 3.710773,-5.183752 q 0,1.21804 0.821469,2.011182 0.849795,0.793143 2.011182,0.793143 3.115917,0 3.115917,-5.155426 0,-2.577713 -0.764816,-3.767426 -0.736489,-1.21804 -2.237795,-1.21804 -1.69959,0 -2.945957,1.501305 z"
         style="font-style:normal;font-variant:normal;font-weight:bold;font-stretch:normal;font-family:'Libre Franklin';-inkscape-font-specification:'Libre Franklin Bold';fill:#ffffff;fill-opacity:1;stroke:none;stroke-width:0.17704068px"
         id="path826" />
      <path
         d="m 88.743907,-36.70249 q 0,1.586284 1.048081,2.577712 1.076408,0.963102 2.662693,0.963102 1.019754,0 1.869549,-0.424898 0.878122,-0.453224 1.756244,-1.472979 0.113306,-0.113306 0.226612,-0.113306 0.08498,0 0.283266,0.08498 l 2.039508,0.849795 q 0.198286,0.08498 0.198286,0.283266 0,0.141632 -0.113306,0.283265 -1.359673,1.926203 -2.917631,2.719345 -1.557958,0.764816 -3.880732,0.764816 -2.181142,0 -3.937386,-0.963102 -1.756243,-0.963101 -2.747671,-2.662692 -0.991428,-1.727917 -0.991428,-3.937385 0,-2.379427 1.019754,-4.192324 1.019755,-1.841224 2.747672,-2.832652 1.756244,-0.991428 3.824079,-0.991428 2.152815,0 3.82408,0.963102 1.671264,0.934775 2.606039,2.719345 0.934775,1.784571 0.934775,4.248977 0,0.368245 -0.08498,0.509877 -0.05665,0.141633 -0.396571,0.16996 h -9.631015 q -0.339918,0 -0.339918,0.453224 z m 5.69363,-2.832652 q 0.311591,0 0.396571,-0.05665 0.08498,-0.08498 0.08498,-0.339918 0,-0.736489 -0.339918,-1.472978 -0.339918,-0.73649 -0.991428,-1.218041 -0.65151,-0.48155 -1.586285,-0.48155 -1.416325,0 -2.322774,0.991428 -0.906448,0.991428 -0.878122,2.549386 z"
         style="font-style:normal;font-variant:normal;font-weight:bold;font-stretch:normal;font-family:'Libre Franklin';-inkscape-font-specification:'Libre Franklin Bold';fill:#ffffff;fill-opacity:1;stroke:none;stroke-width:0.17704068px"
         id="path828" />
      <path
         d="m 102.11225,-30.470657 q -0.59486,0 -0.59486,-0.566531 v -13.908318 q 0,-0.538203 0.45323,-0.538203 h 3.3142 q 0.45322,0 0.45322,0.48155 v 1.671265 q 0,0.113306 0.0567,0.169959 0.0566,0.05665 0.1133,0.05665 0.085,0 0.22661,-0.141633 0.8498,-1.13306 2.01119,-1.812897 1.16138,-0.708163 2.20946,-0.708163 1.01976,0 1.01976,0.481551 v 3.285876 q 0,0.198285 -0.11331,0.311591 -0.1133,0.113306 -0.31159,0.05665 -0.90645,-0.226612 -1.98285,-0.226612 -0.70817,0 -1.44466,0.368245 -0.70816,0.339918 -1.18971,0.934775 -0.45322,0.56653 -0.45322,1.161387 v 8.271342 q 0,0.65151 -0.73649,0.65151 z"
         style="font-style:normal;font-variant:normal;font-weight:bold;font-stretch:normal;font-family:'Libre Franklin';-inkscape-font-specification:'Libre Franklin Bold';fill:#ffffff;fill-opacity:1;stroke:none;stroke-width:0.17704068px"
         id="path830" />
      <path
         d="m 117.34572,-45.483709 q 0.33991,0 0.48155,0.141632 0.14163,0.113306 0.14163,0.424898 v 0.849795 q 0,0.198286 0.11331,0.198286 0.085,0 0.28326,-0.141633 0.87812,-0.821469 1.78457,-1.274693 0.93478,-0.481551 2.3511,-0.481551 2.57771,0 4.19233,1.95453 1.61461,1.954529 1.61461,5.721956 0,3.909058 -1.67127,5.920241 -1.64293,1.982856 -4.36228,1.982856 -2.23779,0 -3.79575,-1.444652 -0.28327,-0.226612 -0.39657,-0.226612 -0.14164,0 -0.14164,0.396571 v 5.183752 q 0,0.48155 -0.42489,0.48155 h -3.48417 q -0.19828,0 -0.33991,-0.141632 -0.11331,-0.113306 -0.11331,-0.368245 v -18.553866 q 0,-0.339918 0.14163,-0.481551 0.16996,-0.141632 0.50988,-0.141632 z m 0.59485,11.132319 q 0.62319,0.679837 1.2747,1.048081 0.65151,0.368245 1.44465,0.368245 3.22922,0 3.22922,-5.240405 0,-2.606039 -0.82147,-3.710773 -0.82147,-1.133061 -2.32277,-1.133061 -1.16139,0 -1.98286,0.708163 -0.82147,0.679836 -0.82147,1.557958 z"
         style="font-style:normal;font-variant:normal;font-weight:bold;font-stretch:normal;font-family:'Libre Franklin';-inkscape-font-specification:'Libre Franklin Bold';fill:#ffffff;fill-opacity:1;stroke:none;stroke-width:0.17704068px"
         id="path832" />
      <path
         d="m 135.23037,-31.150494 q 0,0.368245 -0.16995,0.538204 -0.16996,0.141633 -0.59486,0.141633 h -3.00261 q -0.33992,0 -0.48155,-0.141633 -0.14163,-0.141632 -0.14163,-0.453224 l 0.085,-19.885212 q 0,-0.538204 0.45323,-0.538204 h 3.42751 q 0.42489,0 0.42489,0.509877 z"
         style="font-style:normal;font-variant:normal;font-weight:bold;font-stretch:normal;font-family:'Libre Franklin';-inkscape-font-specification:'Libre Franklin Bold';fill:#ffffff;fill-opacity:1;stroke:none;stroke-width:0.17704068px"
         id="path834" />
      <path
         d="m 145.27566,-30.187392 q -2.2378,0 -3.96571,-0.963102 -1.69959,-0.991428 -2.6627,-2.747671 -0.9631,-1.756244 -0.9631,-3.994039 0,-2.322774 0.9631,-4.107344 0.99143,-1.784571 2.71935,-2.775999 1.75624,-0.991428 3.93738,-0.991428 2.2378,0 3.96572,1.019755 1.72791,0.991428 2.66269,2.775998 0.9631,1.784571 0.9631,4.050692 0,2.237794 -0.9631,3.994038 -0.9631,1.756244 -2.69102,2.747672 -1.72792,0.991428 -3.96571,0.991428 z m 0.0283,-2.889305 q 1.55796,0 2.3511,-1.21804 0.82147,-1.246366 0.82147,-3.682446 0,-2.464407 -0.82147,-3.710774 -0.79314,-1.274693 -2.3511,-1.274693 -1.55795,0 -2.37942,1.274693 -0.82147,1.246367 -0.82147,3.710774 0,2.407753 0.82147,3.65412 0.82147,1.246366 2.37942,1.246366 z"
         style="font-style:normal;font-variant:normal;font-weight:bold;font-stretch:normal;font-family:'Libre Franklin';-inkscape-font-specification:'Libre Franklin Bold';fill:#ffffff;fill-opacity:1;stroke:none;stroke-width:0.17704068px"
         id="path836" />
      <path
         d="m 161.27837,-42.481099 q -0.31159,0 -0.31159,0.339918 v 6.82669 q 0,0.963101 0.45323,1.387999 0.45322,0.396571 1.44465,0.396571 h 1.52963 q 0.19829,0 0.31159,0.141633 0.11331,0.113306 0.11331,0.339918 l -0.0283,1.727917 q 0,0.566531 -0.62318,0.679837 -1.18972,0.169959 -3.37086,0.169959 -1.98285,0 -3.08759,-0.934775 -1.10473,-0.934775 -1.10473,-2.719346 v -7.931423 q 0,-0.424898 -0.36825,-0.424898 h -1.72791 q -0.53821,0 -0.53821,-0.481551 v -2.096162 q 0,-0.424897 0.50988,-0.424897 h 1.95453 q 0.22661,0 0.28326,-0.311592 l 0.39658,-4.30563 q 0.0566,-0.481551 0.42489,-0.481551 h 3.08759 q 0.19829,0 0.3116,0.141633 0.14163,0.141632 0.14163,0.396571 v 4.248977 q 0,0.283265 0.28326,0.283265 h 2.97429 q 0.50987,0 0.50987,0.453224 v 2.096162 q 0,0.481551 -0.56653,0.481551 z"
         style="font-style:normal;font-variant:normal;font-weight:bold;font-stretch:normal;font-family:'Libre Franklin';-inkscape-font-specification:'Libre Franklin Bold';fill:#ffffff;fill-opacity:1;stroke:none;stroke-width:0.17704068px"
         id="path838" />
    </g>
  </g>
</svg>
