<?xml version="1.0" encoding="UTF-8" standalone="no"?>
<!-- Created with Inkscape (http://www.inkscape.org/) -->

<svg
   xmlns:dc="http://purl.org/dc/elements/1.1/"
   xmlns:cc="http://creativecommons.org/ns#"
   xmlns:rdf="http://www.w3.org/1999/02/22-rdf-syntax-ns#"
   xmlns:svg="http://www.w3.org/2000/svg"
   xmlns="http://www.w3.org/2000/svg"
   xmlns:sodipodi="http://sodipodi.sourceforge.net/DTD/sodipodi-0.dtd"
   xmlns:inkscape="http://www.inkscape.org/namespaces/inkscape"
   width="14.330392mm"
   height="6.3825569mm"
   viewBox="0 0 14.330392 6.3825569"
   version="1.1"
   id="svg4809"
   inkscape:version="0.92.4 (unknown)"
   sodipodi:docname="icon_attribute_numerical_gray.svg">
  <defs
     id="defs4803" />
  <sodipodi:namedview
     id="base"
     pagecolor="#ffffff"
     bordercolor="#666666"
     borderopacity="1.0"
     inkscape:pageopacity="0.0"
     inkscape:pageshadow="2"
     inkscape:zoom="1.979899"
     inkscape:cx="170.32697"
     inkscape:cy="119.8746"
     inkscape:document-units="mm"
     inkscape:current-layer="layer1"
     showgrid="false"
     inkscape:window-width="1920"
     inkscape:window-height="1014"
     inkscape:window-x="1920"
     inkscape:window-y="33"
     inkscape:window-maximized="1" />
  <metadata
     id="metadata4806">
    <rdf:RDF>
      <cc:Work
         rdf:about="">
        <dc:format>image/svg+xml</dc:format>
        <dc:type
           rdf:resource="http://purl.org/dc/dcmitype/StillImage" />
        <dc:title></dc:title>
      </cc:Work>
    </rdf:RDF>
  </metadata>
  <g
     inkscape:label="Layer 1"
     inkscape:groupmode="layer"
     id="layer1"
     transform="translate(-9.2624835,-103.80141)">
    <path
       style="color:#000000;clip-rule:nonzero;display:inline;overflow:visible;visibility:visible;opacity:1;isolation:auto;mix-blend-mode:normal;color-interpolation:sRGB;color-interpolation-filters:linearRGB;solid-color:#000000;solid-opacity:1;fill:#4b4b4b;fill-opacity:1;fill-rule:evenodd;stroke-width:0.59385729;color-rendering:auto;image-rendering:auto;shape-rendering:auto;text-rendering:auto;enable-background:accumulate"
       d="m 9.6237009,103.80141 c -0.200139,0 -0.361217,0.16108 -0.361217,0.36122 v 5.66012 c 0,0.20014 0.161078,0.36122 0.361217,0.36122 H 23.231655 c 0.200142,0 0.36122,-0.16108 0.36122,-0.36122 v -5.66012 c 0,-0.20014 -0.161078,-0.36122 -0.36122,-0.36122 z m 6.6347361,1.39423 c 0.238483,0 0.448615,0.0404 0.630455,0.12093 0.184822,0.0805 0.327559,0.19678 0.428913,0.34881 0.101354,0.15203 0.152445,0.33071 0.152445,0.5364 0,0.18184 -0.04942,0.34871 -0.147793,0.50075 -0.09539,0.15203 -0.261112,0.32224 -0.49661,0.51004 l -0.826823,0.64802 c -0.01789,0.0119 -0.02687,0.0226 -0.02687,0.0315 0,0.0149 0.01797,0.0222 0.05374,0.0222 h 1.390613 c 0.05664,0 0.08475,0.0241 0.08475,0.0718 v 0.49145 c 0,0.0537 -0.02978,0.0806 -0.0894,0.0806 h -2.329575 c -0.03875,0 -0.06571,-0.006 -0.08062,-0.0181 -0.0149,-0.0149 -0.02222,-0.0402 -0.02222,-0.076 v -0.34416 c 0,-0.0268 0.0118,-0.0549 0.03566,-0.0847 0.02384,-0.0328 0.08058,-0.0867 0.170014,-0.16124 l 0.831474,-0.75085 c 0.196747,-0.16992 0.342826,-0.30586 0.438216,-0.40721 0.09539,-0.10136 0.161116,-0.18903 0.196887,-0.26355 0.03875,-0.0775 0.0584,-0.1612 0.0584,-0.25063 0,-0.13415 -0.04775,-0.23979 -0.143145,-0.3173 -0.09241,-0.0805 -0.210378,-0.12092 -0.353467,-0.12092 -0.125201,0 -0.241498,0.0371 -0.348816,0.11162 -0.104333,0.0716 -0.205483,0.19118 -0.303855,0.35812 -0.0089,0.0238 -0.02859,0.0357 -0.0584,0.0357 -0.02088,0 -0.04166,-0.006 -0.06253,-0.0181 l -0.39791,-0.20567 c -0.03577,-0.0238 -0.05374,-0.0508 -0.05374,-0.0806 0,-0.0209 0.0073,-0.0428 0.02223,-0.0667 0.295119,-0.46802 0.711406,-0.70229 1.247984,-0.70229 z m 2.886131,0 c 0.256365,0 0.478822,0.0371 0.666626,0.11162 0.190783,0.0716 0.335192,0.17321 0.433564,0.30438 0.101354,0.13116 0.151929,0.28173 0.151929,0.45165 0,0.14905 -0.04608,0.28781 -0.138493,0.41599 -0.09241,0.12521 -0.222187,0.21288 -0.389123,0.26355 -0.03577,0.0119 -0.05374,0.0271 -0.05374,0.045 0,0.0149 0.0163,0.0267 0.04909,0.0357 0.190783,0.0626 0.344696,0.1626 0.460954,0.29972 0.116258,0.13713 0.174149,0.29501 0.174149,0.47388 0,0.32492 -0.119121,0.57382 -0.3576,0.74672 -0.235498,0.1729 -0.586063,0.25941 -1.0511,0.25941 -0.256365,0 -0.496276,-0.0494 -0.719852,-0.14779 -0.220594,-0.10135 -0.393112,-0.23678 -0.518313,-0.40669 -0.0149,-0.0209 -0.02273,-0.0405 -0.02273,-0.0584 0,-0.0238 0.01683,-0.0475 0.04961,-0.0713 l 0.348298,-0.24598 c 0.02683,-0.0179 0.04647,-0.0269 0.0584,-0.0269 0.01789,0 0.03136,0.007 0.04031,0.0222 0.140107,0.14309 0.268213,0.24308 0.384474,0.29972 0.119239,0.0566 0.260823,0.0847 0.424778,0.0847 0.184822,0 0.329231,-0.0399 0.433567,-0.1204 0.107315,-0.0805 0.161229,-0.18665 0.161229,-0.31781 0,-0.14607 -0.05956,-0.26237 -0.1788,-0.34882 -0.116258,-0.0864 -0.264006,-0.13086 -0.442867,-0.13384 l -0.384472,-0.009 c -0.05068,0 -0.07596,-0.0213 -0.07596,-0.063 v -0.42013 c 0,-0.0328 0.02529,-0.0536 0.07596,-0.0625 l 0.308507,-0.0134 c 0.175879,-0.003 0.319135,-0.0462 0.429432,-0.12971 0.113279,-0.0864 0.169497,-0.19376 0.169497,-0.32194 3e-6,-0.10732 -0.04723,-0.19666 -0.142626,-0.2682 -0.09241,-0.0745 -0.210378,-0.11214 -0.353467,-0.11214 -0.137126,0 -0.262409,0.027 -0.375688,0.0806 -0.113276,0.0507 -0.229576,0.13437 -0.348816,0.25063 -0.02087,0.0209 -0.03717,0.031 -0.04909,0.031 -0.006,0 -0.02225,-0.0101 -0.04909,-0.031 l -0.326594,-0.30438 c -0.01193,-0.0119 -0.01757,-0.0266 -0.01757,-0.0444 0,-0.0149 0.0056,-0.0329 0.01757,-0.0537 0.11924,-0.14309 0.28329,-0.25657 0.491959,-0.34003 0.208669,-0.0835 0.430609,-0.12506 0.666109,-0.12506 z m -5.429644,0.045 h 0.308509 c 0.02088,0 0.03717,0.007 0.04909,0.0222 0.01193,0.0149 0.0181,0.034 0.0181,0.0579 v 2.61586 c 0,0.0298 0.01347,0.045 0.04031,0.045 h 0.447 c 0.05366,0 0.08062,0.0225 0.08062,0.0672 v 0.43357 c 0,0.0209 -0.0073,0.0388 -0.02222,0.0537 -0.0149,0.0149 -0.03737,0.0222 -0.06718,0.0222 h -1.766301 c -0.05664,0 -0.08475,-0.0253 -0.08475,-0.076 v -0.43356 c 0,-0.0447 0.02529,-0.0672 0.07596,-0.0672 h 0.465087 c 0.03279,0 0.04909,-0.0107 0.04909,-0.0315 v -1.87792 c 0,-0.0238 -0.0045,-0.0385 -0.01344,-0.0444 -0.0089,-0.009 -0.02524,-0.0106 -0.04909,-0.005 l -0.434084,0.12971 -0.03101,0.005 c -0.04471,0 -0.06718,-0.0303 -0.06718,-0.0899 v -0.29507 c 0,-0.0298 0.0045,-0.0506 0.01344,-0.0625 0.0089,-0.0149 0.02691,-0.0295 0.05374,-0.0444 l 0.746726,-0.37104 c 0.04173,-0.0209 0.07434,-0.0343 0.09818,-0.0403 0.02683,-0.009 0.05661,-0.0134 0.0894,-0.0134 z"
       id="rect1201-8-2-8-0-9-1"
       inkscape:connector-curvature="0" />
  </g>
</svg>
