<?xml version="1.0" encoding="UTF-8" standalone="no"?>
<!-- Created with Inkscape (http://www.inkscape.org/) -->

<svg
   xmlns:dc="http://purl.org/dc/elements/1.1/"
   xmlns:cc="http://creativecommons.org/ns#"
   xmlns:rdf="http://www.w3.org/1999/02/22-rdf-syntax-ns#"
   xmlns:svg="http://www.w3.org/2000/svg"
   xmlns="http://www.w3.org/2000/svg"
   xmlns:xlink="http://www.w3.org/1999/xlink"
   xmlns:sodipodi="http://sodipodi.sourceforge.net/DTD/sodipodi-0.dtd"
   xmlns:inkscape="http://www.inkscape.org/namespaces/inkscape"
   width="15.167545mm"
   height="15.167545mm"
   viewBox="0 0 15.167545 15.167545"
   version="1.1"
   id="svg5531"
   inkscape:version="0.92.4 (unknown)"
   sodipodi:docname="icon_source_python_blue.svg">
  <defs
     id="defs5525">
    <linearGradient
       inkscape:collect="always"
       id="linearGradient6218">
      <stop
         style="stop-color:#14e0f9;stop-opacity:1"
         offset="0"
         id="stop6214" />
      <stop
         style="stop-color:#3765ff;stop-opacity:1"
         offset="1"
         id="stop6216" />
    </linearGradient>
    <linearGradient
       inkscape:collect="always"
       xlink:href="#linearGradient6218"
       id="linearGradient5467"
       x1="-3327.9905"
       y1="3828.4285"
       x2="-3323.2947"
       y2="3830.1936"
       gradientUnits="userSpaceOnUse"
       gradientTransform="matrix(1.0976946,0,0,1.0976946,-536.72367,-620.51248)" />
    <linearGradient
       gradientTransform="translate(4216.9513,-3574.2111)"
       inkscape:collect="always"
       xlink:href="#linearGradient6218"
       id="linearGradient4953"
       x1="-4176.6782"
       y1="3577.4634"
       x2="-4166.0513"
       y2="3588.0789"
       gradientUnits="userSpaceOnUse" />
  </defs>
  <sodipodi:namedview
     id="base"
     pagecolor="#ffffff"
     bordercolor="#666666"
     borderopacity="1.0"
     inkscape:pageopacity="0.0"
     inkscape:pageshadow="2"
     inkscape:zoom="1.979899"
     inkscape:cx="35.978587"
     inkscape:cy="-80.840885"
     inkscape:document-units="mm"
     inkscape:current-layer="layer1"
     showgrid="false"
     inkscape:window-width="1920"
     inkscape:window-height="1014"
     inkscape:window-x="1920"
     inkscape:window-y="33"
     inkscape:window-maximized="1" />
  <metadata
     id="metadata5528">
    <rdf:RDF>
      <cc:Work
         rdf:about="">
        <dc:format>image/svg+xml</dc:format>
        <dc:type
           rdf:resource="http://purl.org/dc/dcmitype/StillImage" />
        <dc:title></dc:title>
      </cc:Work>
    </rdf:RDF>
  </metadata>
  <g
     inkscape:label="Layer 1"
     inkscape:groupmode="layer"
     id="layer1"
     transform="translate(-38.002579,-0.97606957)">
    <path
       inkscape:connector-curvature="0"
       id="path7953-1-4-2"
       d="m 45.183951,13.856541 c -0.407003,-0.027 -0.802701,-0.097 -1.093404,-0.1925 -0.585798,-0.1934 -0.953299,-0.5341 -1.0453,-0.9692 -0.01101,-0.056 -0.01299,-0.2314 -0.01198,-1.3786 0,-0.848 0.01,-1.3446005 0.01,-1.3989005 0.033,-0.3029 0.141999,-0.5555 0.3228,-0.7509 0.1603,-0.1731 0.421402,-0.3182 0.6946,-0.3859 0.2227,-0.055 0.124402,-0.052 1.735301,-0.058 1.454298,-0.01 1.475298,-0.01 1.5713,-0.024 0.265398,-0.051 0.4651,-0.1393 0.6419,-0.283 0.2466,-0.2002 0.4245,-0.5333 0.4864,-0.9098 0.01,-0.034 0.01201,-0.072 0.015,-0.084 0.01,-0.012 0.01,-0.3487 0.01101,-0.7481 l 0.01,-0.726 h 0.517901 0.517999 l 0.094,0.024 c 0.2292,0.058 0.410699,0.1587 0.582901,0.322399 0.158398,0.1506 0.2594,0.291201 0.368099,0.5125 0.127899,0.2605 0.2092,0.535001 0.266401,0.898702 0.02101,0.136999 0.02101,0.138398 0.02101,0.849899 0,0.6752 0,0.7185 -0.019,0.823299 -0.063,0.386502 -0.179004,0.7274015 -0.336103,0.9874015 -0.230598,0.3817 -0.562499,0.6253 -0.987097,0.7243 -0.079,0.019 -0.088,0.019 -2.018403,0.023 l -1.938798,0.01 v 0.177099 0.1771 h 1.2832 c 0.7058,0 1.286301,0.01 1.29,0.01 0.01,0.01 0.01,0.3055 0.01,0.6706 0,0.754799 0.01,0.7243 -0.072,0.8763 -0.106403,0.216198 -0.284803,0.378098 -0.571201,0.518398 -0.318104,0.155901 -0.715002,0.248301 -1.297001,0.301401 -0.133199,0.012 -0.900002,0.018 -1.053502,0.01 z m 2.028899,-0.8321 c 0.133898,-0.044 0.242398,-0.1516 0.2916,-0.2873 0.02601,-0.072 0.029,-0.2169 0.01,-0.2878 -0.08,-0.2363 -0.3193,-0.3728 -0.550299,-0.3141 -0.160401,0.041 -0.2837,0.1557 -0.337,0.3141 -0.024,0.072 -0.02201,0.2075 0.01,0.2824 0.071,0.1991 0.258601,0.3274 0.4631,0.3154 0.038,0 0.093,-0.012 0.123899,-0.022 z m -5.629103,-1.8592 c -0.682601,-0.1437 -1.137598,-0.8136 -1.268398,-1.8675005 -0.028,-0.2252 -0.036,-0.3462 -0.041,-0.6198 -0.019,-0.887 0.138401,-1.5628 0.473201,-2.0361 0.072,-0.103 0.237601,-0.2716 0.3365,-0.3441 0.2002,-0.1469 0.446701,-0.2455 0.687901,-0.2749 0.055,-0.01 0.651298,-0.01 1.958898,-0.01 h 1.879301 v -0.1794 -0.1792 l -1.2837,-0.01 -1.2837,-0.01 -0.01,-0.239 c -0.01201,-0.4867 -0.01,-1.0515 0.01,-1.122 0.056,-0.2958 0.305501,-0.5597 0.688001,-0.7293 0.320699,-0.1422 0.7176,-0.2296 1.247198,-0.2748 0.226801,-0.019 0.896602,-0.022 1.102202,-0.01 0.433998,0.037 0.733599,0.09 1.012399,0.1803 0.356499,0.1155 0.592399,0.2516 0.789799,0.4556 0.120002,0.1241 0.2017,0.255 0.252902,0.4051 0.05,0.1442 0.048,0.096 0.048,1.4883 0,0.812501 -0.01,1.32 -0.01,1.378001 -0.034,0.343599 -0.147802,0.6013 -0.357402,0.808999 -0.175699,0.1741 -0.3995,0.293302 -0.6785,0.361301 -0.210399,0.051 -0.172498,0.05 -1.649899,0.05 -0.857399,0 -1.3994,0.01 -1.4716,0.01 -0.5472,0.043 -0.933399,0.2923 -1.149699,0.7389 -0.055,0.1144 -0.085,0.194401 -0.115001,0.312601 -0.054,0.211399 -0.052,0.182599 -0.057,0.9800005 l -0.01,0.7348 h -0.509098 c -0.4725,0 -0.5149,0 -0.5902,-0.015 z m 2.679999,-6.1756005 c 0.201004,-0.059 0.3375,-0.2387 0.337103,-0.4442 0,-0.085 -0.01199,-0.1417 -0.046,-0.2106 -0.122298,-0.2483 -0.441598,-0.3319 -0.675198,-0.1769 -0.085,0.057 -0.1494,0.145 -0.182801,0.2515 -0.02199,0.071 -0.02299,0.1902 -0.01,0.2587 0.045,0.1552 0.172101,0.2811 0.323302,0.3217 0.064,0.018 0.187899,0.018 0.247499,0 z"
       style="fill:url(#linearGradient4953);fill-opacity:1;stroke:none;stroke-width:0.0088532"
       inkscape:export-filename="/home/tomires/g4365-3.png"
       inkscape:export-xdpi="124.34"
       inkscape:export-ydpi="124.34" />
  </g>
</svg>
