<?xml version="1.0" encoding="UTF-8" standalone="no"?>
<!-- Created with Inkscape (http://www.inkscape.org/) -->

<svg
   xmlns:dc="http://purl.org/dc/elements/1.1/"
   xmlns:cc="http://creativecommons.org/ns#"
   xmlns:rdf="http://www.w3.org/1999/02/22-rdf-syntax-ns#"
   xmlns:svg="http://www.w3.org/2000/svg"
   xmlns="http://www.w3.org/2000/svg"
   xmlns:sodipodi="http://sodipodi.sourceforge.net/DTD/sodipodi-0.dtd"
   xmlns:inkscape="http://www.inkscape.org/namespaces/inkscape"
   width="14.330392mm"
   height="6.3825569mm"
   viewBox="0 0 14.330392 6.3825569"
   version="1.1"
   id="svg4809"
   inkscape:version="0.92.4 (unknown)"
   sodipodi:docname="icon_attribute_categorical_gray.svg">
  <defs
     id="defs4803" />
  <sodipodi:namedview
     id="base"
     pagecolor="#ffffff"
     bordercolor="#666666"
     borderopacity="1.0"
     inkscape:pageopacity="0.0"
     inkscape:pageshadow="2"
     inkscape:zoom="1.979899"
     inkscape:cx="170.32697"
     inkscape:cy="119.8746"
     inkscape:document-units="mm"
     inkscape:current-layer="layer1"
     showgrid="false"
     inkscape:window-width="1920"
     inkscape:window-height="1014"
     inkscape:window-x="1920"
     inkscape:window-y="33"
     inkscape:window-maximized="1" />
  <metadata
     id="metadata4806">
    <rdf:RDF>
      <cc:Work
         rdf:about="">
        <dc:format>image/svg+xml</dc:format>
        <dc:type
           rdf:resource="http://purl.org/dc/dcmitype/StillImage" />
        <dc:title></dc:title>
      </cc:Work>
    </rdf:RDF>
  </metadata>
  <g
     inkscape:label="Layer 1"
     inkscape:groupmode="layer"
     id="layer1"
     transform="translate(-9.2624835,-103.80141)">
    <path
       style="color:#000000;clip-rule:nonzero;display:inline;overflow:visible;visibility:visible;opacity:1;isolation:auto;mix-blend-mode:normal;color-interpolation:sRGB;color-interpolation-filters:linearRGB;solid-color:#000000;solid-opacity:1;fill:#4b4b4b;fill-opacity:1;fill-rule:evenodd;stroke-width:0.59385729;color-rendering:auto;image-rendering:auto;shape-rendering:auto;text-rendering:auto;enable-background:accumulate"
       d="m 9.6237034,103.80141 c -0.200142,0 -0.361217,0.16108 -0.36122,0.36122 v 5.66012 c 0,0.20014 0.161078,0.36122 0.36122,0.36122 H 23.231658 c 0.200141,0 0.361217,-0.16108 0.361217,-0.36122 v -5.66012 c 0,-0.20014 -0.161076,-0.36122 -0.361217,-0.36122 z m 4.6875696,1.44539 a 1.5965762,1.5965762 0 0 1 1.596284,1.5968 1.5965762,1.5965762 0 0 1 -1.596284,1.59629 1.5965762,1.5965762 0 0 1 -1.596803,-1.59629 1.5965762,1.5965762 0 0 1 1.596803,-1.5968 z m 3.972883,0.2589 0.8847,1.53272 0.885217,1.53221 h -1.769917 -1.769401 l 0.8847,-1.53221 z"
       id="rect1201-4-7-0-1-5-9-9-8-0"
       inkscape:connector-curvature="0" />
  </g>
</svg>
